AndadaPro-MediumItalic.ufo
<glyph name="exclam" format="2">
  <advance width="303.625"/>
  <unicode hex="0021"/>
  <outline>
    <contour>
      <point x="169.6818181818182" y="218.04545454545453" type="line"/>
      <point x="181.9318181818182" y="225.29545454545453" type="line"/>
      <point x="194.70454545454547" y="309.45454545454544" type="line" smooth="yes"/>
      <point x="203.0909090909091" y="368.4318181818182"/>
      <point x="258.45454545454544" y="625.0227272727273"/>
      <point x="288.29545454545456" y="751.9545454545455" type="curve"/>
      <point x="270.25" y="771.2045454545455" type="line"/>
      <point x="186.29545454545453" y="763.7954545454545" type="line"/>
      <point x="109.61363636363636" y="287.45454545454544" type="line"/>
      <point x="96.43181818181819" y="221.45454545454547" type="line"/>
    </contour>
    <contour>
      <point x="98.75" y="-10.818181818181818" type="curve" smooth="yes"/>
      <point x="139.79545454545456" y="-10.818181818181818"/>
      <point x="169.8181818181818" y="24.204545454545453"/>
      <point x="169.8181818181818" y="70.86363636363636" type="curve" smooth="yes"/>
      <point x="169.8181818181818" y="102.11363636363636"/>
      <point x="152.38636363636363" y="121.93181818181819"/>
      <point x="123.13636363636364" y="121.93181818181819" type="curve" smooth="yes"/>
      <point x="81.29545454545455" y="121.93181818181819"/>
      <point x="51.86363636363637" y="88.29545454545455"/>
      <point x="51.86363636363637" y="40.04545454545455" type="curve" smooth="yes"/>
      <point x="51.86363636363637" y="8.613636363636363"/>
      <point x="68.0909090909091" y="-10.818181818181818"/>
    </contour>
  </outline>
</glyph>
<glyph name="numbersign" format="2">
  <advance width="634.25"/>
  <unicode hex="0023"/>
  <outline>
    <contour>
      <point x="169.3409090909091" y="-15.0" type="line"/>
      <point x="334.52272727272725" y="562.0" type="line"/>
      <point x="273.02272727272725" y="572.0" type="line"/>
      <point x="108.63636363636364" y="-5.0" type="line"/>
    </contour>
    <contour>
      <point x="52.0" y="148.75" type="line"/>
      <point x="536.2045454545455" y="148.75" type="line"/>
      <point x="545.8181818181819" y="222.25" type="line"/>
      <point x="61.40909090909091" y="217.25" type="line"/>
    </contour>
    <contour>
      <point x="364.59090909090907" y="-15.0" type="line"/>
      <point x="529.5681818181819" y="562.0" type="line"/>
      <point x="468.27272727272725" y="572.0" type="line"/>
      <point x="303.8863636363636" y="-5.0" type="line"/>
    </contour>
    <contour>
      <point x="95.79545454545455" y="335.75" type="line"/>
      <point x="581.0" y="340.75" type="line"/>
      <point x="589.6136363636364" y="409.25" type="line"/>
      <point x="106.20454545454545" y="409.25" type="line"/>
    </contour>
  </outline>
</glyph>
<glyph name="dollar" format="2">
  <advance width="549.125"/>
  <unicode hex="0024"/>
  <outline>
    <contour>
      <point x="231.29545454545453" y="-13.204545454545455" type="curve" smooth="yes"/>
      <point x="373.1136363636364" y="-13.204545454545455"/>
      <point x="470.59090909090907" y="72.06818181818181"/>
      <point x="470.59090909090907" y="192.52272727272728" type="curve" smooth="yes"/>
      <point x="470.59090909090907" y="363.9318181818182"/>
      <point x="219.6818181818182" y="363.09090909090907"/>
      <point x="219.6818181818182" y="480.20454545454544" type="curve" smooth="yes"/>
      <point x="219.6818181818182" y="538.9318181818181"/>
      <point x="266.4318181818182" y="583.6590909090909"/>
      <point x="327.79545454545456" y="583.6590909090909" type="curve" smooth="yes"/>
      <point x="374.79545454545456" y="583.6590909090909"/>
      <point x="411.90909090909093" y="571.5227272727273"/>
      <point x="451.8181818181818" y="548.7727272727273" type="curve"/>
      <point x="412.77272727272725" y="593.3636363636364" type="line"/>
      <point x="416.59090909090907" y="565.5227272727273"/>
      <point x="424.6363636363636" y="528.0681818181819"/>
      <point x="422.84090909090907" y="515.8863636363636" type="curve"/>
      <point x="417.84090909090907" y="472.20454545454544" type="line"/>
      <point x="473.1363636363636" y="467.6136363636364" type="line"/>
      <point x="506.34090909090907" y="612.6136363636364" type="line"/>
      <point x="450.1363636363636" y="627.6363636363636"/>
      <point x="386.09090909090907" y="641.6363636363636"/>
      <point x="329.45454545454544" y="641.6363636363636" type="curve" smooth="yes"/>
      <point x="201.20454545454547" y="641.6363636363636"/>
      <point x="110.36363636363636" y="561.7954545454545"/>
      <point x="110.36363636363636" y="448.9318181818182" type="curve" smooth="yes"/>
      <point x="110.36363636363636" y="281.65909090909093"/>
      <point x="358.8863636363636" y="287.1136363636364"/>
      <point x="358.8863636363636" y="163.1818181818182" type="curve" smooth="yes"/>
      <point x="358.8863636363636" y="96.88636363636364"/>
      <point x="308.75" y="49.56818181818182"/>
      <point x="237.8409090909091" y="49.56818181818182" type="curve" smooth="yes"/>
      <point x="183.5909090909091" y="49.56818181818182"/>
      <point x="140.0" y="69.25"/>
      <point x="109.1590909090909" y="84.86363636363636" type="curve"/>
      <point x="140.61363636363637" y="46.38636363636363" type="line"/>
      <point x="135.77272727272728" y="62.04545454545455"/>
      <point x="130.9090909090909" y="118.06818181818181"/>
      <point x="131.9090909090909" y="126.06818181818181" type="curve" smooth="yes"/>
      <point x="140.11363636363637" y="174.5681818181818" type="line"/>
      <point x="75.63636363636364" y="179.36363636363637" type="line"/>
      <point x="42.81818181818182" y="32.18181818181818" type="line"/>
      <point x="42.81818181818182" y="32.18181818181818"/>
      <point x="115.68181818181819" y="-13.204545454545455"/>
    </contour>
    <contour>
      <point x="223.95454545454547" y="-154.0" type="line"/>
      <point x="253.75" y="15.0" type="line"/>
      <point x="206.25" y="15.0" type="line"/>
      <point x="176.45454545454547" y="-151.0" type="line"/>
    </contour>
    <contour>
      <point x="310.6136363636364" y="616.0" type="line"/>
      <point x="357.1136363636364" y="616.0" type="line"/>
      <point x="386.90909090909093" y="785.0" type="line"/>
      <point x="340.40909090909093" y="788.0" type="line"/>
    </contour>
  </outline>
</glyph>
<glyph name="ampersand" format="2">
  <advance width="841.625"/>
  <unicode hex="0026"/>
  <outline>
    <contour>
      <point x="203.02272727272728" y="-11.636363636363637" type="curve" smooth="yes"/>
      <point x="424.3181818181818" y="-11.636363636363637"/>
      <point x="620.1818181818181" y="235.5681818181818"/>
      <point x="620.1818181818181" y="507.25" type="curve" smooth="yes"/>
      <point x="620.1818181818181" y="553.0909090909091"/>
      <point x="613.1818181818181" y="598.7727272727273"/>
      <point x="600.0" y="653.8636363636364" type="curve"/>
      <point x="503.0" y="622.9545454545455" type="line"/>
      <point x="530.3636363636364" y="562.0"/>
      <point x="543.1590909090909" y="495.79545454545456"/>
      <point x="543.1590909090909" y="433.8181818181818" type="curve" smooth="yes"/>
      <point x="543.1590909090909" y="257.34090909090907"/>
      <point x="391.0681818181818" y="63.68181818181818"/>
      <point x="248.6818181818182" y="63.68181818181818" type="curve" smooth="yes"/>
      <point x="186.20454545454547" y="63.68181818181818"/>
      <point x="163.20454545454547" y="91.27272727272727"/>
      <point x="163.20454545454547" y="162.9318181818182" type="curve" smooth="yes"/>
      <point x="163.20454545454547" y="282.90909090909093"/>
      <point x="238.25" y="440.25"/>
      <point x="295.34090909090907" y="440.25" type="curve" smooth="yes"/>
      <point x="349.04545454545456" y="440.25"/>
      <point x="366.6363636363636" y="428.8636363636364"/>
      <point x="366.6363636363636" y="394.54545454545456" type="curve" smooth="yes"/>
      <point x="366.6363636363636" y="332.9318181818182"/>
      <point x="296.1818181818182" y="284.45454545454544"/>
      <point x="163.79545454545453" y="254.77272727272728" type="curve"/>
      <point x="211.52272727272728" y="262.02272727272725"/>
      <point x="259.04545454545456" y="269.27272727272725"/>
      <point x="306.77272727272725" y="276.52272727272725" type="curve"/>
      <point x="402.8636363636364" y="318.02272727272725"/>
      <point x="452.25" y="366.0681818181818"/>
      <point x="452.25" y="416.84090909090907" type="curve" smooth="yes"/>
      <point x="452.25" y="475.20454545454544"/>
      <point x="408.5681818181818" y="503.0"/>
      <point x="317.8636363636364" y="503.0" type="curve" smooth="yes"/>
      <point x="212.11363636363637" y="503.0"/>
      <point x="71.77272727272727" y="300.75"/>
      <point x="71.77272727272727" y="149.3181818181818" type="curve" smooth="yes"/>
      <point x="71.77272727272727" y="43.56818181818182"/>
      <point x="116.61363636363636" y="-11.636363636363637"/>
    </contour>
    <contour>
      <point x="152.38636363636363" y="200.9090909090909" type="line"/>
      <point x="397.75" y="245.70454545454547"/>
      <point x="562.7954545454545" y="373.04545454545456"/>
      <point x="803.3863636363636" y="475.3863636363636" type="curve"/>
      <point x="810.8181818181819" y="507.02272727272725" type="line"/>
      <point x="754.3863636363636" y="563.1590909090909" type="line"/>
      <point x="630.3863636363636" y="444.15909090909093"/>
      <point x="393.3863636363636" y="293.15909090909093"/>
      <point x="154.38636363636363" y="253.1590909090909" type="curve"/>
    </contour>
  </outline>
</glyph>
<glyph name="quotesingle" format="2">
  <advance width="292.125"/>
  <unicode hex="0027"/>
  <outline>
    <contour>
      <point x="194.9318181818182" y="462.79545454545456" type="line"/>
      <point x="251.27272727272728" y="706.0" type="line"/>
      <point x="164.1590909090909" y="706.0" type="line"/>
      <point x="160.77272727272728" y="651.0"/>
      <point x="151.5909090909091" y="571.0227272727273"/>
      <point x="149.5909090909091" y="560.0" type="curve" smooth="yes"/>
      <point x="132.4090909090909" y="466.20454545454544" type="line"/>
    </contour>
  </outline>
</glyph>
<glyph name="parenleft" format="2">
  <advance width="388.90909090909093"/>
  <unicode hex="0028"/>
  <outline>
    <contour>
      <point x="247.27272727272728" y="-102.5909090909091" type="curve"/>
      <point x="272.72727272727275" y="-86.75" type="line"/>
      <point x="217.3409090909091" y="26.704545454545453"/>
      <point x="189.95454545454547" y="145.27272727272728"/>
      <point x="189.95454545454547" y="262.47727272727275" type="curve" smooth="yes"/>
      <point x="189.95454545454547" y="450.70454545454544"/>
      <point x="264.1136363636364" y="638.4545454545455"/>
      <point x="382.3181818181818" y="798.3409090909091" type="curve"/>
      <point x="357.8636363636364" y="821.0" type="line"/>
      <point x="197.95454545454547" y="676.4318181818181"/>
      <point x="98.5909090909091" y="494.6363636363636"/>
      <point x="98.5909090909091" y="282.77272727272725" type="curve" smooth="yes"/>
      <point x="98.5909090909091" y="136.38636363636363"/>
      <point x="150.5681818181818" y="8.204545454545455"/>
    </contour>
  </outline>
</glyph>
<glyph name="parenright" format="2">
  <advance width="389.4204545454545"/>
  <unicode hex="0029"/>
  <outline>
    <contour>
      <point x="168.4318181818182" y="817.5909090909091" type="curve"/>
      <point x="142.97727272727272" y="801.75" type="line"/>
      <point x="198.36363636363637" y="688.2954545454545"/>
      <point x="225.75" y="569.7272727272727"/>
      <point x="225.75" y="452.52272727272725" type="curve" smooth="yes"/>
      <point x="225.75" y="264.29545454545456"/>
      <point x="151.5909090909091" y="76.54545454545455"/>
      <point x="33.38636363636363" y="-83.3409090909091" type="curve"/>
      <point x="57.84090909090909" y="-106.0" type="line"/>
      <point x="217.75" y="38.56818181818182"/>
      <point x="317.1136363636364" y="220.36363636363637"/>
      <point x="317.1136363636364" y="432.22727272727275" type="curve" smooth="yes"/>
      <point x="317.1136363636364" y="578.6136363636364"/>
      <point x="265.1363636363636" y="706.7954545454545"/>
    </contour>
  </outline>
</glyph>
<glyph name="asterisk" format="2">
  <advance width="463.625"/>
  <unicode hex="002A"/>
  <outline>
    <contour>
      <point x="173.25" y="428.3863636363636" type="line"/>
      <point x="291.8636363636364" y="573.4090909090909" type="line"/>
      <point x="255.20454545454547" y="604.6590909090909" type="line"/>
      <point x="120.79545454545455" y="472.6363636363636" type="line"/>
    </contour>
    <contour>
      <point x="271.02272727272725" y="557.9545454545455" type="line"/>
      <point x="292.25" y="606.4318181818181" type="line"/>
      <point x="139.8181818181818" y="676.0227272727273" type="line"/>
      <point x="109.5909090909091" y="604.5454545454545" type="line"/>
    </contour>
    <contour>
      <point x="331.95454545454544" y="425.3863636363636" type="line"/>
      <point x="392.8181818181818" y="472.84090909090907" type="line"/>
      <point x="297.0" y="603.6590909090909" type="line"/>
      <point x="252.13636363636363" y="569.4090909090909" type="line"/>
    </contour>
    <contour>
      <point x="243.95454545454547" y="579.9545454545455" type="line"/>
      <point x="295.84090909090907" y="582.1590909090909" type="line"/>
      <point x="326.84090909090907" y="758.5909090909091" type="line"/>
      <point x="254.75" y="754.3863636363636" type="line"/>
    </contour>
    <contour>
      <point x="269.15909090909093" y="558.9545454545455" type="line"/>
      <point x="443.3863636363636" y="606.5454545454545" type="line"/>
      <point x="429.15909090909093" y="676.0227272727273" type="line"/>
      <point x="259.34090909090907" y="607.4318181818181" type="line"/>
    </contour>
  </outline>
</glyph>
<glyph name="plus" format="2">
  <advance width="691.875"/>
  <unicode hex="002B"/>
  <outline>
    <contour>
      <point x="275.9318181818182" y="0.0" type="line"/>
      <point x="354.6818181818182" y="0.0" type="line"/>
      <point x="413.65909090909093" y="511.0" type="line"/>
      <point x="339.90909090909093" y="511.0" type="line"/>
    </contour>
    <contour>
      <point x="89.5909090909091" y="216.52272727272728" type="line"/>
      <point x="595.3863636363636" y="221.52272727272728" type="line"/>
      <point x="604.2045454545455" y="295.27272727272725" type="line"/>
      <point x="99.4090909090909" y="295.27272727272725" type="line"/>
    </contour>
  </outline>
</glyph>
<glyph name="comma" format="2">
  <advance width="301.8863636363636"/>
  <unicode hex="002C"/>
  <outline>
    <contour>
      <point x="30.613636363636363" y="-150.0" type="line"/>
      <point x="118.0909090909091" y="-131.20454545454547"/>
      <point x="196.11363636363637" y="-29.795454545454547"/>
      <point x="196.11363636363637" y="70.06818181818181" type="curve" smooth="yes"/>
      <point x="196.11363636363637" y="103.9090909090909"/>
      <point x="184.29545454545453" y="132.52272727272728"/>
      <point x="149.63636363636363" y="132.52272727272728" type="curve" smooth="yes"/>
      <point x="108.5909090909091" y="132.52272727272728"/>
      <point x="76.77272727272727" y="94.9090909090909"/>
      <point x="76.77272727272727" y="47.25" type="curve" smooth="yes"/>
      <point x="76.77272727272727" y="13.431818181818182"/>
      <point x="95.18181818181819" y="-10.795454545454545"/>
      <point x="131.4318181818182" y="-10.795454545454545" type="curve" smooth="yes"/>
      <point x="139.47727272727272" y="-10.795454545454545"/>
      <point x="148.72727272727272" y="-9.386363636363637"/>
      <point x="159.5909090909091" y="-6.159090909090909" type="curve"/>
      <point x="121.6590909090909" y="17.704545454545453" type="line"/>
      <point x="122.86363636363636" y="-43.38636363636363"/>
      <point x="80.88636363636364" y="-96.5909090909091"/>
      <point x="26.795454545454547" y="-118.0" type="curve"/>
    </contour>
  </outline>
</glyph>
<glyph name="hyphen" format="2">
  <advance width="355.875"/>
  <unicode hex="002D"/>
  <outline>
    <contour>
      <point x="66.5909090909091" y="221.11363636363637" type="line"/>
      <point x="279.54545454545456" y="221.11363636363637" type="line"/>
      <point x="294.15909090909093" y="289.0681818181818" type="line"/>
      <point x="74.20454545454545" y="289.0681818181818" type="line"/>
    </contour>
  </outline>
</glyph>
<glyph name="period" format="2">
  <advance width="309.375"/>
  <unicode hex="002E"/>
  <outline>
    <contour>
      <point x="118.6590909090909" y="-11.022727272727273" type="curve" smooth="yes"/>
      <point x="163.5" y="-11.022727272727273"/>
      <point x="194.9318181818182" y="26.204545454545453"/>
      <point x="194.9318181818182" y="76.6590909090909" type="curve" smooth="yes"/>
      <point x="194.9318181818182" y="111.5"/>
      <point x="176.5" y="132.52272727272728"/>
      <point x="145.04545454545453" y="132.52272727272728" type="curve" smooth="yes"/>
      <point x="101.20454545454545" y="132.52272727272728"/>
      <point x="68.77272727272727" y="95.0909090909091"/>
      <point x="68.77272727272727" y="44.84090909090909" type="curve" smooth="yes"/>
      <point x="68.77272727272727" y="11.204545454545455"/>
      <point x="86.20454545454545" y="-11.022727272727273"/>
    </contour>
  </outline>
</glyph>
<glyph name="slash" format="2">
  <advance width="399.75"/>
  <unicode hex="002F"/>
  <outline>
    <contour>
      <point x="40.54545454545455" y="-66.5909090909091" type="line"/>
      <point x="451.0681818181818" y="751.75" type="line"/>
      <point x="386.52272727272725" y="773.0" type="line"/>
      <point x="-25.0" y="-45.34090909090909" type="line"/>
    </contour>
  </outline>
</glyph>
<glyph name="one" format="2">
  <advance width="420.5"/>
  <unicode hex="0031"/>
  <outline>
    <contour>
      <point x="14.204545454545455" y="-5.0" type="line"/>
      <point x="57.59090909090909" y="-3.0"/>
      <point x="170.8181818181818" y="0.0"/>
      <point x="186.6590909090909" y="0.0" type="curve" smooth="yes"/>
      <point x="356.54545454545456" y="0.0" type="line"/>
      <point x="370.75" y="55.88636363636364" type="line"/>
      <point x="224.04545454545456" y="66.0909090909091" type="line"/>
      <point x="263.1818181818182" y="23.545454545454547" type="line"/>
      <point x="263.1818181818182" y="80.63636363636364"/>
      <point x="265.77272727272725" y="124.77272727272728"/>
      <point x="271.5681818181818" y="169.9318181818182" type="curve" smooth="yes"/>
      <point x="305.75" y="426.0" type="line" smooth="yes"/>
      <point x="312.75" y="476.0"/>
      <point x="344.54545454545456" y="660.0"/>
      <point x="344.54545454545456" y="660.0" type="curve"/>
      <point x="288.65909090909093" y="672.0" type="line"/>
      <point x="66.0" y="507.0" type="line"/>
      <point x="87.8409090909091" y="462.5" type="line"/>
      <point x="263.54545454545456" y="537.0227272727273" type="line"/>
      <point x="230.8181818181818" y="558.1363636363636" type="line"/>
      <point x="174.45454545454547" y="139.9318181818182" type="line" smooth="yes"/>
      <point x="171.25" y="119.6590909090909"/>
      <point x="152.4318181818182" y="58.20454545454545"/>
      <point x="143.20454545454547" y="23.545454545454547" type="curve"/>
      <point x="195.38636363636363" y="69.0909090909091" type="line"/>
      <point x="16.613636363636363" y="47.5" type="line"/>
    </contour>
  </outline>
</glyph>
<glyph name="two" format="2">
  <advance width="521.75"/>
  <unicode hex="0032"/>
  <outline>
    <contour>
      <point x="411.8181818181818" y="-3.0" type="line"/>
      <point x="435.27272727272725" y="17.0" type="line"/>
      <point x="464.09090909090907" y="165.45454545454547" type="line"/>
      <point x="406.1818181818182" y="169.86363636363637" type="line"/>
      <point x="395.77272727272725" y="124.11363636363636" type="line"/>
      <point x="384.02272727272725" y="98.02272727272728"/>
      <point x="371.54545454545456" y="77.18181818181819"/>
      <point x="356.3181818181818" y="49.70454545454545" type="curve"/>
      <point x="417.29545454545456" y="92.04545454545455" type="line"/>
      <point x="375.84090909090907" y="85.8409090909091"/>
      <point x="314.0" y="79.02272727272728"/>
      <point x="293.34090909090907" y="79.02272727272728" type="curve" smooth="yes"/>
      <point x="85.3409090909091" y="79.02272727272728" type="line"/>
      <point x="83.31818181818181" y="45.31818181818182" type="line"/>
      <point x="381.29545454545456" y="292.3863636363636"/>
      <point x="479.6363636363636" y="390.40909090909093"/>
      <point x="479.6363636363636" y="524.75" type="curve" smooth="yes"/>
      <point x="479.6363636363636" y="611.3863636363636"/>
      <point x="414.79545454545456" y="662.0"/>
      <point x="300.8863636363636" y="662.0" type="curve" smooth="yes"/>
      <point x="232.6818181818182" y="662.0"/>
      <point x="182.79545454545453" y="652.5909090909091"/>
      <point x="113.20454545454545" y="626.2045454545455" type="curve"/>
      <point x="104.36363636363636" y="476.27272727272725" type="line"/>
      <point x="162.0909090909091" y="478.8863636363636" type="line"/>
      <point x="167.0909090909091" y="524.2727272727273" type="line" smooth="yes"/>
      <point x="168.29545454545453" y="534.8863636363636"/>
      <point x="185.5" y="582.5"/>
      <point x="197.11363636363637" y="612.3409090909091" type="curve"/>
      <point x="152.79545454545453" y="555.9545454545455" type="line"/>
      <point x="201.5681818181818" y="588.3636363636364"/>
      <point x="238.02272727272728" y="600.5909090909091"/>
      <point x="280.40909090909093" y="600.5909090909091" type="curve" smooth="yes"/>
      <point x="336.54545454545456" y="600.5909090909091"/>
      <point x="371.90909090909093" y="562.8636363636364"/>
      <point x="371.90909090909093" y="504.1363636363636" type="curve" smooth="yes"/>
      <point x="371.90909090909093" y="407.34090909090907"/>
      <point x="312.95454545454544" y="347.1818181818182"/>
      <point x="17.636363636363637" y="75.93181818181819" type="curve"/>
      <point x="21.022727272727273" y="0.0" type="line"/>
      <point x="298.27272727272725" y="0.0" type="line"/>
    </contour>
  </outline>
</glyph>
<glyph name="five" format="2">
  <advance width="464.25"/>
  <unicode hex="0035"/>
  <outline>
    <contour>
      <point x="10.09090909090909" y="-105.0" type="line"/>
      <point x="259.8181818181818" y="-77.31818181818181"/>
      <point x="408.1818181818182" y="41.63636363636363"/>
      <point x="408.1818181818182" y="209.6590909090909" type="curve" smooth="yes"/>
      <point x="408.1818181818182" y="312.45454545454544"/>
      <point x="336.40909090909093" y="366.29545454545456"/>
      <point x="216.95454545454547" y="366.29545454545456" type="curve" smooth="yes"/>
      <point x="182.4090909090909" y="366.29545454545456"/>
      <point x="145.1818181818182" y="359.5"/>
      <point x="115.29545454545455" y="351.8863636363636" type="curve"/>
      <point x="135.8181818181818" y="324.75" type="line"/>
      <point x="180.1818181818182" y="565.5454545454545" type="line"/>
      <point x="248.13636363636363" y="565.5454545454545" type="line"/>
      <point x="440.6818181818182" y="587.5" type="line"/>
      <point x="445.90909090909093" y="662.0" type="line"/>
      <point x="210.9090909090909" y="652.0" type="line"/>
      <point x="140.4090909090909" y="652.0" type="line"/>
      <point x="120.4090909090909" y="634.0" type="line"/>
      <point x="56.79545454545455" y="307.27272727272725" type="line"/>
      <point x="90.43181818181819" y="281.90909090909093" type="line"/>
      <point x="132.4090909090909" y="292.1136363636364"/>
      <point x="161.20454545454547" y="295.1136363636364"/>
      <point x="183.79545454545453" y="295.1136363636364" type="curve" smooth="yes"/>
      <point x="260.34090909090907" y="295.1136363636364"/>
      <point x="301.8636363636364" y="258.1363636363636"/>
      <point x="301.8636363636364" y="190.79545454545453" type="curve" smooth="yes"/>
      <point x="301.8636363636364" y="65.0"/>
      <point x="192.75" y="-20.045454545454547"/>
      <point x="-0.3181818181818179" y="-49.29545454545455" type="curve"/>
    </contour>
  </outline>
</glyph>
<glyph name="seven" format="2">
  <advance width="496.75"/>
  <unicode hex="0037"/>
  <outline>
    <contour>
      <point x="130.95454545454547" y="-105.0" type="line"/>
      <point x="510.45454545454544" y="609.25" type="line"/>
      <point x="501.8636363636364" y="652.0" type="line"/>
      <point x="233.20454545454547" y="652.0" type="line" smooth="yes"/>
      <point x="211.4090909090909" y="652.0"/>
      <point x="117.61363636363636" y="661.0"/>
      <point x="117.61363636363636" y="661.0" type="curve"/>
      <point x="96.81818181818181" y="641.0" type="line"/>
      <point x="65.18181818181819" y="485.09090909090907" type="line"/>
      <point x="123.5" y="481.29545454545456" type="line"/>
      <point x="135.9090909090909" y="531.0681818181819" type="line" smooth="yes"/>
      <point x="138.3181818181818" y="539.8863636363636"/>
      <point x="159.95454545454547" y="575.1818181818181"/>
      <point x="176.1818181818182" y="602.8409090909091" type="curve"/>
      <point x="112.38636363636364" y="562.5" type="line"/>
      <point x="151.1818181818182" y="566.5"/>
      <point x="210.5681818181818" y="571.7045454545455"/>
      <point x="230.77272727272728" y="571.7045454545455" type="curve" smooth="yes"/>
      <point x="429.04545454545456" y="571.7045454545455" type="line"/>
      <point x="405.3636363636364" y="609.4318181818181" type="line"/>
      <point x="379.75" y="545.4090909090909"/>
      <point x="340.52272727272725" y="444.3636363636364"/>
      <point x="325.52272727272725" y="416.3863636363636" type="curve" smooth="yes"/>
      <point x="48.93181818181818" y="-77.9090909090909" type="line"/>
    </contour>
  </outline>
</glyph>
<glyph name="colon" format="2">
  <advance width="272.0"/>
  <unicode hex="003A"/>
  <outline>
    <contour>
      <point x="152.4318181818182" y="341.52272727272725" type="curve" smooth="yes"/>
      <point x="195.0681818181818" y="341.52272727272725"/>
      <point x="224.29545454545453" y="375.15909090909093"/>
      <point x="224.29545454545453" y="423.20454545454544" type="curve" smooth="yes"/>
      <point x="224.29545454545453" y="455.04545454545456"/>
      <point x="207.86363636363637" y="474.27272727272725"/>
      <point x="178.4090909090909" y="474.27272727272725" type="curve" smooth="yes"/>
      <point x="136.5681818181818" y="474.27272727272725"/>
      <point x="106.3409090909091" y="439.04545454545456"/>
      <point x="106.3409090909091" y="391.59090909090907" type="curve" smooth="yes"/>
      <point x="106.3409090909091" y="361.75"/>
      <point x="122.56818181818181" y="341.52272727272725"/>
    </contour>
    <contour>
      <point x="89.9090909090909" y="-11.022727272727273" type="curve" smooth="yes"/>
      <point x="131.95454545454547" y="-11.022727272727273"/>
      <point x="161.1818181818182" y="23.40909090909091"/>
      <point x="161.1818181818182" y="71.45454545454545" type="curve" smooth="yes"/>
      <point x="161.1818181818182" y="103.5"/>
      <point x="143.75" y="122.52272727272728"/>
      <point x="115.29545454545455" y="122.52272727272728" type="curve" smooth="yes"/>
      <point x="73.45454545454545" y="122.52272727272728"/>
      <point x="44.02272727272727" y="87.29545454545455"/>
      <point x="44.02272727272727" y="39.84090909090909" type="curve" smooth="yes"/>
      <point x="44.02272727272727" y="10.0"/>
      <point x="59.45454545454545" y="-11.022727272727273"/>
    </contour>
  </outline>
</glyph>
<glyph name="less" format="2">
  <advance width="524.5"/>
  <unicode hex="003C"/>
  <outline>
    <contour>
      <point x="343.75" y="-15.0" type="line"/>
      <point x="404.8181818181818" y="40.90909090909091" type="line"/>
      <point x="164.9090909090909" y="273.5" type="line"/>
      <point x="158.29545454545453" y="222.9090909090909" type="line"/>
      <point x="455.95454545454544" y="457.09090909090907" type="line"/>
      <point x="409.5" y="513.0" type="line"/>
      <point x="84.18181818181819" y="247.4090909090909" type="line"/>
    </contour>
  </outline>
</glyph>
<glyph name="equal" format="2">
  <advance width="707.125"/>
  <unicode hex="003D"/>
  <outline>
    <contour>
      <point x="138.45454545454547" y="304.70454545454544" type="line"/>
      <point x="582.8409090909091" y="309.70454545454544" type="line"/>
      <point x="592.4545454545455" y="379.6818181818182" type="line"/>
      <point x="148.27272727272728" y="379.6818181818182" type="line"/>
    </contour>
    <contour>
      <point x="115.06818181818181" y="116.29545454545455" type="line"/>
      <point x="559.4545454545455" y="117.31818181818181" type="line"/>
      <point x="569.0681818181819" y="192.0681818181818" type="line"/>
      <point x="123.29545454545455" y="187.29545454545453" type="line"/>
    </contour>
  </outline>
</glyph>
<glyph name="greater" format="2">
  <advance width="526.375"/>
  <unicode hex="003E"/>
  <outline>
    <contour>
      <point x="117.06818181818181" y="-15.204545454545455" type="line"/>
      <point x="441.79545454545456" y="247.20454545454547" type="line"/>
      <point x="183.02272727272728" y="512.7954545454545" type="line"/>
      <point x="121.95454545454545" y="456.8863636363636" type="line"/>
      <point x="361.65909090909093" y="222.70454545454547" type="line"/>
      <point x="367.6818181818182" y="273.29545454545456" type="line"/>
      <point x="70.02272727272727" y="40.70454545454545" type="line"/>
    </contour>
  </outline>
</glyph>
<glyph name="question" format="2">
  <advance width="463.375"/>
  <unicode hex="003F"/>
  <outline>
    <contour>
      <point x="179.11363636363637" y="217.8409090909091" type="line"/>
      <point x="187.5681818181818" y="225.0909090909091" type="line"/>
      <point x="200.38636363636363" y="391.3863636363636" type="line"/>
      <point x="170.27272727272728" y="353.45454545454544" type="line"/>
      <point x="181.0909090909091" y="352.25"/>
      <point x="190.9090909090909" y="352.25"/>
      <point x="201.72727272727272" y="352.25" type="curve" smooth="yes"/>
      <point x="348.3181818181818" y="352.25"/>
      <point x="444.90909090909093" y="450.79545454545456"/>
      <point x="444.90909090909093" y="594.0" type="curve" smooth="yes"/>
      <point x="444.90909090909093" y="702.6363636363636"/>
      <point x="374.8863636363636" y="767.0"/>
      <point x="266.0681818181818" y="767.0" type="curve" smooth="yes"/>
      <point x="228.6590909090909" y="767.0"/>
      <point x="184.04545454545453" y="760.0"/>
      <point x="135.4318181818182" y="744.7954545454545" type="curve"/>
      <point x="128.02272727272728" y="595.75" type="line"/>
      <point x="183.6818181818182" y="596.7727272727273" type="line"/>
      <point x="187.27272727272728" y="630.5681818181819" type="line" smooth="yes"/>
      <point x="189.0681818181818" y="649.1590909090909"/>
      <point x="202.29545454545453" y="694.6136363636364"/>
      <point x="210.70454545454547" y="726.6590909090909" type="curve"/>
      <point x="146.1818181818182" y="686.1136363636364" type="line"/>
      <point x="184.5681818181818" y="701.3181818181819"/>
      <point x="218.77272727272728" y="710.3181818181819"/>
      <point x="249.77272727272728" y="710.3181818181819" type="curve" smooth="yes"/>
      <point x="318.5" y="710.3181818181819"/>
      <point x="352.3181818181818" y="665.7954545454545"/>
      <point x="352.3181818181818" y="596.8181818181819" type="curve" smooth="yes"/>
      <point x="352.3181818181818" y="497.45454545454544"/>
      <point x="300.90909090909093" y="414.70454545454544"/>
      <point x="201.4318181818182" y="414.70454545454544" type="curve" smooth="yes"/>
      <point x="191.4318181818182" y="414.70454545454544"/>
      <point x="168.4090909090909" y="416.5"/>
      <point x="154.0" y="418.5" type="curve"/>
      <point x="126.77272727272727" y="393.25" type="line"/>
      <point x="107.36363636363636" y="221.04545454545453" type="line"/>
    </contour>
    <contour>
      <point x="114.86363636363636" y="-11.022727272727273" type="curve" smooth="yes"/>
      <point x="154.11363636363637" y="-11.022727272727273"/>
      <point x="177.3409090909091" y="21.0"/>
      <point x="177.3409090909091" y="64.8409090909091" type="curve" smooth="yes"/>
      <point x="177.3409090909091" y="99.5"/>
      <point x="158.70454545454547" y="122.52272727272728"/>
      <point x="124.86363636363636" y="122.52272727272728" type="curve" smooth="yes"/>
      <point x="84.81818181818181" y="122.52272727272728"/>
      <point x="61.0" y="91.0909090909091"/>
      <point x="61.0" y="47.04545454545455" type="curve" smooth="yes"/>
      <point x="61.0" y="11.409090909090908"/>
      <point x="80.61363636363636" y="-11.022727272727273"/>
    </contour>
  </outline>
</glyph>
<glyph name="at" format="2">
  <advance width="996.0"/>
  <unicode hex="0040"/>
  <outline>
    <contour>
      <point x="435.6818181818182" y="-212.77272727272728" type="curve" smooth="yes"/>
      <point x="498.79545454545456" y="-212.77272727272728"/>
      <point x="654.6363636363636" y="-153.8181818181818"/>
      <point x="667.5227272727273" y="-149.6818181818182" type="curve"/>
      <point x="662.1136363636364" y="-115.77272727272727" type="line"/>
      <point x="662.1136363636364" y="-115.77272727272727"/>
      <point x="498.8863636363636" y="-148.27272727272728"/>
      <point x="448.8863636363636" y="-148.27272727272728" type="curve" smooth="yes"/>
      <point x="257.40909090909093" y="-148.27272727272728"/>
      <point x="172.54545454545453" y="-33.79545454545455"/>
      <point x="172.54545454545453" y="144.0" type="curve" smooth="yes"/>
      <point x="172.54545454545453" y="392.75"/>
      <point x="304.1136363636364" y="616.5227272727273"/>
      <point x="552.8636363636364" y="616.5227272727273" type="curve" smooth="yes"/>
      <point x="727.6363636363636" y="616.5227272727273"/>
      <point x="843.8409090909091" y="516.9545454545455"/>
      <point x="843.8409090909091" y="342.0" type="curve" smooth="yes"/>
      <point x="843.8409090909091" y="180.0"/>
      <point x="769.8181818181819" y="66.38636363636364"/>
      <point x="649.0227272727273" y="47.88636363636364" type="curve"/>
      <point x="660.6363636363636" y="21.681818181818183" type="line"/>
      <point x="658.2727272727273" y="195.11363636363637"/>
      <point x="688.0227272727273" y="337.04545454545456"/>
      <point x="725.4090909090909" y="488.5681818181818" type="curve"/>
      <point x="700.9318181818181" y="503.4318181818182" type="line"/>
      <point x="622.1363636363636" y="486.77272727272725" type="line"/>
      <point x="620.1363636363636" y="436.59090909090907" type="line" smooth="yes"/>
      <point x="613.9318181818181" y="280.54545454545456"/>
      <point x="493.8181818181818" y="54.68181818181819"/>
      <point x="431.6818181818182" y="54.68181818181819" type="curve" smooth="yes"/>
      <point x="405.5" y="54.68181818181819"/>
      <point x="388.3636363636364" y="93.61363636363636"/>
      <point x="388.3636363636364" y="149.9090909090909" type="curve" smooth="yes"/>
      <point x="388.3636363636364" y="270.8863636363636"/>
      <point x="454.4318181818182" y="445.59090909090907"/>
      <point x="504.15909090909093" y="445.59090909090907" type="curve" smooth="yes"/>
      <point x="556.5681818181819" y="445.59090909090907"/>
      <point x="633.3409090909091" y="404.02272727272725"/>
      <point x="646.5227272727273" y="398.04545454545456" type="curve"/>
      <point x="651.6136363636364" y="489.0" type="line"/>
      <point x="631.6136363636364" y="490.0"/>
      <point x="552.5909090909091" y="503.4318181818182"/>
      <point x="518.7727272727273" y="503.4318181818182" type="curve" smooth="yes"/>
      <point x="422.27272727272725" y="503.4318181818182"/>
      <point x="297.3181818181818" y="293.27272727272725"/>
      <point x="297.3181818181818" y="138.5909090909091" type="curve" smooth="yes"/>
      <point x="297.3181818181818" y="42.09090909090909"/>
      <point x="330.8636363636364" y="-10.636363636363637"/>
      <point x="396.02272727272725" y="-10.636363636363637" type="curve" smooth="yes"/>
      <point x="474.3863636363636" y="-10.636363636363637"/>
      <point x="551.8863636363636" y="80.77272727272728"/>
      <point x="608.0909090909091" y="206.6818181818182" type="curve"/>
      <point x="600.8636363636364" y="225.0681818181818" type="line"/>
      <point x="588.3181818181819" y="124.75"/>
      <point x="579.9545454545455" y="64.0909090909091"/>
      <point x="566.2727272727273" y="0.0" type="curve"/>
      <point x="592.3181818181819" y="-15.613636363636363" type="line"/>
      <point x="796.0" y="0.38636363636363635"/>
      <point x="928.5909090909091" y="165.1590909090909"/>
      <point x="928.5909090909091" y="349.0" type="curve" smooth="yes"/>
      <point x="928.5909090909091" y="565.0227272727273"/>
      <point x="777.7954545454545" y="667.0"/>
      <point x="562.5681818181819" y="667.0" type="curve" smooth="yes"/>
      <point x="258.47727272727275" y="667.0"/>
      <point x="75.38636363636364" y="446.1136363636364"/>
      <point x="75.38636363636364" y="142.02272727272728" type="curve" smooth="yes"/>
      <point x="75.38636363636364" y="-89.3409090909091"/>
      <point x="211.8409090909091" y="-212.77272727272728"/>
    </contour>
  </outline>
</glyph>
<glyph name="A" format="2">
  <advance width="691.25"/>
  <unicode hex="0041"/>
  <anchor x="315.02272727272725" y="0.0" name="bottom"/>
  <anchor x="576.25" y="10.0" name="ogonek"/>
  <anchor x="407.27272727272725" y="705.0" name="top"/>
  <outline>
    <contour>
      <point x="1.0" y="-5.0" type="line"/>
      <point x="44.59090909090909" y="-3.0"/>
      <point x="107.38636363636364" y="0.0"/>
      <point x="131.77272727272728" y="0.0" type="curve" smooth="yes"/>
      <point x="219.0909090909091" y="0.0" type="line"/>
      <point x="231.5" y="55.86363636363637" type="line"/>
      <point x="127.8409090909091" y="70.45454545454545" type="line"/>
      <point x="162.54545454545453" y="41.36363636363637" type="line"/>
      <point x="165.3409090909091" y="66.77272727272727"/>
      <point x="178.88636363636363" y="114.5"/>
      <point x="188.0909090909091" y="135.11363636363637" type="curve" smooth="yes"/>
      <point x="391.75" y="581.1136363636364" type="line"/>
      <point x="373.77272727272725" y="578.25" type="line"/>
      <point x="449.29545454545456" y="163.6590909090909" type="line" smooth="yes"/>
      <point x="455.6818181818182" y="128.11363636363637"/>
      <point x="456.84090909090907" y="61.79545454545455"/>
      <point x="458.02272727272725" y="35.25" type="curve"/>
      <point x="494.75" y="75.45454545454545" type="line"/>
      <point x="385.70454545454544" y="45.88636363636364" type="line"/>
      <point x="381.29545454545456" y="-5.0" type="line"/>
      <point x="428.70454545454544" y="-3.0"/>
      <point x="496.70454545454544" y="0.0"/>
      <point x="524.3181818181819" y="0.0" type="curve" smooth="yes"/>
      <point x="625.6590909090909" y="0.0" type="line"/>
      <point x="638.0681818181819" y="55.86363636363637" type="line"/>
      <point x="541.3863636363636" y="71.04545454545455" type="line"/>
      <point x="588.5" y="41.81818181818182" type="line"/>
      <point x="583.0909090909091" y="55.02272727272727"/>
      <point x="563.5227272727273" y="114.93181818181819"/>
      <point x="559.3181818181819" y="136.36363636363637" type="curve" smooth="yes"/>
      <point x="437.5681818181818" y="715.2045454545455" type="line"/>
      <point x="372.3636363636364" y="705.0" type="line"/>
      <point x="124.11363636363636" y="166.77272727272728" type="line" smooth="yes"/>
      <point x="106.5" y="127.95454545454545"/>
      <point x="64.31818181818181" y="58.84090909090909"/>
      <point x="55.11363636363636" y="46.02272727272727" type="curve"/>
      <point x="102.63636363636364" y="71.45454545454545" type="line"/>
      <point x="4.204545454545454" y="45.68181818181818" type="line"/>
    </contour>
    <contour>
      <point x="214.20454545454547" y="227.0" type="line"/>
      <point x="450.1818181818182" y="227.0" type="line"/>
      <point x="445.75" y="284.1136363636364" type="line"/>
      <point x="237.45454545454547" y="280.3181818181818" type="line"/>
    </contour>
  </outline>
</glyph>
<glyph name="B" format="2">
  <advance width="604.75"/>
  <unicode hex="0042"/>
  <anchor x="271.6818181818182" y="0.0" name="bottom"/>
  <anchor x="369.09090909090907" y="705.0" name="top"/>
  <outline>
    <contour>
      <point x="9.204545454545455" y="-5.0" type="line"/>
      <point x="55.02272727272727" y="-3.0"/>
      <point x="119.8409090909091" y="0.0"/>
      <point x="145.6590909090909" y="0.0" type="curve" smooth="yes"/>
      <point x="195.02272727272728" y="0.0"/>
      <point x="265.8863636363636" y="-5.0"/>
      <point x="315.04545454545456" y="-5.0" type="curve" smooth="yes"/>
      <point x="441.70454545454544" y="-5.0"/>
      <point x="546.4090909090909" y="77.75"/>
      <point x="546.4090909090909" y="209.02272727272728" type="curve" smooth="yes"/>
      <point x="546.4090909090909" y="305.84090909090907"/>
      <point x="473.5681818181818" y="362.02272727272725"/>
      <point x="371.52272727272725" y="366.20454545454544" type="curve"/>
      <point x="395.59090909090907" y="324.70454545454544" type="line"/>
      <point x="407.8181818181818" y="408.5" type="line"/>
      <point x="374.9318181818182" y="365.0" type="line"/>
      <point x="481.3636363636364" y="378.5681818181818"/>
      <point x="568.4090909090909" y="457.3863636363636"/>
      <point x="568.4090909090909" y="565.1818181818181" type="curve" smooth="yes"/>
      <point x="568.4090909090909" y="656.2045454545455"/>
      <point x="484.77272727272725" y="710.0"/>
      <point x="389.1136363636364" y="710.0" type="curve" smooth="yes"/>
      <point x="348.5" y="710.0"/>
      <point x="270.4318181818182" y="705.0"/>
      <point x="230.8181818181818" y="705.0" type="curve" smooth="yes"/>
      <point x="212.61363636363637" y="705.0"/>
      <point x="153.4090909090909" y="708.0"/>
      <point x="115.0" y="710.0" type="curve"/>
      <point x="101.5909090909091" y="654.3181818181819" type="line"/>
      <point x="212.04545454545453" y="635.5" type="line"/>
      <point x="174.3409090909091" y="674.3181818181819" type="line"/>
      <point x="173.54545454545453" y="649.5681818181819"/>
      <point x="173.75" y="587.7727272727273"/>
      <point x="170.52272727272728" y="562.5909090909091" type="curve" smooth="yes"/>
      <point x="108.56818181818181" y="139.29545454545453" type="line" smooth="yes"/>
      <point x="105.1590909090909" y="117.63636363636364"/>
      <point x="87.36363636363636" y="57.25"/>
      <point x="80.1590909090909" y="33.04545454545455" type="curve"/>
      <point x="127.6590909090909" y="70.27272727272727" type="line"/>
      <point x="11.613636363636363" y="47.27272727272727" type="line"/>
    </contour>
    <contour>
      <point x="199.79545454545456" y="38.5" type="line"/>
      <point x="198.20454545454547" y="55.45454545454545"/>
      <point x="205.0" y="132.63636363636363"/>
      <point x="210.4090909090909" y="169.5" type="curve" smooth="yes"/>
      <point x="263.79545454545456" y="538.6136363636364" type="line" smooth="yes"/>
      <point x="269.59090909090907" y="576.3863636363636"/>
      <point x="286.59090909090907" y="644.75"/>
      <point x="291.0" y="665.3636363636364" type="curve"/>
      <point x="261.1818181818182" y="647.7045454545455" type="line"/>
      <point x="298.04545454545456" y="650.2954545454545"/>
      <point x="338.8636363636364" y="653.2954545454545"/>
      <point x="370.04545454545456" y="653.2954545454545" type="curve" smooth="yes"/>
      <point x="430.8181818181818" y="653.2954545454545"/>
      <point x="469.20454545454544" y="611.9090909090909"/>
      <point x="469.20454545454544" y="552.3636363636364" type="curve" smooth="yes"/>
      <point x="469.20454545454544" y="452.02272727272725"/>
      <point x="395.09090909090907" y="395.25"/>
      <point x="308.3636363636364" y="395.25" type="curve" smooth="yes"/>
      <point x="301.5681818181818" y="395.25" type="line"/>
      <point x="285.95454545454544" y="335.1363636363636" type="line"/>
      <point x="296.75" y="335.1363636363636" type="line" smooth="yes"/>
      <point x="375.8636363636364" y="335.1363636363636"/>
      <point x="440.6136363636364" y="297.59090909090907"/>
      <point x="440.6136363636364" y="212.8409090909091" type="curve" smooth="yes"/>
      <point x="440.6136363636364" y="112.88636363636364"/>
      <point x="373.84090909090907" y="55.09090909090909"/>
      <point x="286.0681818181818" y="55.09090909090909" type="curve" smooth="yes"/>
      <point x="244.75" y="55.09090909090909"/>
      <point x="204.9090909090909" y="59.68181818181818"/>
      <point x="181.77272727272728" y="63.27272727272727" type="curve"/>
    </contour>
  </outline>
</glyph>
<glyph name="C" format="2">
  <advance width="635.5"/>
  <unicode hex="0043"/>
  <anchor x="310.0681818181818" y="0.0" name="bottom"/>
  <anchor x="449.6363636363636" y="720.0" name="top"/>
  <outline>
    <contour>
      <point x="337.6818181818182" y="-15.0" type="curve" smooth="yes"/>
      <point x="417.29545454545456" y="-15.0"/>
      <point x="479.9318181818182" y="3.0"/>
      <point x="544.3409090909091" y="19.0" type="curve"/>
      <point x="560.3409090909091" y="171.6818181818182" type="line"/>
      <point x="500.6818181818182" y="169.6818181818182" type="line"/>
      <point x="498.6818181818182" y="157.0909090909091"/>
      <point x="495.6818181818182" y="139.0909090909091"/>
      <point x="492.27272727272725" y="123.06818181818181" type="curve" smooth="yes"/>
      <point x="486.6818181818182" y="104.88636363636364"/>
      <point x="468.4318181818182" y="61.81818181818182"/>
      <point x="455.8181818181818" y="31.818181818181817" type="curve"/>
      <point x="508.77272727272725" y="74.11363636363636" type="line"/>
      <point x="453.54545454545456" y="60.31818181818182"/>
      <point x="399.6818181818182" y="45.93181818181818"/>
      <point x="344.8863636363636" y="45.93181818181818" type="curve" smooth="yes"/>
      <point x="233.5681818181818" y="45.93181818181818"/>
      <point x="173.86363636363637" y="148.86363636363637"/>
      <point x="173.86363636363637" y="282.1818181818182" type="curve" smooth="yes"/>
      <point x="173.86363636363637" y="476.45454545454544"/>
      <point x="261.1363636363636" y="659.0681818181819"/>
      <point x="426.6818181818182" y="659.0681818181819" type="curve" smooth="yes"/>
      <point x="478.8863636363636" y="659.0681818181819"/>
      <point x="531.1136363636364" y="642.8863636363636"/>
      <point x="582.1363636363636" y="629.5" type="curve"/>
      <point x="540.6136363636364" y="675.0" type="line"/>
      <point x="544.0227272727273" y="645.1818181818181"/>
      <point x="549.8409090909091" y="597.75"/>
      <point x="548.0454545454545" y="587.1363636363636" type="curve" smooth="yes"/>
      <point x="541.25" y="538.8863636363636" type="line"/>
      <point x="600.9090909090909" y="534.8863636363636" type="line"/>
      <point x="632.3409090909091" y="686.0" type="line"/>
      <point x="572.9318181818181" y="702.0"/>
      <point x="515.9090909090909" y="720.0"/>
      <point x="435.29545454545456" y="720.0" type="curve" smooth="yes"/>
      <point x="194.61363636363637" y="720.0"/>
      <point x="63.18181818181818" y="529.6136363636364"/>
      <point x="63.18181818181818" y="282.02272727272725" type="curve" smooth="yes"/>
      <point x="63.18181818181818" y="105.4090909090909"/>
      <point x="159.79545454545453" y="-15.0"/>
    </contour>
  </outline>
</glyph>
<glyph name="D" format="2">
  <advance width="719.625"/>
  <unicode hex="0044"/>
  <anchor x="295.6136363636364" y="0.0" name="bottom"/>
  <anchor x="198.52272727272728" y="353.0" name="center"/>
  <anchor x="388.5" y="720.0" name="top"/>
  <outline>
    <contour>
      <point x="9.204545454545455" y="-5.0" type="line"/>
      <point x="46.43181818181818" y="-3.0"/>
      <point x="120.04545454545455" y="0.0"/>
      <point x="145.6590909090909" y="0.0" type="curve" smooth="yes"/>
      <point x="195.9090909090909" y="0.0"/>
      <point x="247.4318181818182" y="-5.0"/>
      <point x="299.0681818181818" y="-5.0" type="curve" smooth="yes"/>
      <point x="538.5454545454545" y="-5.0"/>
      <point x="683.3181818181819" y="171.8181818181818"/>
      <point x="683.3181818181819" y="417.59090909090907" type="curve" smooth="yes"/>
      <point x="683.3181818181819" y="594.7727272727273"/>
      <point x="575.5454545454545" y="710.0"/>
      <point x="385.3181818181818" y="710.0" type="curve" smooth="yes"/>
      <point x="344.70454545454544" y="710.0"/>
      <point x="271.04545454545456" y="705.0"/>
      <point x="230.8181818181818" y="705.0" type="curve" smooth="yes"/>
      <point x="203.25" y="705.0"/>
      <point x="146.63636363636363" y="708.0"/>
      <point x="115.0" y="710.0" type="curve"/>
      <point x="101.5909090909091" y="654.3181818181819" type="line"/>
      <point x="212.04545454545453" y="635.5" type="line"/>
      <point x="174.36363636363637" y="676.8409090909091" type="line"/>
      <point x="173.75" y="658.0909090909091"/>
      <point x="173.13636363636363" y="584.4545454545455"/>
      <point x="170.52272727272728" y="562.5909090909091" type="curve" smooth="yes"/>
      <point x="108.56818181818181" y="139.29545454545453" type="line" smooth="yes"/>
      <point x="104.56818181818181" y="112.29545454545455"/>
      <point x="88.36363636363636" y="61.63636363636363"/>
      <point x="80.75" y="34.40909090909091" type="curve"/>
      <point x="127.6590909090909" y="70.27272727272727" type="line"/>
      <point x="11.613636363636363" y="47.27272727272727" type="line"/>
    </contour>
    <contour>
      <point x="199.0" y="34.31818181818182" type="line"/>
      <point x="198.20454545454547" y="50.18181818181818"/>
      <point x="205.0" y="130.4318181818182"/>
      <point x="210.4090909090909" y="169.29545454545453" type="curve" smooth="yes"/>
      <point x="263.79545454545456" y="538.6136363636364" type="line" smooth="yes"/>
      <point x="268.59090909090907" y="573.3636363636364"/>
      <point x="286.3863636363636" y="643.75"/>
      <point x="291.8181818181818" y="665.8863636363636" type="curve"/>
      <point x="255.25" y="644.1136363636364" type="line"/>
      <point x="301.0" y="647.7045454545455"/>
      <point x="356.95454545454544" y="648.1136363636364"/>
      <point x="384.4318181818182" y="648.1136363636364" type="curve" smooth="yes"/>
      <point x="519.3409090909091" y="648.1136363636364"/>
      <point x="578.0681818181819" y="542.3636363636364"/>
      <point x="578.0681818181819" y="412.84090909090907" type="curve" smooth="yes"/>
      <point x="578.0681818181819" y="229.54545454545453"/>
      <point x="495.40909090909093" y="56.09090909090909"/>
      <point x="306.40909090909093" y="56.09090909090909" type="curve" smooth="yes"/>
      <point x="270.45454545454544" y="56.09090909090909"/>
      <point x="186.13636363636363" y="59.29545454545455"/>
      <point x="167.9090909090909" y="60.5" type="curve"/>
    </contour>
  </outline>
</glyph>
<glyph name="E" format="2">
  <advance width="588.625"/>
  <unicode hex="0045"/>
  <anchor x="261.04545454545456" y="0.0" name="bottom"/>
  <anchor x="472.1136363636364" y="0.0" name="ogonek"/>
  <anchor x="362.04545454545456" y="720.0" name="top"/>
  <anchor x="94.61363636363636" y="705.0" name="topleft"/>
  <outline>
    <contour>
      <point x="9.204545454545455" y="-5.0" type="line"/>
      <point x="55.45454545454545" y="-2.7954545454545454"/>
      <point x="114.27272727272727" y="0.0"/>
      <point x="145.6590909090909" y="0.0" type="curve" smooth="yes"/>
      <point x="357.70454545454544" y="0.0" type="line" smooth="yes"/>
      <point x="384.70454545454544" y="0.0"/>
      <point x="434.29545454545456" y="0.0"/>
      <point x="472.1136363636364" y="0.0" type="curve"/>
      <point x="488.70454545454544" y="14.0" type="line"/>
      <point x="526.3181818181819" y="167.29545454545453" type="line"/>
      <point x="471.65909090909093" y="172.29545454545453" type="line"/>
      <point x="466.8636363636364" y="156.29545454545453"/>
      <point x="454.27272727272725" y="121.11363636363636"/>
      <point x="446.8863636363636" y="106.13636363636364" type="curve" smooth="yes"/>
      <point x="440.8863636363636" y="92.13636363636364"/>
      <point x="420.27272727272725" y="64.68181818181819"/>
      <point x="402.0" y="44.0" type="curve"/>
      <point x="438.52272727272725" y="72.31818181818181" type="line"/>
      <point x="419.9318181818182" y="68.31818181818181"/>
      <point x="375.75" y="60.11363636363637"/>
      <point x="337.52272727272725" y="60.11363636363637" type="curve" smooth="yes"/>
      <point x="162.5" y="60.11363636363637" type="line"/>
      <point x="199.0" y="25.931818181818183" type="line"/>
      <point x="199.0" y="52.86363636363637"/>
      <point x="205.0" y="134.02272727272728"/>
      <point x="210.4090909090909" y="169.29545454545453" type="curve" smooth="yes"/>
      <point x="240.0" y="374.6136363636364" type="line"/>
      <point x="195.88636363636363" y="336.3181818181818" type="line"/>
      <point x="322.65909090909093" y="336.3181818181818" type="line" smooth="yes"/>
      <point x="340.0681818181818" y="336.3181818181818"/>
      <point x="397.8863636363636" y="330.90909090909093"/>
      <point x="435.5" y="326.70454545454544" type="curve"/>
      <point x="398.59090909090907" y="368.8181818181818" type="line"/>
      <point x="394.40909090909093" y="263.54545454545456" type="line"/>
      <point x="444.0681818181818" y="269.54545454545456" type="line"/>
      <point x="450.27272727272725" y="327.6136363636364"/>
      <point x="460.8636363636364" y="390.1818181818182"/>
      <point x="473.8636363636364" y="464.40909090909093" type="curve"/>
      <point x="427.20454545454544" y="469.40909090909093" type="line"/>
      <point x="394.59090909090907" y="363.3181818181818" type="line"/>
      <point x="444.90909090909093" y="404.6363636363636" type="line"/>
      <point x="411.4318181818182" y="400.6136363636364"/>
      <point x="361.27272727272725" y="394.6136363636364"/>
      <point x="350.27272727272725" y="394.6136363636364" type="curve" smooth="yes"/>
      <point x="204.29545454545453" y="394.6136363636364" type="line"/>
      <point x="237.1818181818182" y="356.3181818181818" type="line"/>
      <point x="264.0" y="538.6136363636364" type="line" smooth="yes"/>
      <point x="268.79545454545456" y="572.1818181818181"/>
      <point x="288.3863636363636" y="653.9318181818181"/>
      <point x="292.59090909090907" y="672.75" type="curve"/>
      <point x="248.27272727272728" y="646.7045454545455" type="line"/>
      <point x="410.09090909090907" y="646.7045454545455" type="line" smooth="yes"/>
      <point x="427.5681818181818" y="646.7045454545455"/>
      <point x="496.9318181818182" y="641.7045454545455"/>
      <point x="518.6136363636364" y="639.7045454545455" type="curve"/>
      <point x="470.09090909090907" y="676.6136363636364" type="line"/>
      <point x="484.0681818181818" y="653.5909090909091"/>
      <point x="500.45454545454544" y="619.2954545454545"/>
      <point x="501.25" y="607.7045454545455" type="curve" smooth="yes"/>
      <point x="502.04545454545456" y="598.2727272727273"/>
      <point x="503.04545454545456" y="570.5227272727273"/>
      <point x="503.84090909090907" y="554.5227272727273" type="curve"/>
      <point x="562.0909090909091" y="559.5227272727273" type="line"/>
      <point x="575.7045454545455" y="692.0" type="line"/>
      <point x="559.7045454545455" y="710.0" type="line"/>
      <point x="522.5" y="708.0"/>
      <point x="465.95454545454544" y="705.0"/>
      <point x="447.70454545454544" y="705.0" type="curve" smooth="yes"/>
      <point x="230.8181818181818" y="705.0" type="line" smooth="yes"/>
      <point x="210.95454545454547" y="705.0"/>
      <point x="153.4090909090909" y="708.0"/>
      <point x="115.0" y="710.0" type="curve"/>
      <point x="101.5909090909091" y="654.3181818181819" type="line"/>
      <point x="212.04545454545453" y="635.5" type="line"/>
      <point x="173.95454545454547" y="664.1590909090909" type="line"/>
      <point x="173.95454545454547" y="651.3636363636364"/>
      <point x="173.13636363636363" y="584.6590909090909"/>
      <point x="170.52272727272728" y="562.5909090909091" type="curve" smooth="yes"/>
      <point x="108.56818181818181" y="139.29545454545453" type="line" smooth="yes"/>
      <point x="105.36363636363636" y="118.6590909090909"/>
      <point x="85.56818181818181" y="49.27272727272727"/>
      <point x="78.95454545454545" y="26.272727272727273" type="curve"/>
      <point x="127.6590909090909" y="70.27272727272727" type="line"/>
      <point x="11.613636363636363" y="47.27272727272727" type="line"/>
    </contour>
  </outline>
</glyph>
<glyph name="F" format="2">
  <advance width="562.375"/>
  <unicode hex="0046"/>
  <anchor x="243.04545454545453" y="0.0" name="bottom"/>
  <anchor x="344.04545454545456" y="720.0" name="top"/>
  <outline>
    <contour>
      <point x="9.204545454545455" y="-5.0" type="line"/>
      <point x="55.02272727272727" y="-3.0"/>
      <point x="119.8409090909091" y="0.0"/>
      <point x="145.6590909090909" y="0.0" type="curve" smooth="yes"/>
      <point x="278.6818181818182" y="0.0" type="line"/>
      <point x="292.8863636363636" y="55.65909090909091" type="line"/>
      <point x="162.9090909090909" y="66.27272727272727" type="line"/>
      <point x="200.61363636363637" y="31.0" type="line"/>
      <point x="200.61363636363637" y="55.84090909090909"/>
      <point x="204.5909090909091" y="132.36363636363637"/>
      <point x="210.4090909090909" y="169.29545454545453" type="curve" smooth="yes"/>
      <point x="240.0" y="374.6136363636364" type="line"/>
      <point x="193.0909090909091" y="326.3181818181818" type="line"/>
      <point x="319.8636363636364" y="326.3181818181818" type="line" smooth="yes"/>
      <point x="336.6818181818182" y="326.3181818181818"/>
      <point x="395.09090909090907" y="320.90909090909093"/>
      <point x="432.70454545454544" y="316.70454545454544" type="curve"/>
      <point x="396.0" y="358.8181818181818" type="line"/>
      <point x="391.6136363636364" y="253.54545454545453" type="line"/>
      <point x="441.27272727272725" y="259.54545454545456" type="line"/>
      <point x="446.6818181818182" y="317.0"/>
      <point x="458.27272727272725" y="381.40909090909093"/>
      <point x="471.27272727272725" y="454.40909090909093" type="curve"/>
      <point x="424.6136363636364" y="459.40909090909093" type="line"/>
      <point x="392.0" y="353.3181818181818" type="line"/>
      <point x="442.3181818181818" y="394.6363636363636" type="line"/>
      <point x="410.29545454545456" y="391.02272727272725"/>
      <point x="358.09090909090907" y="384.6136363636364"/>
      <point x="346.6818181818182" y="384.6136363636364" type="curve" smooth="yes"/>
      <point x="201.70454545454547" y="384.6136363636364" type="line"/>
      <point x="237.1818181818182" y="356.3181818181818" type="line"/>
      <point x="263.79545454545456" y="538.6136363636364" type="line" smooth="yes"/>
      <point x="268.59090909090907" y="572.3863636363636"/>
      <point x="288.3863636363636" y="653.9318181818181"/>
      <point x="292.59090909090907" y="672.75" type="curve"/>
      <point x="248.27272727272728" y="646.7045454545455" type="line"/>
      <point x="410.09090909090907" y="646.7045454545455" type="line" smooth="yes"/>
      <point x="427.5681818181818" y="646.7045454545455"/>
      <point x="496.9318181818182" y="641.7045454545455"/>
      <point x="518.6136363636364" y="639.7045454545455" type="curve"/>
      <point x="470.09090909090907" y="676.6136363636364" type="line"/>
      <point x="484.0681818181818" y="653.5909090909091"/>
      <point x="500.45454545454544" y="619.2954545454545"/>
      <point x="501.25" y="607.7045454545455" type="curve" smooth="yes"/>
      <point x="502.04545454545456" y="598.2727272727273"/>
      <point x="503.04545454545456" y="570.5227272727273"/>
      <point x="503.84090909090907" y="554.5227272727273" type="curve"/>
      <point x="562.0909090909091" y="559.5227272727273" type="line"/>
      <point x="575.7045454545455" y="692.0" type="line"/>
      <point x="559.7045454545455" y="710.0" type="line"/>
      <point x="522.5" y="708.0"/>
      <point x="465.95454545454544" y="705.0"/>
      <point x="447.70454545454544" y="705.0" type="curve" smooth="yes"/>
      <point x="230.8181818181818" y="705.0" type="line" smooth="yes"/>
      <point x="210.95454545454547" y="705.0"/>
      <point x="153.4090909090909" y="708.0"/>
      <point x="115.0" y="710.0" type="curve"/>
      <point x="101.5909090909091" y="654.3181818181819" type="line"/>
      <point x="212.04545454545453" y="635.5" type="line"/>
      <point x="173.95454545454547" y="664.1590909090909" type="line"/>
      <point x="173.95454545454547" y="651.3636363636364"/>
      <point x="173.13636363636363" y="584.6590909090909"/>
      <point x="170.52272727272728" y="562.5909090909091" type="curve" smooth="yes"/>
      <point x="108.56818181818181" y="139.29545454545453" type="line" smooth="yes"/>
      <point x="105.36363636363636" y="118.86363636363636"/>
      <point x="87.18181818181819" y="57.5"/>
      <point x="79.95454545454545" y="34.04545454545455" type="curve"/>
      <point x="127.6590909090909" y="70.27272727272727" type="line"/>
      <point x="11.613636363636363" y="47.27272727272727" type="line"/>
    </contour>
  </outline>
</glyph>
<glyph name="G" format="2">
  <advance width="681.5"/>
  <unicode hex="0047"/>
  <anchor x="357.54545454545456" y="0.0" name="bottom"/>
  <anchor x="515.5" y="181.0" name="center"/>
  <anchor x="447.0681818181818" y="720.0" name="top"/>
  <outline>
    <contour>
      <point x="352.6818181818182" y="-15.0" type="curve" smooth="yes"/>
      <point x="437.5" y="-15.0"/>
      <point x="504.54545454545456" y="2.7954545454545454"/>
      <point x="572.3409090909091" y="19.0" type="curve"/>
      <point x="594.1590909090909" y="169.11363636363637" type="line" smooth="yes"/>
      <point x="597.3636363636364" y="190.75"/>
      <point x="614.5454545454545" y="269.8636363636364"/>
      <point x="624.75" y="320.8863636363636" type="curve"/>
      <point x="609.1136363636364" y="339.1136363636364" type="line"/>
      <point x="583.0454545454545" y="337.90909090909093"/>
      <point x="547.9545454545455" y="336.1136363636364"/>
      <point x="533.75" y="336.1136363636364" type="curve" smooth="yes"/>
      <point x="425.75" y="336.1136363636364" type="line"/>
      <point x="411.9318181818182" y="274.3636363636364" type="line"/>
      <point x="551.6363636363636" y="262.95454545454544" type="line"/>
      <point x="512.9318181818181" y="304.8636363636364" type="line"/>
      <point x="514.3409090909091" y="272.40909090909093"/>
      <point x="514.9318181818181" y="207.4090909090909"/>
      <point x="513.1363636363636" y="196.0" type="curve" smooth="yes"/>
      <point x="486.54545454545456" y="28.386363636363637" type="line"/>
      <point x="515.8181818181819" y="72.88636363636364" type="line"/>
      <point x="470.84090909090907" y="59.90909090909091"/>
      <point x="406.5" y="45.93181818181818"/>
      <point x="359.29545454545456" y="45.93181818181818" type="curve" smooth="yes"/>
      <point x="235.1818181818182" y="45.93181818181818"/>
      <point x="172.27272727272728" y="151.0681818181818"/>
      <point x="172.27272727272728" y="286.3863636363636" type="curve" smooth="yes"/>
      <point x="172.27272727272728" y="480.6818181818182"/>
      <point x="263.95454545454544" y="659.0681818181819"/>
      <point x="439.5" y="659.0681818181819" type="curve" smooth="yes"/>
      <point x="488.5" y="659.0681818181819"/>
      <point x="550.0681818181819" y="644.2954545454545"/>
      <point x="594.9090909090909" y="628.0909090909091" type="curve"/>
      <point x="566.4318181818181" y="663.1136363636364" type="line"/>
      <point x="572.0227272727273" y="640.3409090909091"/>
      <point x="576.8409090909091" y="598.3409090909091"/>
      <point x="575.8409090909091" y="587.1363636363636" type="curve" smooth="yes"/>
      <point x="569.8409090909091" y="541.2727272727273" type="line"/>
      <point x="628.1136363636364" y="534.8863636363636" type="line"/>
      <point x="660.1363636363636" y="686.0" type="line"/>
      <point x="598.3409090909091" y="702.0"/>
      <point x="534.8863636363636" y="720.0"/>
      <point x="450.29545454545456" y="720.0" type="curve" smooth="yes"/>
      <point x="199.61363636363637" y="720.0"/>
      <point x="62.38636363636363" y="531.6136363636364"/>
      <point x="62.38636363636363" y="285.02272727272725" type="curve" smooth="yes"/>
      <point x="62.38636363636363" y="106.4090909090909"/>
      <point x="164.0" y="-15.0"/>
    </contour>
  </outline>
</glyph>
<glyph name="H" format="2">
  <advance width="761.875"/>
  <unicode hex="0048"/>
  <anchor x="344.29545454545456" y="0.0" name="bottom"/>
  <anchor x="417.09090909090907" y="520.0" name="center"/>
  <anchor x="445.29545454545456" y="720.0" name="top"/>
  <anchor x="94.61363636363636" y="705.0" name="topleft"/>
  <outline>
    <contour>
      <point x="419.04545454545456" y="-5.0" type="line"/>
      <point x="464.8636363636364" y="-3.0"/>
      <point x="529.8863636363636" y="0.0"/>
      <point x="555.7045454545455" y="0.0" type="curve" smooth="yes"/>
      <point x="680.1590909090909" y="0.0" type="line"/>
      <point x="694.3636363636364" y="55.65909090909091" type="line"/>
      <point x="572.75" y="66.27272727272727" type="line"/>
      <point x="611.4545454545455" y="29.454545454545453" type="line"/>
      <point x="609.6590909090909" y="59.61363636363637"/>
      <point x="614.6363636363636" y="130.4090909090909"/>
      <point x="620.25" y="169.29545454545453" type="curve" smooth="yes"/>
      <point x="673.6363636363636" y="538.6136363636364" type="line" smooth="yes"/>
      <point x="679.4318181818181" y="578.1818181818181"/>
      <point x="698.0454545454545" y="653.75"/>
      <point x="704.8409090909091" y="677.9318181818181" type="curve"/>
      <point x="657.1363636363636" y="638.9090909090909" type="line"/>
      <point x="770.5909090909091" y="649.3181818181819" type="line"/>
      <point x="775.7954545454545" y="710.0" type="line"/>
      <point x="730.75" y="708.0"/>
      <point x="675.9090909090909" y="705.0"/>
      <point x="640.6590909090909" y="705.0" type="curve" smooth="yes"/>
      <point x="622.4545454545455" y="705.0"/>
      <point x="563.25" y="708.0"/>
      <point x="525.0454545454545" y="710.0" type="curve"/>
      <point x="511.4318181818182" y="654.3181818181819" type="line"/>
      <point x="621.8863636363636" y="635.5" type="line"/>
      <point x="583.3863636363636" y="677.9318181818181" type="line"/>
      <point x="584.1818181818181" y="654.3181818181819"/>
      <point x="583.5909090909091" y="586.1363636363636"/>
      <point x="580.5681818181819" y="562.5909090909091" type="curve" smooth="yes"/>
      <point x="518.4090909090909" y="139.29545454545453" type="line" smooth="yes"/>
      <point x="515.4090909090909" y="118.88636363636364"/>
      <point x="496.6136363636364" y="53.5"/>
      <point x="489.6136363636364" y="27.113636363636363" type="curve"/>
      <point x="537.7045454545455" y="70.27272727272727" type="line"/>
      <point x="421.65909090909093" y="47.27272727272727" type="line"/>
    </contour>
    <contour>
      <point x="9.204545454545455" y="-5.0" type="line"/>
      <point x="55.02272727272727" y="-3.0"/>
      <point x="119.8409090909091" y="0.0"/>
      <point x="145.6590909090909" y="0.0" type="curve" smooth="yes"/>
      <point x="270.3181818181818" y="0.0" type="line"/>
      <point x="284.3181818181818" y="55.65909090909091" type="line"/>
      <point x="162.9090909090909" y="66.27272727272727" type="line"/>
      <point x="201.4090909090909" y="29.454545454545453" type="line"/>
      <point x="199.8181818181818" y="59.0"/>
      <point x="204.79545454545456" y="130.0"/>
      <point x="210.4090909090909" y="169.29545454545453" type="curve" smooth="yes"/>
      <point x="263.79545454545456" y="538.6136363636364" type="line" smooth="yes"/>
      <point x="269.59090909090907" y="578.7727272727273"/>
      <point x="287.79545454545456" y="653.3181818181819"/>
      <point x="294.79545454545456" y="677.9318181818181" type="curve"/>
      <point x="247.0909090909091" y="638.9090909090909" type="line"/>
      <point x="360.75" y="649.3181818181819" type="line"/>
      <point x="365.95454545454544" y="710.0" type="line"/>
      <point x="320.90909090909093" y="708.0"/>
      <point x="265.8636363636364" y="705.0"/>
      <point x="230.8181818181818" y="705.0" type="curve" smooth="yes"/>
      <point x="212.61363636363637" y="705.0"/>
      <point x="153.4090909090909" y="708.0"/>
      <point x="115.0" y="710.0" type="curve"/>
      <point x="101.5909090909091" y="654.3181818181819" type="line"/>
      <point x="212.04545454545453" y="635.5" type="line"/>
      <point x="173.54545454545453" y="677.9318181818181" type="line"/>
      <point x="174.3409090909091" y="654.5227272727273"/>
      <point x="173.54545454545453" y="586.5227272727273"/>
      <point x="170.52272727272728" y="562.5909090909091" type="curve" smooth="yes"/>
      <point x="108.56818181818181" y="139.29545454545453" type="line" smooth="yes"/>
      <point x="105.36363636363636" y="118.86363636363636"/>
      <point x="86.77272727272727" y="53.90909090909091"/>
      <point x="79.77272727272727" y="27.113636363636363" type="curve"/>
      <point x="127.6590909090909" y="70.27272727272727" type="line"/>
      <point x="11.613636363636363" y="47.27272727272727" type="line"/>
    </contour>
    <contour>
      <point x="206.5909090909091" y="324.70454545454544" type="line"/>
      <point x="570.3863636363636" y="324.70454545454544" type="line"/>
      <point x="579.2045454545455" y="383.84090909090907" type="line"/>
      <point x="215.20454545454547" y="378.84090909090907" type="line"/>
    </contour>
  </outline>
</glyph>
<glyph name="J" format="2">
  <advance width="322.375"/>
  <unicode hex="004A"/>
  <anchor x="125.29545454545455" y="0.0" name="bottom"/>
  <anchor x="211.29545454545453" y="705.0" name="top"/>
  <outline>
    <contour>
      <point x="-1.1363636363636362" y="-200.0" type="line"/>
      <point x="59.06818181818182" y="-141.27272727272728"/>
      <point x="160.8181818181818" y="-35.54545454545455"/>
      <point x="165.02272727272728" y="-8.522727272727273" type="curve" smooth="yes"/>
      <point x="244.61363636363637" y="538.6136363636364" type="line" smooth="yes"/>
      <point x="250.4090909090909" y="578.7727272727273"/>
      <point x="268.6136363636364" y="653.3181818181819"/>
      <point x="275.6136363636364" y="677.9318181818181" type="curve"/>
      <point x="227.9090909090909" y="638.9090909090909" type="line"/>
      <point x="341.5681818181818" y="649.3181818181819" type="line"/>
      <point x="346.77272727272725" y="710.0" type="line"/>
      <point x="300.9318181818182" y="708.0"/>
      <point x="245.88636363636363" y="705.0"/>
      <point x="210.8409090909091" y="705.0" type="curve" smooth="yes"/>
      <point x="192.63636363636363" y="705.0"/>
      <point x="133.4318181818182" y="708.0"/>
      <point x="95.81818181818181" y="710.0" type="curve"/>
      <point x="82.4090909090909" y="654.3181818181819" type="line"/>
      <point x="192.86363636363637" y="635.5" type="line"/>
      <point x="154.36363636363637" y="677.9318181818181" type="line"/>
      <point x="155.1590909090909" y="654.75"/>
      <point x="154.5681818181818" y="586.3409090909091"/>
      <point x="150.54545454545453" y="562.5909090909091" type="curve" smooth="yes"/>
      <point x="70.77272727272727" y="11.0" type="line" smooth="yes"/>
      <point x="67.77272727272727" y="-9.0"/>
      <point x="-34.20454545454545" y="-177.36363636363637"/>
      <point x="-34.20454545454545" y="-177.36363636363637" type="curve"/>
    </contour>
  </outline>
</glyph>
<glyph name="K" format="2">
  <advance width="705.375"/>
  <unicode hex="004B"/>
  <anchor x="315.1363636363636" y="0.0" name="bottom"/>
  <anchor x="416.1363636363636" y="720.0" name="top"/>
  <outline>
    <contour>
      <point x="367.95454545454544" y="-5.0" type="line"/>
      <point x="413.77272727272725" y="-3.0"/>
      <point x="478.59090909090907" y="0.0"/>
      <point x="504.40909090909093" y="0.0" type="curve" smooth="yes"/>
      <point x="633.4545454545455" y="0.0" type="line"/>
      <point x="647.6590909090909" y="55.86363636363637" type="line"/>
      <point x="545.0454545454545" y="66.68181818181819" type="line"/>
      <point x="597.7727272727273" y="48.43181818181818" type="line"/>
      <point x="582.7954545454545" y="62.79545454545455"/>
      <point x="536.0227272727273" y="108.79545454545455"/>
      <point x="521.8181818181819" y="129.0" type="curve" smooth="yes"/>
      <point x="337.15909090909093" y="393.3181818181818" type="line"/>
      <point x="326.1818181818182" y="341.3181818181818" type="line"/>
      <point x="512.2045454545455" y="546.0" type="line" smooth="yes"/>
      <point x="529.6136363636364" y="564.8181818181819"/>
      <point x="601.3636363636364" y="631.3636363636364"/>
      <point x="630.7727272727273" y="653.7727272727273" type="curve"/>
      <point x="577.8181818181819" y="638.7045454545455" type="line"/>
      <point x="688.25" y="649.3181818181819" type="line"/>
      <point x="692.6590909090909" y="710.0" type="line"/>
      <point x="650.0454545454545" y="708.0"/>
      <point x="598.4318181818181" y="705.0"/>
      <point x="566.6136363636364" y="705.0" type="curve" smooth="yes"/>
      <point x="546.6136363636364" y="705.0"/>
      <point x="497.5681818181818" y="708.0"/>
      <point x="462.75" y="710.0" type="curve"/>
      <point x="449.1363636363636" y="654.3181818181819" type="line"/>
      <point x="535.75" y="635.3181818181819" type="line"/>
      <point x="518.4545454545455" y="673.3409090909091" type="line"/>
      <point x="496.02272727272725" y="638.8863636363636"/>
      <point x="464.1136363636364" y="590.4318181818181"/>
      <point x="451.5" y="577.0" type="curve" smooth="yes"/>
      <point x="245.1818181818182" y="353.0" type="line"/>
      <point x="375.3181818181818" y="164.0" type="line" smooth="yes"/>
      <point x="393.1136363636364" y="137.79545454545453"/>
      <point x="426.90909090909093" y="60.40909090909091"/>
      <point x="432.29545454545456" y="47.84090909090909" type="curve"/>
      <point x="464.59090909090907" y="69.06818181818181" type="line"/>
      <point x="370.3636363636364" y="47.27272727272727" type="line"/>
    </contour>
    <contour>
      <point x="9.204545454545455" y="-5.0" type="line"/>
      <point x="55.02272727272727" y="-3.0"/>
      <point x="119.8409090909091" y="0.0"/>
      <point x="145.6590909090909" y="0.0" type="curve" smooth="yes"/>
      <point x="270.3181818181818" y="0.0" type="line"/>
      <point x="284.3181818181818" y="55.65909090909091" type="line"/>
      <point x="162.9090909090909" y="66.27272727272727" type="line"/>
      <point x="201.4090909090909" y="29.454545454545453" type="line"/>
      <point x="199.8181818181818" y="59.0"/>
      <point x="204.79545454545456" y="130.0"/>
      <point x="210.4090909090909" y="169.29545454545453" type="curve" smooth="yes"/>
      <point x="263.79545454545456" y="538.6136363636364" type="line" smooth="yes"/>
      <point x="269.59090909090907" y="578.7727272727273"/>
      <point x="287.79545454545456" y="653.3181818181819"/>
      <point x="294.79545454545456" y="677.9318181818181" type="curve"/>
      <point x="247.0909090909091" y="638.9090909090909" type="line"/>
      <point x="360.75" y="649.3181818181819" type="line"/>
      <point x="365.95454545454544" y="710.0" type="line"/>
      <point x="320.90909090909093" y="708.0"/>
      <point x="265.8636363636364" y="705.0"/>
      <point x="230.8181818181818" y="705.0" type="curve" smooth="yes"/>
      <point x="212.61363636363637" y="705.0"/>
      <point x="153.4090909090909" y="708.0"/>
      <point x="115.0" y="710.0" type="curve"/>
      <point x="101.5909090909091" y="654.3181818181819" type="line"/>
      <point x="212.04545454545453" y="635.5" type="line"/>
      <point x="173.54545454545453" y="677.9318181818181" type="line"/>
      <point x="174.3409090909091" y="654.5227272727273"/>
      <point x="173.54545454545453" y="586.5227272727273"/>
      <point x="170.52272727272728" y="562.5909090909091" type="curve" smooth="yes"/>
      <point x="108.56818181818181" y="139.29545454545453" type="line" smooth="yes"/>
      <point x="105.36363636363636" y="118.86363636363636"/>
      <point x="86.77272727272727" y="53.90909090909091"/>
      <point x="79.77272727272727" y="27.113636363636363" type="curve"/>
      <point x="127.6590909090909" y="70.27272727272727" type="line"/>
      <point x="11.613636363636363" y="47.27272727272727" type="line"/>
    </contour>
  </outline>
</glyph>
<glyph name="L" format="2">
  <advance width="547.75"/>
  <unicode hex="004C"/>
  <anchor x="251.9318181818182" y="0.0" name="bottom"/>
  <anchor x="191.88636363636363" y="355.0" name="center"/>
  <anchor x="553.5681818181819" y="423.0" name="centerright"/>
  <anchor x="291.6136363636364" y="720.0" name="top"/>
  <anchor x="470.9318181818182" y="494.0" name="topright"/>
  <outline>
    <contour>
      <point x="9.204545454545455" y="-5.0" type="line"/>
      <point x="55.02272727272727" y="-3.0"/>
      <point x="94.25" y="0.0"/>
      <point x="120.06818181818181" y="0.0" type="curve" smooth="yes"/>
      <point x="332.1136363636364" y="0.0" type="line" smooth="yes"/>
      <point x="358.70454545454544" y="0.0"/>
      <point x="405.1136363636364" y="-2.0"/>
      <point x="442.1136363636364" y="-4.0" type="curve"/>
      <point x="463.1136363636364" y="14.0" type="line"/>
      <point x="500.52272727272725" y="167.29545454545453" type="line"/>
      <point x="446.0681818181818" y="172.29545454545453" type="line"/>
      <point x="440.45454545454544" y="154.8409090909091"/>
      <point x="428.29545454545456" y="121.95454545454545"/>
      <point x="421.09090909090907" y="105.93181818181819" type="curve" smooth="yes"/>
      <point x="414.6818181818182" y="91.70454545454545"/>
      <point x="393.8863636363636" y="64.68181818181819"/>
      <point x="376.40909090909093" y="44.0" type="curve"/>
      <point x="412.1363636363636" y="72.31818181818181" type="line"/>
      <point x="394.34090909090907" y="68.31818181818181"/>
      <point x="349.95454545454544" y="60.11363636363637"/>
      <point x="311.1363636363636" y="60.11363636363637" type="curve" smooth="yes"/>
      <point x="160.4090909090909" y="60.11363636363637" type="line"/>
      <point x="201.4090909090909" y="29.454545454545453" type="line"/>
      <point x="199.8181818181818" y="59.0"/>
      <point x="204.79545454545456" y="130.0"/>
      <point x="210.4090909090909" y="169.29545454545453" type="curve" smooth="yes"/>
      <point x="263.79545454545456" y="538.6136363636364" type="line" smooth="yes"/>
      <point x="269.59090909090907" y="578.7727272727273"/>
      <point x="287.79545454545456" y="653.3181818181819"/>
      <point x="294.79545454545456" y="677.9318181818181" type="curve"/>
      <point x="247.0909090909091" y="638.9090909090909" type="line"/>
      <point x="360.75" y="649.3181818181819" type="line"/>
      <point x="365.95454545454544" y="710.0" type="line"/>
      <point x="320.90909090909093" y="708.0"/>
      <point x="265.8636363636364" y="705.0"/>
      <point x="230.8181818181818" y="705.0" type="curve" smooth="yes"/>
      <point x="212.61363636363637" y="705.0"/>
      <point x="153.4090909090909" y="708.0"/>
      <point x="115.0" y="710.0" type="curve"/>
      <point x="101.5909090909091" y="654.3181818181819" type="line"/>
      <point x="212.04545454545453" y="635.5" type="line"/>
      <point x="173.54545454545453" y="677.9318181818181" type="line"/>
      <point x="174.3409090909091" y="654.5227272727273"/>
      <point x="174.3409090909091" y="586.5227272727273"/>
      <point x="170.52272727272728" y="562.5909090909091" type="curve" smooth="yes"/>
      <point x="108.56818181818181" y="139.29545454545453" type="line" smooth="yes"/>
      <point x="105.36363636363636" y="118.86363636363636"/>
      <point x="86.77272727272727" y="53.90909090909091"/>
      <point x="79.77272727272727" y="27.113636363636363" type="curve"/>
      <point x="127.6590909090909" y="70.27272727272727" type="line"/>
      <point x="11.613636363636363" y="47.27272727272727" type="line"/>
    </contour>
  </outline>
</glyph>
<glyph name="M" format="2">
  <advance width="921.875"/>
  <unicode hex="004D"/>
  <anchor x="432.56927272727273" y="0.0" name="bottom"/>
  <anchor x="518.6844318181818" y="705.0" name="top"/>
  <outline>
    <contour>
      <point x="4.204545454545454" y="-5.0" type="line"/>
      <point x="48.38636363636363" y="-3.0"/>
      <point x="112.95454545454545" y="0.0"/>
      <point x="138.5681818181818" y="0.0" type="curve" smooth="yes"/>
      <point x="235.6590909090909" y="0.0" type="line"/>
      <point x="249.6590909090909" y="55.65909090909091" type="line"/>
      <point x="131.63636363636363" y="66.27272727272727" type="line"/>
      <point x="174.3181818181818" y="29.454545454545453" type="line"/>
      <point x="173.52272727272728" y="59.61363636363637"/>
      <point x="180.29545454545453" y="140.36363636363637"/>
      <point x="185.9090909090909" y="169.5" type="curve" smooth="yes"/>
      <point x="274.65909090909093" y="616.25" type="line"/>
      <point x="258.4318181818182" y="616.25" type="line"/>
      <point x="390.52272727272725" y="0.0" type="line"/>
      <point x="432.1363636363636" y="0.0" type="line"/>
      <point x="741.6136363636364" y="613.0454545454545" type="line"/>
      <point x="727.3863636363636" y="616.4545454545455" type="line"/>
      <point x="686.5681818181819" y="139.5" type="line" smooth="yes"/>
      <point x="684.5681818181819" y="117.29545454545455"/>
      <point x="667.5681818181819" y="53.70454545454545"/>
      <point x="660.5681818181819" y="27.113636363636363" type="curve"/>
      <point x="707.8181818181819" y="70.27272727272727" type="line"/>
      <point x="592.4090909090909" y="47.27272727272727" type="line"/>
      <point x="590.0" y="-5.0" type="line"/>
      <point x="635.6136363636364" y="-3.0"/>
      <point x="700.2045454545455" y="0.0"/>
      <point x="725.8181818181819" y="0.0" type="curve" smooth="yes"/>
      <point x="850.2727272727273" y="0.0" type="line"/>
      <point x="863.6818181818181" y="55.65909090909091" type="line"/>
      <point x="743.0681818181819" y="66.27272727272727" type="line"/>
      <point x="790.3409090909091" y="29.454545454545453" type="line"/>
      <point x="788.3409090909091" y="59.61363636363637"/>
      <point x="782.5454545454545" y="130.6590909090909"/>
      <point x="785.5454545454545" y="168.5" type="curve" smooth="yes"/>
      <point x="812.3409090909091" y="538.6136363636364" type="line" smooth="yes"/>
      <point x="815.3409090909091" y="580.5681818181819"/>
      <point x="832.1363636363636" y="658.9090909090909"/>
      <point x="837.1590909090909" y="679.9545454545455" type="curve"/>
      <point x="789.8409090909091" y="638.9090909090909" type="line"/>
      <point x="903.2954545454545" y="649.3181818181819" type="line"/>
      <point x="908.7045454545455" y="710.0" type="line"/>
      <point x="857.8863636363636" y="708.0"/>
      <point x="789.0681818181819" y="705.0"/>
      <point x="758.25" y="705.0" type="curve" smooth="yes"/>
      <point x="726.5" y="705.0" type="line"/>
      <point x="704.5" y="685.0" type="line"/>
      <point x="632.9545454545455" y="538.0454545454545" type="line"/>
      <point x="435.6136363636364" y="143.88636363636363" type="line"/>
      <point x="460.8636363636364" y="141.27272727272728" type="line"/>
      <point x="378.75" y="529.8181818181819" type="line"/>
      <point x="351.1818181818182" y="685.0" type="line"/>
      <point x="336.1818181818182" y="705.0" type="line"/>
      <point x="262.15909090909093" y="705.0" type="line" smooth="yes"/>
      <point x="242.95454545454547" y="705.0"/>
      <point x="184.75" y="708.0"/>
      <point x="145.54545454545453" y="710.0" type="curve"/>
      <point x="132.13636363636363" y="654.3181818181819" type="line"/>
      <point x="242.38636363636363" y="635.5" type="line"/>
      <point x="206.27272727272728" y="670.4090909090909" type="line"/>
      <point x="206.27272727272728" y="655.5909090909091"/>
      <point x="202.52272727272728" y="587.3636363636364"/>
      <point x="196.88636363636363" y="562.5909090909091" type="curve" smooth="yes"/>
      <point x="109.54545454545455" y="139.5" type="line" smooth="yes"/>
      <point x="105.54545454545455" y="120.27272727272727"/>
      <point x="79.38636363636364" y="53.90909090909091"/>
      <point x="69.0" y="27.113636363636363" type="curve"/>
      <point x="122.6590909090909" y="70.27272727272727" type="line"/>
      <point x="6.613636363636363" y="47.27272727272727" type="line"/>
    </contour>
  </outline>
</glyph>
<glyph name="N" format="2">
  <advance width="768.125"/>
  <unicode hex="004E"/>
  <anchor x="344.27272727272725" y="0.0" name="bottom"/>
  <anchor x="445.27272727272725" y="720.0" name="top"/>
  <outline>
    <contour>
      <point x="9.204545454545455" y="-5.0" type="line"/>
      <point x="53.38636363636363" y="-3.0"/>
      <point x="115.36363636363636" y="0.0"/>
      <point x="140.38636363636363" y="0.0" type="curve" smooth="yes"/>
      <point x="239.52272727272728" y="0.0" type="line"/>
      <point x="252.9318181818182" y="55.65909090909091" type="line"/>
      <point x="135.70454545454547" y="66.27272727272727" type="line"/>
      <point x="175.79545454545456" y="29.454545454545453" type="line"/>
      <point x="176.5909090909091" y="64.06818181818181"/>
      <point x="182.1818181818182" y="137.8409090909091"/>
      <point x="186.5909090909091" y="169.29545454545453" type="curve" smooth="yes"/>
      <point x="246.13636363636363" y="584.5" type="line"/>
      <point x="223.27272727272728" y="580.0909090909091" type="line"/>
      <point x="529.3409090909091" y="0.0" type="line"/>
      <point x="603.0" y="0.0" type="line"/>
      <point x="682.7954545454545" y="538.6136363636364" type="line" smooth="yes"/>
      <point x="687.7954545454545" y="573.2045454545455"/>
      <point x="712.9545454545455" y="646.8863636363636"/>
      <point x="721.7727272727273" y="666.3636363636364" type="curve"/>
      <point x="673.6590909090909" y="638.9090909090909" type="line"/>
      <point x="787.3181818181819" y="649.3181818181819" type="line"/>
      <point x="792.5227272727273" y="710.0" type="line"/>
      <point x="758.0909090909091" y="708.0"/>
      <point x="696.4090909090909" y="705.0"/>
      <point x="665.2045454545455" y="705.0" type="curve" smooth="yes"/>
      <point x="649.6136363636364" y="705.0"/>
      <point x="593.4090909090909" y="708.0"/>
      <point x="557.6136363636364" y="710.0" type="curve"/>
      <point x="544.2045454545455" y="654.3181818181819" type="line"/>
      <point x="654.6590909090909" y="635.5" type="line"/>
      <point x="616.1590909090909" y="674.5909090909091" type="line"/>
      <point x="616.9545454545455" y="651.75"/>
      <point x="617.3636363636364" y="587.5681818181819"/>
      <point x="613.3409090909091" y="562.5909090909091" type="curve" smooth="yes"/>
      <point x="549.7954545454545" y="130.95454545454547" type="line"/>
      <point x="573.6590909090909" y="135.36363636363637" type="line"/>
      <point x="359.1363636363636" y="531.0227272727273" type="line"/>
      <point x="289.3636363636364" y="685.0" type="line"/>
      <point x="273.3636363636364" y="705.0" type="line"/>
      <point x="231.61363636363637" y="705.0" type="line" smooth="yes"/>
      <point x="212.61363636363637" y="705.0"/>
      <point x="154.0" y="708.0"/>
      <point x="115.0" y="710.0" type="curve"/>
      <point x="101.38636363636364" y="654.3181818181819" type="line"/>
      <point x="211.8409090909091" y="635.5" type="line"/>
      <point x="173.3409090909091" y="677.75" type="line"/>
      <point x="173.3409090909091" y="662.1363636363636"/>
      <point x="174.54545454545453" y="587.7727272727273"/>
      <point x="171.3181818181818" y="562.5909090909091" type="curve" smooth="yes"/>
      <point x="109.36363636363636" y="139.5" type="line" smooth="yes"/>
      <point x="106.36363636363636" y="120.29545454545455"/>
      <point x="83.5909090909091" y="45.95454545454545"/>
      <point x="79.77272727272727" y="29.704545454545453" type="curve"/>
      <point x="125.27272727272727" y="70.27272727272727" type="line"/>
      <point x="11.613636363636363" y="47.27272727272727" type="line"/>
    </contour>
  </outline>
</glyph>
<glyph name="O" format="2">
  <advance width="757.25"/>
  <unicode hex="004F"/>
  <anchor x="340.8863636363636" y="0.0" name="bottom"/>
  <anchor x="390.8863636363636" y="353.0" name="center"/>
  <anchor x="476.45454545454544" y="0.0" name="ogonek"/>
  <anchor x="441.8863636363636" y="720.0" name="top"/>
  <anchor x="84.63636363636364" y="705.0" name="topleft"/>
  <anchor x="622.6363636363636" y="620.0" name="topright"/>
  <outline>
    <contour>
      <point x="339.8863636363636" y="-15.0" type="curve" smooth="yes"/>
      <point x="583.6590909090909" y="-15.0"/>
      <point x="719.5909090909091" y="172.75"/>
      <point x="719.5909090909091" y="419.5681818181818" type="curve" smooth="yes"/>
      <point x="719.5909090909091" y="598.0"/>
      <point x="624.7045454545455" y="720.0"/>
      <point x="441.8863636363636" y="720.0" type="curve" smooth="yes"/>
      <point x="198.9090909090909" y="720.0"/>
      <point x="62.18181818181818" y="532.25"/>
      <point x="62.18181818181818" y="284.4318181818182" type="curve" smooth="yes"/>
      <point x="62.18181818181818" y="107.0"/>
      <point x="157.86363636363637" y="-15.0"/>
    </contour>
    <contour>
      <point x="345.90909090909093" y="42.36363636363637" type="curve" smooth="yes"/>
      <point x="229.4090909090909" y="42.36363636363637"/>
      <point x="176.04545454545456" y="145.20454545454547"/>
      <point x="176.04545454545456" y="281.95454545454544" type="curve" smooth="yes"/>
      <point x="176.04545454545456" y="480.59090909090907"/>
      <point x="266.52272727272725" y="662.6363636363636"/>
      <point x="436.8636363636364" y="662.6363636363636" type="curve" smooth="yes"/>
      <point x="553.1590909090909" y="662.6363636363636"/>
      <point x="606.5227272727273" y="559.7954545454545"/>
      <point x="606.5227272727273" y="422.04545454545456" type="curve" smooth="yes"/>
      <point x="606.5227272727273" y="223.4090909090909"/>
      <point x="515.0454545454545" y="42.36363636363637"/>
    </contour>
  </outline>
</glyph>
<glyph name="P" format="2">
  <advance width="593.875"/>
  <unicode hex="0050"/>
  <anchor x="264.6147272727273" y="0.0" name="bottom"/>
  <anchor x="351.5253409090909" y="705.0" name="top"/>
  <outline>
    <contour>
      <point x="9.204545454545455" y="-5.0" type="line"/>
      <point x="55.02272727272727" y="-3.0"/>
      <point x="119.8409090909091" y="0.0"/>
      <point x="145.6590909090909" y="0.0" type="curve" smooth="yes"/>
      <point x="280.3181818181818" y="0.0" type="line"/>
      <point x="294.3181818181818" y="55.65909090909091" type="line"/>
      <point x="162.9090909090909" y="66.27272727272727" type="line"/>
      <point x="201.4090909090909" y="29.454545454545453" type="line"/>
      <point x="199.8181818181818" y="59.0"/>
      <point x="204.79545454545456" y="130.0"/>
      <point x="210.4090909090909" y="169.29545454545453" type="curve" smooth="yes"/>
      <point x="263.79545454545456" y="538.6136363636364" type="line" smooth="yes"/>
      <point x="269.59090909090907" y="578.5681818181819"/>
      <point x="287.1818181818182" y="653.3181818181819"/>
      <point x="294.1818181818182" y="677.9318181818181" type="curve"/>
      <point x="238.6818181818182" y="650.0909090909091" type="line" smooth="yes"/>
      <point x="277.8863636363636" y="653.0909090909091"/>
      <point x="325.65909090909093" y="656.6818181818181"/>
      <point x="343.84090909090907" y="656.6818181818181" type="curve" smooth="yes"/>
      <point x="431.59090909090907" y="656.6818181818181"/>
      <point x="484.1136363636364" y="612.5227272727273"/>
      <point x="484.1136363636364" y="529.1818181818181" type="curve" smooth="yes"/>
      <point x="484.1136363636364" y="406.02272727272725"/>
      <point x="406.95454545454544" y="342.02272727272725"/>
      <point x="294.6136363636364" y="342.02272727272725" type="curve" smooth="yes"/>
      <point x="254.4318181818182" y="342.02272727272725"/>
      <point x="200.63636363636363" y="348.3863636363636"/>
      <point x="162.27272727272728" y="353.15909090909093" type="curve"/>
      <point x="153.6590909090909" y="293.09090909090907" type="line"/>
      <point x="208.25" y="290.5"/>
      <point x="262.6363636363636" y="288.70454545454544"/>
      <point x="318.02272727272725" y="288.70454545454544" type="curve" smooth="yes"/>
      <point x="461.25" y="288.70454545454544"/>
      <point x="585.3636363636364" y="376.1363636363636"/>
      <point x="585.3636363636364" y="537.5454545454545" type="curve" smooth="yes"/>
      <point x="585.3636363636364" y="650.5681818181819"/>
      <point x="504.5681818181818" y="710.0"/>
      <point x="385.95454545454544" y="710.0" type="curve" smooth="yes"/>
      <point x="345.3181818181818" y="710.0"/>
      <point x="271.65909090909093" y="705.0"/>
      <point x="230.8181818181818" y="705.0" type="curve" smooth="yes"/>
      <point x="212.61363636363637" y="705.0"/>
      <point x="153.4090909090909" y="708.0"/>
      <point x="115.0" y="710.0" type="curve"/>
      <point x="101.5909090909091" y="654.3181818181819" type="line"/>
      <point x="212.04545454545453" y="635.5" type="line"/>
      <point x="173.54545454545453" y="677.9318181818181" type="line"/>
      <point x="174.3409090909091" y="654.5227272727273"/>
      <point x="173.54545454545453" y="586.5227272727273"/>
      <point x="170.52272727272728" y="562.5909090909091" type="curve" smooth="yes"/>
      <point x="108.56818181818181" y="139.29545454545453" type="line" smooth="yes"/>
      <point x="105.36363636363636" y="118.86363636363636"/>
      <point x="86.77272727272727" y="53.90909090909091"/>
      <point x="79.77272727272727" y="27.113636363636363" type="curve"/>
      <point x="127.6590909090909" y="70.27272727272727" type="line"/>
      <point x="11.613636363636363" y="47.27272727272727" type="line"/>
    </contour>
  </outline>
</glyph>
<glyph name="Q" format="2">
  <advance width="758.125"/>
  <unicode hex="0051"/>
  <anchor x="346.6818181818182" y="0.0" name="bottom"/>
  <anchor x="432.6818181818182" y="705.0" name="top"/>
  <outline>
    <contour>
      <point x="339.8863636363636" y="-15.0" type="curve" smooth="yes"/>
      <point x="583.6590909090909" y="-15.0"/>
      <point x="719.5909090909091" y="172.75"/>
      <point x="719.5909090909091" y="419.5681818181818" type="curve" smooth="yes"/>
      <point x="719.5909090909091" y="598.0"/>
      <point x="624.7045454545455" y="720.0"/>
      <point x="441.8863636363636" y="720.0" type="curve" smooth="yes"/>
      <point x="198.9090909090909" y="720.0"/>
      <point x="62.18181818181818" y="532.25"/>
      <point x="62.18181818181818" y="284.4318181818182" type="curve" smooth="yes"/>
      <point x="62.18181818181818" y="107.0"/>
      <point x="157.86363636363637" y="-15.0"/>
    </contour>
    <contour>
      <point x="599.0909090909091" y="-224.0" type="line"/>
      <point x="674.8181818181819" y="-128.6818181818182" type="line"/>
      <point x="626.8181818181819" y="-105.88636363636364"/>
      <point x="545.6136363636364" y="-68.88636363636364"/>
      <point x="531.8181818181819" y="-57.29545454545455" type="curve" smooth="yes"/>
      <point x="457.04545454545456" y="2.681818181818182" type="line"/>
      <point x="372.15909090909093" y="-12.568181818181818" type="line"/>
    </contour>
    <contour>
      <point x="345.90909090909093" y="42.36363636363637" type="curve" smooth="yes"/>
      <point x="229.4090909090909" y="42.36363636363637"/>
      <point x="176.04545454545456" y="145.20454545454547"/>
      <point x="176.04545454545456" y="281.95454545454544" type="curve" smooth="yes"/>
      <point x="176.04545454545456" y="480.59090909090907"/>
      <point x="266.52272727272725" y="662.6363636363636"/>
      <point x="436.8636363636364" y="662.6363636363636" type="curve" smooth="yes"/>
      <point x="553.1590909090909" y="662.6363636363636"/>
      <point x="606.5227272727273" y="559.7954545454545"/>
      <point x="606.5227272727273" y="422.04545454545456" type="curve" smooth="yes"/>
      <point x="606.5227272727273" y="223.4090909090909"/>
      <point x="515.0454545454545" y="42.36363636363637"/>
    </contour>
  </outline>
</glyph>
<glyph name="R" format="2">
  <advance width="648.5"/>
  <unicode hex="0052"/>
  <anchor x="308.27272727272725" y="0.0" name="bottom"/>
  <anchor x="344.15909090909093" y="720.0" name="top"/>
  <outline>
    <contour>
      <point x="9.204545454545455" y="-5.0" type="line"/>
      <point x="55.02272727272727" y="-3.0"/>
      <point x="119.8409090909091" y="0.0"/>
      <point x="145.6590909090909" y="0.0" type="curve" smooth="yes"/>
      <point x="270.3181818181818" y="0.0" type="line"/>
      <point x="284.3181818181818" y="55.65909090909091" type="line"/>
      <point x="162.9090909090909" y="66.27272727272727" type="line"/>
      <point x="201.4090909090909" y="29.454545454545453" type="line"/>
      <point x="199.8181818181818" y="59.0"/>
      <point x="204.79545454545456" y="130.0"/>
      <point x="210.4090909090909" y="169.29545454545453" type="curve" smooth="yes"/>
      <point x="263.79545454545456" y="538.6136363636364" type="line" smooth="yes"/>
      <point x="269.59090909090907" y="578.7727272727273"/>
      <point x="287.79545454545456" y="653.3181818181819"/>
      <point x="294.79545454545456" y="677.9318181818181" type="curve"/>
      <point x="243.02272727272728" y="651.0681818181819" type="line"/>
      <point x="273.65909090909093" y="653.0681818181819"/>
      <point x="326.02272727272725" y="656.6818181818181"/>
      <point x="344.04545454545456" y="656.6818181818181" type="curve" smooth="yes"/>
      <point x="431.79545454545456" y="656.6818181818181"/>
      <point x="485.1363636363636" y="612.9318181818181"/>
      <point x="485.1363636363636" y="533.1818181818181" type="curve" smooth="yes"/>
      <point x="485.1363636363636" y="415.0681818181818"/>
      <point x="420.6363636363636" y="351.84090909090907"/>
      <point x="306.8181818181818" y="351.84090909090907" type="curve" smooth="yes"/>
      <point x="258.65909090909093" y="351.84090909090907"/>
      <point x="210.6818181818182" y="358.40909090909093"/>
      <point x="161.25" y="363.59090909090907" type="curve"/>
      <point x="154.27272727272728" y="303.9318181818182" type="line"/>
      <point x="208.45454545454547" y="302.52272727272725"/>
      <point x="265.70454545454544" y="298.90909090909093"/>
      <point x="318.40909090909093" y="298.90909090909093" type="curve" smooth="yes"/>
      <point x="461.45454545454544" y="298.90909090909093"/>
      <point x="586.1818181818181" y="386.3636363636364"/>
      <point x="586.1818181818181" y="543.1590909090909" type="curve" smooth="yes"/>
      <point x="586.1818181818181" y="651.5681818181819"/>
      <point x="505.1818181818182" y="710.0"/>
      <point x="386.3636363636364" y="710.0" type="curve" smooth="yes"/>
      <point x="345.52272727272725" y="710.0"/>
      <point x="271.65909090909093" y="705.0"/>
      <point x="230.8181818181818" y="705.0" type="curve" smooth="yes"/>
      <point x="212.61363636363637" y="705.0"/>
      <point x="153.4090909090909" y="708.0"/>
      <point x="115.0" y="710.0" type="curve"/>
      <point x="101.5909090909091" y="654.3181818181819" type="line"/>
      <point x="212.04545454545453" y="635.5" type="line"/>
      <point x="173.54545454545453" y="677.9318181818181" type="line"/>
      <point x="174.3409090909091" y="654.5227272727273"/>
      <point x="173.54545454545453" y="586.5227272727273"/>
      <point x="170.52272727272728" y="562.5909090909091" type="curve" smooth="yes"/>
      <point x="108.56818181818181" y="139.29545454545453" type="line" smooth="yes"/>
      <point x="105.36363636363636" y="118.86363636363636"/>
      <point x="86.77272727272727" y="53.90909090909091"/>
      <point x="79.77272727272727" y="27.113636363636363" type="curve"/>
      <point x="127.6590909090909" y="70.27272727272727" type="line"/>
      <point x="11.613636363636363" y="47.27272727272727" type="line"/>
    </contour>
    <contour>
      <point x="420.6136363636364" y="0.0" type="curve"/>
      <point x="579.75" y="0.0" type="line"/>
      <point x="593.75" y="55.86363636363637" type="line"/>
      <point x="487.9318181818182" y="66.45454545454545" type="line"/>
      <point x="537.0681818181819" y="44.18181818181818" type="line"/>
      <point x="527.6590909090909" y="60.79545454545455"/>
      <point x="499.8636363636364" y="111.61363636363636"/>
      <point x="491.27272727272725" y="130.5909090909091" type="curve" smooth="yes"/>
      <point x="486.8636363636364" y="141.4090909090909"/>
      <point x="444.02272727272725" y="244.5909090909091"/>
      <point x="403.65909090909093" y="349.0" type="curve"/>
      <point x="299.84090909090907" y="345.0" type="line"/>
      <point x="384.4318181818182" y="116.0" type="line" smooth="yes"/>
      <point x="397.8181818181818" y="81.81818181818181"/>
      <point x="408.4318181818182" y="41.95454545454545"/>
    </contour>
  </outline>
</glyph>
<glyph name="S" format="2">
  <advance width="557.375"/>
  <unicode hex="0053"/>
  <anchor x="240.8181818181818" y="0.0" name="bottom"/>
  <anchor x="351.84090909090907" y="720.0" name="top"/>
  <outline>
    <contour>
      <point x="238.0681818181818" y="-15.0" type="curve" smooth="yes"/>
      <point x="380.1136363636364" y="-15.0"/>
      <point x="500.54545454545456" y="61.27272727272727"/>
      <point x="500.54545454545456" y="209.29545454545453" type="curve" smooth="yes"/>
      <point x="500.54545454545456" y="403.29545454545456"/>
      <point x="208.63636363636363" y="405.45454545454544"/>
      <point x="208.63636363636363" y="541.1818181818181" type="curve" smooth="yes"/>
      <point x="208.63636363636363" y="618.0909090909091"/>
      <point x="267.77272727272725" y="661.6590909090909"/>
      <point x="334.3636363636364" y="661.6590909090909" type="curve" smooth="yes"/>
      <point x="387.5681818181818" y="661.6590909090909"/>
      <point x="423.15909090909093" y="652.1590909090909"/>
      <point x="470.04545454545456" y="624.6136363636364" type="curve"/>
      <point x="438.3636363636364" y="666.8409090909091" type="line"/>
      <point x="440.59090909090907" y="646.7727272727273"/>
      <point x="447.02272727272725" y="604.9090909090909"/>
      <point x="447.02272727272725" y="589.5227272727273" type="curve" smooth="yes"/>
      <point x="447.02272727272725" y="580.9318181818181"/>
      <point x="441.8181818181818" y="555.8636363636364"/>
      <point x="439.40909090909093" y="539.0227272727273" type="curve"/>
      <point x="498.70454545454544" y="532.4318181818181" type="line"/>
      <point x="535.5227272727273" y="687.3863636363636" type="line"/>
      <point x="474.70454545454544" y="704.2045454545455"/>
      <point x="402.0681818181818" y="720.0"/>
      <point x="338.65909090909093" y="720.0" type="curve" smooth="yes"/>
      <point x="204.4090909090909" y="720.0"/>
      <point x="99.18181818181819" y="642.9545454545455"/>
      <point x="99.18181818181819" y="510.52272727272725" type="curve" smooth="yes"/>
      <point x="99.18181818181819" y="324.0681818181818"/>
      <point x="386.90909090909093" y="324.3181818181818"/>
      <point x="386.90909090909093" y="183.1818181818182" type="curve" smooth="yes"/>
      <point x="386.90909090909093" y="99.6590909090909"/>
      <point x="327.9318181818182" y="48.34090909090909"/>
      <point x="243.8409090909091" y="48.34090909090909" type="curve" smooth="yes"/>
      <point x="187.0" y="48.34090909090909"/>
      <point x="137.04545454545453" y="68.38636363636364"/>
      <point x="108.52272727272728" y="83.54545454545455" type="curve"/>
      <point x="126.54545454545455" y="63.90909090909091" type="line"/>
      <point x="124.93181818181819" y="73.31818181818181"/>
      <point x="122.29545454545455" y="106.93181818181819"/>
      <point x="122.29545454545455" y="125.5" type="curve" smooth="yes"/>
      <point x="122.29545454545455" y="137.6590909090909"/>
      <point x="130.5" y="188.9318181818182"/>
      <point x="130.5" y="188.9318181818182" type="curve"/>
      <point x="64.8409090909091" y="194.9318181818182" type="line"/>
      <point x="27.613636363636363" y="37.18181818181818" type="line"/>
      <point x="90.4090909090909" y="1.4090909090909092"/>
      <point x="164.63636363636363" y="-15.0"/>
    </contour>
  </outline>
</glyph>
<glyph name="T" format="2">
  <advance width="642.625"/>
  <unicode hex="0054"/>
  <anchor x="281.45454545454544" y="0.0" name="bottom"/>
  <anchor x="331.45454545454544" y="353.0" name="center"/>
  <anchor x="391.20454545454544" y="720.0" name="top"/>
  <outline>
    <contour>
      <point x="141.1818181818182" y="-5.0" type="line"/>
      <point x="186.79545454545453" y="-3.0"/>
      <point x="262.8181818181818" y="0.0"/>
      <point x="287.6363636363636" y="0.0" type="curve" smooth="yes"/>
      <point x="422.09090909090907" y="0.0" type="line"/>
      <point x="436.29545454545456" y="55.65909090909091" type="line"/>
      <point x="304.8863636363636" y="66.27272727272727" type="line"/>
      <point x="343.3863636363636" y="29.454545454545453" type="line"/>
      <point x="341.59090909090907" y="59.61363636363637"/>
      <point x="347.77272727272725" y="130.8181818181818"/>
      <point x="352.3863636363636" y="169.29545454545453" type="curve" smooth="yes"/>
      <point x="406.5681818181818" y="538.6136363636364" type="line"/>
      <point x="412.5681818181818" y="579.6136363636364"/>
      <point x="430.1818181818182" y="653.75"/>
      <point x="437.5681818181818" y="677.9318181818181" type="curve"/>
      <point x="316.3181818181818" y="677.9318181818181" type="line"/>
      <point x="317.1136363636364" y="654.3181818181819"/>
      <point x="316.3181818181818" y="585.9318181818181"/>
      <point x="312.5" y="562.5909090909091" type="curve" smooth="yes"/>
      <point x="250.54545454545453" y="139.29545454545453" type="line" smooth="yes"/>
      <point x="247.3409090909091" y="119.06818181818181"/>
      <point x="228.54545454545453" y="53.5"/>
      <point x="221.75" y="27.113636363636363" type="curve"/>
      <point x="269.6363636363636" y="70.27272727272727" type="line"/>
      <point x="143.5909090909091" y="47.27272727272727" type="line"/>
    </contour>
    <contour>
      <point x="130.8409090909091" y="521.3409090909091" type="line"/>
      <point x="136.4318181818182" y="546.7045454545455"/>
      <point x="148.8409090909091" y="591.1363636363636"/>
      <point x="156.02272727272728" y="605.1136363636364" type="curve" smooth="yes"/>
      <point x="160.61363636363637" y="615.0909090909091"/>
      <point x="190.38636363636363" y="657.75"/>
      <point x="204.1818181818182" y="677.7954545454545" type="curve"/>
      <point x="140.13636363636363" y="640.5" type="line"/>
      <point x="164.5681818181818" y="642.5"/>
      <point x="223.0" y="646.7045454545455"/>
      <point x="257.79545454545456" y="646.7045454545455" type="curve" smooth="yes"/>
      <point x="486.5" y="646.7045454545455" type="line" smooth="yes"/>
      <point x="512.5227272727273" y="646.7045454545455"/>
      <point x="562.2954545454545" y="642.7045454545455"/>
      <point x="582.3409090909091" y="640.5" type="curve"/>
      <point x="548.2954545454545" y="672.4318181818181" type="line"/>
      <point x="563.6590909090909" y="652.5909090909091"/>
      <point x="577.6590909090909" y="612.5227272727273"/>
      <point x="577.8636363636364" y="604.9090909090909" type="curve" smooth="yes"/>
      <point x="578.0681818181819" y="590.5227272727273"/>
      <point x="578.4545454545455" y="546.7045454545455"/>
      <point x="577.6590909090909" y="521.3409090909091" type="curve"/>
      <point x="635.9090909090909" y="526.3409090909091" type="line"/>
      <point x="652.1136363636364" y="692.0" type="line"/>
      <point x="636.1136363636364" y="710.0" type="line"/>
      <point x="598.7045454545455" y="708.0"/>
      <point x="540.7045454545455" y="705.0"/>
      <point x="523.5" y="705.0" type="curve" smooth="yes"/>
      <point x="237.20454545454547" y="705.0" type="line" smooth="yes"/>
      <point x="220.20454545454547" y="705.0"/>
      <point x="163.79545454545453" y="708.0"/>
      <point x="126.79545454545455" y="710.0" type="curve"/>
      <point x="105.38636363636364" y="692.0" type="line"/>
      <point x="73.38636363636364" y="526.3409090909091" type="line"/>
    </contour>
  </outline>
</glyph>
<glyph name="U" format="2">
  <advance width="730.25"/>
  <unicode hex="0055"/>
  <anchor x="321.29545454545456" y="0.0" name="bottom"/>
  <anchor x="610.5" y="460.0" name="horn"/>
  <anchor x="434.70454545454544" y="0.0" name="ogonek"/>
  <anchor x="436.6136363636364" y="720.0" name="top"/>
  <anchor x="753.3636363636364" y="705.0" name="topright"/>
  <outline>
    <contour>
      <point x="318.09090909090907" y="-15.0" type="curve" smooth="yes"/>
      <point x="485.75" y="-15.0"/>
      <point x="585.8181818181819" y="94.5909090909091"/>
      <point x="611.0227272727273" y="266.40909090909093" type="curve" smooth="yes"/>
      <point x="651.0227272727273" y="538.6136363636364" type="line" smooth="yes"/>
      <point x="656.0227272727273" y="574.7954545454545"/>
      <point x="676.2045454545455" y="653.8863636363636"/>
      <point x="680.4318181818181" y="672.75" type="curve"/>
      <point x="635.1136363636364" y="638.9090909090909" type="line"/>
      <point x="749.3636363636364" y="649.3181818181819" type="line"/>
      <point x="753.1818181818181" y="710.0" type="line"/>
      <point x="711.1363636363636" y="708.0"/>
      <point x="652.9090909090909" y="705.0"/>
      <point x="627.25" y="705.0" type="curve" smooth="yes"/>
      <point x="609.0454545454545" y="705.0"/>
      <point x="555.0454545454545" y="708.0"/>
      <point x="519.0454545454545" y="710.0" type="curve"/>
      <point x="505.6363636363636" y="654.3181818181819" type="line"/>
      <point x="616.8863636363636" y="635.5" type="line"/>
      <point x="578.3863636363636" y="670.3863636363636" type="line"/>
      <point x="578.3863636363636" y="652.5909090909091"/>
      <point x="580.3863636363636" y="587.7727272727273"/>
      <point x="577.1590909090909" y="562.5909090909091" type="curve" smooth="yes"/>
      <point x="532.5909090909091" y="265.77272727272725" type="line" smooth="yes"/>
      <point x="514.2045454545455" y="142.27272727272728"/>
      <point x="448.70454545454544" y="53.59090909090909"/>
      <point x="334.3636363636364" y="53.59090909090909" type="curve" smooth="yes"/>
      <point x="242.8181818181818" y="53.59090909090909"/>
      <point x="197.4318181818182" y="117.54545454545455"/>
      <point x="197.4318181818182" y="211.86363636363637" type="curve" smooth="yes"/>
      <point x="198.22727272727272" y="243.8181818181818"/>
      <point x="203.02272727272728" y="273.77272727272725"/>
      <point x="241.63636363636363" y="538.6136363636364" type="curve" smooth="yes"/>
      <point x="246.63636363636363" y="575.0"/>
      <point x="266.4318181818182" y="653.7045454545455"/>
      <point x="271.04545454545456" y="673.75" type="curve"/>
      <point x="224.9318181818182" y="638.9090909090909" type="line"/>
      <point x="338.3863636363636" y="649.3181818181819" type="line"/>
      <point x="343.79545454545456" y="710.0" type="line"/>
      <point x="298.54545454545456" y="708.0"/>
      <point x="233.70454545454547" y="705.0"/>
      <point x="208.04545454545453" y="705.0" type="curve" smooth="yes"/>
      <point x="190.04545454545453" y="705.0"/>
      <point x="131.02272727272728" y="708.0"/>
      <point x="92.61363636363636" y="710.0" type="curve"/>
      <point x="79.20454545454545" y="654.3181818181819" type="line"/>
      <point x="189.6590909090909" y="635.5" type="line"/>
      <point x="151.1590909090909" y="672.75" type="line"/>
      <point x="151.1590909090909" y="661.1363636363636"/>
      <point x="151.36363636363637" y="587.7727272727273"/>
      <point x="147.3409090909091" y="562.5909090909091" type="curve" smooth="yes"/>
      <point x="104.77272727272727" y="274.77272727272725"/>
      <point x="98.18181818181819" y="243.0"/>
      <point x="98.38636363636364" y="204.02272727272728" type="curve" smooth="yes"/>
      <point x="98.38636363636364" y="71.4090909090909"/>
      <point x="171.20454545454547" y="-15.0"/>
    </contour>
  </outline>
</glyph>
<glyph name="V" format="2">
  <advance width="663.625"/>
  <unicode hex="0056"/>
  <anchor x="289.04545454545456" y="0.0" name="bottom"/>
  <anchor x="390.04545454545456" y="720.0" name="top"/>
  <outline>
    <contour>
      <point x="266.9318181818182" y="0.0" type="line"/>
      <point x="333.9318181818182" y="0.0" type="line"/>
      <point x="593.3863636363636" y="538.6136363636364" type="line" smooth="yes"/>
      <point x="611.0" y="574.6363636363636"/>
      <point x="658.3863636363636" y="649.1590909090909"/>
      <point x="672.3636363636364" y="664.75" type="curve"/>
      <point x="617.25" y="636.7045454545455" type="line"/>
      <point x="681.3409090909091" y="649.3181818181819" type="line"/>
      <point x="686.75" y="710.0" type="line"/>
      <point x="647.7045454545455" y="708.0"/>
      <point x="606.8181818181819" y="705.0"/>
      <point x="587.1818181818181" y="705.0" type="curve" smooth="yes"/>
      <point x="570.5909090909091" y="705.0"/>
      <point x="495.04545454545456" y="708.0"/>
      <point x="458.45454545454544" y="710.0" type="curve"/>
      <point x="444.04545454545456" y="653.5227272727273" type="line"/>
      <point x="590.8409090909091" y="635.2954545454545" type="line"/>
      <point x="559.5681818181819" y="663.1818181818181" type="line"/>
      <point x="555.1590909090909" y="646.9545454545455"/>
      <point x="535.6818181818181" y="584.8181818181819"/>
      <point x="526.0681818181819" y="562.7954545454545" type="curve" smooth="yes"/>
      <point x="313.45454545454544" y="117.93181818181819" type="line"/>
      <point x="338.5" y="115.52272727272728" type="line"/>
      <point x="247.8181818181818" y="539.4090909090909" type="line" smooth="yes"/>
      <point x="239.63636363636363" y="573.7727272727273"/>
      <point x="235.04545454545456" y="653.5454545454545"/>
      <point x="234.25" y="677.9545454545455" type="curve"/>
      <point x="197.54545454545453" y="638.9090909090909" type="line"/>
      <point x="341.5" y="649.3181818181819" type="line"/>
      <point x="345.90909090909093" y="710.0" type="line"/>
      <point x="299.0681818181818" y="708.0"/>
      <point x="211.88636363636363" y="705.0"/>
      <point x="184.8409090909091" y="705.0" type="curve" smooth="yes"/>
      <point x="167.4318181818182" y="705.0"/>
      <point x="130.4090909090909" y="708.0"/>
      <point x="92.79545454545455" y="710.0" type="curve"/>
      <point x="79.38636363636364" y="654.3181818181819" type="line"/>
      <point x="149.52272727272728" y="636.2954545454545" type="line"/>
      <point x="101.04545454545455" y="671.0909090909091" type="line"/>
      <point x="107.63636363636364" y="652.2954545454545"/>
      <point x="133.4090909090909" y="583.8636363636364"/>
      <point x="138.02272727272728" y="562.5909090909091" type="curve" smooth="yes"/>
    </contour>
  </outline>
</glyph>
<glyph name="W" format="2">
  <advance width="990.875"/>
  <unicode hex="0057"/>
  <anchor x="458.0" y="0.0" name="bottom"/>
  <anchor x="544.0" y="705.0" name="top"/>
  <outline>
    <contour>
      <point x="243.29545454545453" y="0.0" type="line"/>
      <point x="310.5" y="0.0" type="line"/>
      <point x="541.0227272727273" y="533.3863636363636" type="line"/>
      <point x="519.5681818181819" y="536.3863636363636" type="line"/>
      <point x="611.8863636363636" y="0.0" type="line"/>
      <point x="678.8863636363636" y="0.0" type="line"/>
      <point x="915.3181818181819" y="538.6136363636364" type="line" smooth="yes"/>
      <point x="931.1136363636364" y="574.2045454545455"/>
      <point x="976.2954545454545" y="643.5681818181819"/>
      <point x="991.8863636363636" y="664.75" type="curve"/>
      <point x="937.5909090909091" y="636.7045454545455" type="line"/>
      <point x="1009.1818181818181" y="649.3181818181819" type="line"/>
      <point x="1014.5909090909091" y="710.0" type="line"/>
      <point x="975.5454545454545" y="708.0"/>
      <point x="927.1590909090909" y="705.0"/>
      <point x="908.3181818181819" y="705.0" type="curve" smooth="yes"/>
      <point x="890.9318181818181" y="705.0"/>
      <point x="824.1363636363636" y="708.0"/>
      <point x="787.5454545454545" y="710.0" type="curve"/>
      <point x="773.1363636363636" y="653.5227272727273" type="line"/>
      <point x="911.1818181818181" y="635.2954545454545" type="line"/>
      <point x="879.9090909090909" y="663.1818181818181" type="line"/>
      <point x="875.5" y="646.75"/>
      <point x="855.4318181818181" y="584.0"/>
      <point x="846.4318181818181" y="562.5909090909091" type="curve" smooth="yes"/>
      <point x="660.2045454545455" y="116.93181818181819" type="line"/>
      <point x="680.8409090909091" y="115.31818181818181" type="line"/>
      <point x="593.5454545454545" y="684.3636363636364" type="line"/>
      <point x="534.3181818181819" y="684.3636363636364" type="line"/>
      <point x="291.6136363636364" y="117.93181818181819" type="line"/>
      <point x="311.45454545454544" y="115.31818181818181" type="line"/>
      <point x="253.75" y="539.4090909090909" type="line" smooth="yes"/>
      <point x="249.1590909090909" y="572.5909090909091"/>
      <point x="243.0" y="653.9318181818181"/>
      <point x="242.20454545454547" y="677.9545454545455" type="curve"/>
      <point x="205.5" y="638.9090909090909" type="line"/>
      <point x="340.70454545454544" y="649.3181818181819" type="line"/>
      <point x="345.1136363636364" y="710.0" type="line"/>
      <point x="298.27272727272725" y="708.0"/>
      <point x="219.8409090909091" y="705.0"/>
      <point x="192.79545454545453" y="705.0" type="curve" smooth="yes"/>
      <point x="175.38636363636363" y="705.0"/>
      <point x="129.61363636363637" y="708.0"/>
      <point x="92.0" y="710.0" type="curve"/>
      <point x="78.5909090909091" y="654.3181818181819" type="line"/>
      <point x="156.6818181818182" y="636.2954545454545" type="line"/>
      <point x="109.0" y="671.0909090909091" type="line"/>
      <point x="115.79545454545455" y="651.6818181818181"/>
      <point x="140.3409090909091" y="583.6590909090909"/>
      <point x="143.95454545454547" y="562.5909090909091" type="curve" smooth="yes"/>
    </contour>
  </outline>
</glyph>
<glyph name="X" format="2">
  <advance width="736.375"/>
  <unicode hex="0058"/>
  <anchor x="339.95563636363636" y="0.0" name="bottom"/>
  <anchor x="425.2753409090909" y="705.0" name="top"/>
  <outline>
    <contour>
      <point x="8.409090909090908" y="-5.0" type="line"/>
      <point x="55.38636363636363" y="-3.0"/>
      <point x="123.95454545454545" y="0.0"/>
      <point x="150.9318181818182" y="0.0" type="curve" smooth="yes"/>
      <point x="249.20454545454547" y="0.0" type="line"/>
      <point x="261.8181818181818" y="55.86363636363637" type="line"/>
      <point x="150.63636363636363" y="70.45454545454545" type="line"/>
      <point x="178.6818181818182" y="47.56818181818182" type="line"/>
      <point x="188.9090909090909" y="66.20454545454545"/>
      <point x="221.0909090909091" y="117.77272727272727"/>
      <point x="236.29545454545453" y="136.38636363636363" type="curve" smooth="yes"/>
      <point x="388.02272727272725" y="327.5" type="line"/>
      <point x="345.3181818181818" y="330.90909090909093" type="line"/>
      <point x="433.90909090909093" y="164.70454545454547" type="line" smooth="yes"/>
      <point x="451.8863636363636" y="129.75"/>
      <point x="478.25" y="69.77272727272727"/>
      <point x="478.8863636363636" y="47.95454545454545" type="curve"/>
      <point x="513.5454545454545" y="74.25" type="line"/>
      <point x="404.5681818181818" y="45.88636363636364" type="line"/>
      <point x="401.95454545454544" y="-5.0" type="line"/>
      <point x="455.1363636363636" y="-3.0"/>
      <point x="529.3181818181819" y="0.0"/>
      <point x="562.5" y="0.0" type="curve" smooth="yes"/>
      <point x="661.4545454545455" y="0.0" type="line"/>
      <point x="673.8636363636364" y="55.86363636363637" type="line"/>
      <point x="575.8181818181819" y="71.25" type="line"/>
      <point x="625.1136363636364" y="50.63636363636363" type="line"/>
      <point x="609.0" y="70.61363636363636"/>
      <point x="572.75" y="118.43181818181819"/>
      <point x="562.75" y="137.8181818181818" type="curve" smooth="yes"/>
      <point x="418.29545454545456" y="403.52272727272725" type="line"/>
      <point x="412.6818181818182" y="338.15909090909093" type="line"/>
      <point x="568.0" y="540.5" type="line" smooth="yes"/>
      <point x="594.3636363636364" y="574.4545454545455"/>
      <point x="667.0909090909091" y="638.5681818181819"/>
      <point x="682.7045454545455" y="650.3863636363636" type="curve"/>
      <point x="633.3181818181819" y="637.7045454545455" type="line"/>
      <point x="740.4318181818181" y="649.3181818181819" type="line"/>
      <point x="745.6363636363636" y="710.0" type="line"/>
      <point x="704.0227272727273" y="708.0"/>
      <point x="650.7727272727273" y="705.0"/>
      <point x="619.2045454545455" y="705.0" type="curve" smooth="yes"/>
      <point x="590.4545454545455" y="705.0"/>
      <point x="540.6363636363636" y="708.0"/>
      <point x="501.25" y="710.0" type="curve"/>
      <point x="487.04545454545456" y="653.3181818181819" type="line"/>
      <point x="595.0" y="635.1136363636364" type="line"/>
      <point x="567.1590909090909" y="657.6363636363636" type="line"/>
      <point x="556.5454545454545" y="642.3863636363636"/>
      <point x="523.3181818181819" y="587.3863636363636"/>
      <point x="508.3181818181818" y="567.1818181818181" type="curve" smooth="yes"/>
      <point x="380.6136363636364" y="395.29545454545456" type="line"/>
      <point x="421.90909090909093" y="391.8863636363636" type="line"/>
      <point x="344.77272727272725" y="538.6136363636364" type="line" smooth="yes"/>
      <point x="325.1818181818182" y="574.8181818181819"/>
      <point x="306.1818181818182" y="641.9545454545455"/>
      <point x="304.5681818181818" y="655.0" type="curve"/>
      <point x="268.29545454545456" y="638.9090909090909" type="line"/>
      <point x="381.25" y="649.1136363636364" type="line"/>
      <point x="385.65909090909093" y="710.0" type="line"/>
      <point x="336.84090909090907" y="708.0"/>
      <point x="278.77272727272725" y="705.0"/>
      <point x="240.79545454545453" y="705.0" type="curve" smooth="yes"/>
      <point x="209.63636363636363" y="705.0"/>
      <point x="158.0" y="708.0"/>
      <point x="116.20454545454545" y="710.0" type="curve"/>
      <point x="102.5909090909091" y="654.3181818181819" type="line"/>
      <point x="212.20454545454547" y="638.2954545454545" type="line"/>
      <point x="164.0681818181818" y="659.1818181818181" type="line"/>
      <point x="175.13636363636363" y="643.2727272727273"/>
      <point x="203.9090909090909" y="590.5227272727273"/>
      <point x="217.52272727272728" y="565.7045454545455" type="curve" smooth="yes"/>
      <point x="349.34090909090907" y="319.8636363636364" type="line"/>
      <point x="355.95454545454544" y="383.6363636363636" type="line"/>
      <point x="179.11363636363637" y="166.5909090909091" type="line" smooth="yes"/>
      <point x="149.9318181818182" y="131.4090909090909"/>
      <point x="82.3409090909091" y="71.61363636363636"/>
      <point x="60.13636363636363" y="51.20454545454545" type="curve"/>
      <point x="109.68181818181819" y="72.45454545454545" type="line"/>
      <point x="11.613636363636363" y="45.68181818181818" type="line"/>
    </contour>
  </outline>
</glyph>
<glyph name="Y" format="2">
  <advance width="640.125"/>
  <unicode hex="0059"/>
  <anchor x="278.52272727272725" y="0.0" name="bottom"/>
  <anchor x="379.52272727272725" y="720.0" name="top"/>
  <anchor x="87.0" y="705.0" name="topleft"/>
  <outline>
    <contour>
      <point x="279.09090909090907" y="233.9090909090909" type="line"/>
      <point x="345.29545454545456" y="233.9090909090909" type="line"/>
      <point x="542.9545454545455" y="538.6136363636364" type="line" smooth="yes"/>
      <point x="566.5454545454545" y="575.0"/>
      <point x="627.5227272727273" y="647.9545454545455"/>
      <point x="640.3181818181819" y="664.75" type="curve"/>
      <point x="586.0" y="636.7045454545455" type="line"/>
      <point x="658.8409090909091" y="649.3181818181819" type="line"/>
      <point x="664.25" y="710.0" type="line"/>
      <point x="625.4090909090909" y="708.0"/>
      <point x="575.3636363636364" y="705.0"/>
      <point x="555.9318181818181" y="705.0" type="curve" smooth="yes"/>
      <point x="539.3409090909091" y="705.0"/>
      <point x="482.54545454545456" y="708.0"/>
      <point x="445.95454545454544" y="710.0" type="curve"/>
      <point x="431.75" y="653.5227272727273" type="line"/>
      <point x="559.7954545454545" y="635.2954545454545" type="line"/>
      <point x="525.9318181818181" y="663.1818181818181" type="line"/>
      <point x="522.3181818181819" y="646.75"/>
      <point x="487.25" y="583.0"/>
      <point x="475.04545454545456" y="562.7954545454545" type="curve" smooth="yes"/>
      <point x="320.3636363636364" y="313.40909090909093" type="line"/>
      <point x="354.25" y="310.0" type="line"/>
      <point x="266.84090909090907" y="540.8863636363636" type="line" smooth="yes"/>
      <point x="257.45454545454544" y="566.25"/>
      <point x="241.88636363636363" y="652.5681818181819"/>
      <point x="241.88636363636363" y="677.9545454545455" type="curve"/>
      <point x="206.54545454545453" y="638.9090909090909" type="line"/>
      <point x="331.75" y="649.3181818181819" type="line"/>
      <point x="336.15909090909093" y="710.0" type="line"/>
      <point x="289.3181818181818" y="708.0"/>
      <point x="221.27272727272728" y="705.0"/>
      <point x="193.8409090909091" y="705.0" type="curve" smooth="yes"/>
      <point x="177.02272727272728" y="705.0"/>
      <point x="129.61363636363637" y="708.0"/>
      <point x="92.0" y="710.0" type="curve"/>
      <point x="78.5909090909091" y="654.3181818181819" type="line"/>
      <point x="158.3181818181818" y="636.2954545454545" type="line"/>
      <point x="107.43181818181819" y="671.0909090909091" type="line"/>
      <point x="117.02272727272727" y="652.5"/>
      <point x="151.86363636363637" y="583.0454545454545"/>
      <point x="158.88636363636363" y="563.0" type="curve" smooth="yes"/>
    </contour>
    <contour>
      <point x="142.9090909090909" y="-5.0" type="line"/>
      <point x="187.9318181818182" y="-3.0"/>
      <point x="263.75" y="0.0"/>
      <point x="289.3636363636364" y="0.0" type="curve" smooth="yes"/>
      <point x="424.02272727272725" y="0.0" type="line"/>
      <point x="438.02272727272725" y="55.65909090909091" type="line"/>
      <point x="306.6136363636364" y="66.27272727272727" type="line"/>
      <point x="345.1136363636364" y="29.454545454545453" type="line"/>
      <point x="343.52272727272725" y="59.61363636363637"/>
      <point x="348.5" y="130.4090909090909"/>
      <point x="354.1136363636364" y="169.29545454545453" type="curve" smooth="yes"/>
      <point x="375.1136363636364" y="313.6818181818182" type="line"/>
      <point x="278.27272727272725" y="313.6818181818182" type="line"/>
      <point x="252.27272727272728" y="139.29545454545453" type="line" smooth="yes"/>
      <point x="249.0681818181818" y="118.86363636363636"/>
      <point x="229.6818181818182" y="53.90909090909091"/>
      <point x="222.6818181818182" y="27.113636363636363" type="curve"/>
      <point x="271.3636363636364" y="70.27272727272727" type="line"/>
      <point x="145.3181818181818" y="47.27272727272727" type="line"/>
    </contour>
  </outline>
</glyph>
<glyph name="Z" format="2">
  <advance width="590.625"/>
  <unicode hex="005A"/>
  <anchor x="251.3409090909091" y="0.0" name="bottom"/>
  <anchor x="310.09090909090907" y="353.0" name="center"/>
  <anchor x="351.09090909090907" y="720.0" name="top"/>
  <outline>
    <contour>
      <point x="475.77272727272725" y="-4.0" type="curve"/>
      <point x="496.3863636363636" y="14.0" type="line"/>
      <point x="532.7954545454545" y="176.88636363636363" type="line"/>
      <point x="478.54545454545456" y="181.88636363636363" type="line"/>
      <point x="473.75" y="165.0909090909091"/>
      <point x="461.95454545454544" y="121.75"/>
      <point x="455.15909090909093" y="106.95454545454545" type="curve" smooth="yes"/>
      <point x="449.3636363636364" y="93.1590909090909"/>
      <point x="427.1363636363636" y="64.68181818181819"/>
      <point x="410.70454545454544" y="44.81818181818182" type="curve"/>
      <point x="474.59090909090907" y="77.31818181818181" type="line"/>
      <point x="456.3636363636364" y="73.11363636363636"/>
      <point x="382.3863636363636" y="60.31818181818182"/>
      <point x="344.5681818181818" y="60.31818181818182" type="curve" smooth="yes"/>
      <point x="114.04545454545455" y="60.31818181818182" type="line"/>
      <point x="139.11363636363637" y="38.86363636363637" type="line"/>
      <point x="167.52272727272728" y="82.0909090909091"/>
      <point x="207.3409090909091" y="147.13636363636363"/>
      <point x="225.36363636363637" y="171.5681818181818" type="curve" smooth="yes"/>
      <point x="458.3636363636364" y="490.8863636363636" type="line" smooth="yes"/>
      <point x="487.3863636363636" y="531.9090909090909"/>
      <point x="544.9090909090909" y="599.0454545454545"/>
      <point x="583.9545454545455" y="646.9090909090909" type="curve"/>
      <point x="584.1590909090909" y="705.0" type="line"/>
      <point x="257.77272727272725" y="705.0" type="line" smooth="yes"/>
      <point x="240.1818181818182" y="705.0"/>
      <point x="184.38636363636363" y="708.4090909090909"/>
      <point x="147.77272727272728" y="710.8181818181819" type="curve"/>
      <point x="126.56818181818181" y="692.8181818181819" type="line"/>
      <point x="94.77272727272727" y="526.3409090909091" type="line"/>
      <point x="153.8181818181818" y="521.3409090909091" type="line"/>
      <point x="159.61363636363637" y="543.9318181818181"/>
      <point x="171.4090909090909" y="589.2954545454545"/>
      <point x="177.79545454545453" y="603.8636363636364" type="curve" smooth="yes"/>
      <point x="182.20454545454547" y="612.8863636363636"/>
      <point x="204.8181818181818" y="646.1363636363636"/>
      <point x="217.45454545454547" y="664.4090909090909" type="curve"/>
      <point x="182.54545454545453" y="640.2727272727273" type="line"/>
      <point x="193.54545454545453" y="641.0681818181819"/>
      <point x="243.95454545454547" y="646.2727272727273"/>
      <point x="279.0" y="646.2727272727273" type="curve" smooth="yes"/>
      <point x="495.77272727272725" y="646.2727272727273" type="line"/>
      <point x="470.70454545454544" y="668.1363636363636" type="line"/>
      <point x="444.90909090909093" y="624.9318181818181"/>
      <point x="410.1136363636364" y="568.1136363636364"/>
      <point x="386.3181818181818" y="536.3181818181819" type="curve" smooth="yes"/>
      <point x="152.4318181818182" y="220.86363636363637" type="line" smooth="yes"/>
      <point x="131.79545454545453" y="192.61363636363637"/>
      <point x="69.06818181818181" y="112.13636363636364"/>
      <point x="23.431818181818183" y="58.88636363636364" type="curve"/>
      <point x="22.431818181818183" y="0.0" type="line"/>
      <point x="365.77272727272725" y="0.0" type="line" smooth="yes"/>
      <point x="391.1363636363636" y="0.0"/>
      <point x="438.77272727272725" y="-2.0"/>
    </contour>
  </outline>
</glyph>
<glyph name="bracketleft" format="2">
  <advance width="405.0"/>
  <unicode hex="005B"/>
  <outline>
    <contour>
      <point x="283.20454545454544" y="-107.0" type="line"/>
      <point x="291.8181818181818" y="-60.88636363636363" type="line"/>
      <point x="149.8409090909091" y="-43.88636363636363" type="line"/>
      <point x="181.5681818181818" y="-88.8409090909091" type="line"/>
      <point x="179.1818181818182" y="-39.38636363636363"/>
      <point x="181.1818181818182" y="29.5"/>
      <point x="185.5681818181818" y="63.79545454545455" type="curve" smooth="yes"/>
      <point x="257.5681818181818" y="653.7954545454545" type="line" smooth="yes"/>
      <point x="261.15909090909093" y="681.75"/>
      <point x="276.59090909090907" y="753.0454545454545"/>
      <point x="291.77272727272725" y="807.4318181818181" type="curve"/>
      <point x="248.4090909090909" y="765.8863636363636" type="line"/>
      <point x="395.77272727272725" y="783.8863636363636" type="line"/>
      <point x="397.59090909090907" y="829.0" type="line"/>
      <point x="215.02272727272728" y="825.0" type="line"/>
      <point x="192.79545454545453" y="806.9545454545455" type="line"/>
      <point x="188.8181818181818" y="739.0681818181819"/>
      <point x="179.97727272727272" y="625.5909090909091"/>
      <point x="177.97727272727272" y="606.2045454545455" type="curve" smooth="yes"/>
      <point x="118.77272727272727" y="121.02272727272727" type="line" smooth="yes"/>
      <point x="116.77272727272727" y="101.02272727272727"/>
      <point x="90.97727272727273" y="-41.52272727272727"/>
      <point x="84.4090909090909" y="-80.54545454545455" type="curve"/>
      <point x="102.22727272727273" y="-103.0" type="line"/>
    </contour>
  </outline>
</glyph>
<glyph name="backslash" format="2">
  <advance width="388.5"/>
  <unicode hex="005C"/>
  <outline>
    <contour>
      <point x="270.15909090909093" y="-66.5909090909091" type="line"/>
      <point x="341.1136363636364" y="-45.34090909090909" type="line"/>
      <point x="143.3409090909091" y="773.0" type="line"/>
      <point x="73.38636363636364" y="751.75" type="line"/>
    </contour>
  </outline>
</glyph>
<glyph name="bracketright" format="2">
  <advance width="404.0"/>
  <unicode hex="005D"/>
  <outline>
    <contour>
      <point x="148.79545454545453" y="829.0" type="line"/>
      <point x="140.1818181818182" y="782.8863636363636" type="line"/>
      <point x="282.15909090909093" y="765.8863636363636" type="line"/>
      <point x="250.4318181818182" y="810.8409090909091" type="line"/>
      <point x="252.8181818181818" y="760.9772727272727"/>
      <point x="250.8181818181818" y="692.5"/>
      <point x="246.4318181818182" y="658.2045454545455" type="curve" smooth="yes"/>
      <point x="174.4318181818182" y="68.20454545454545" type="line" smooth="yes"/>
      <point x="170.63636363636363" y="40.25"/>
      <point x="155.02272727272728" y="-33.79545454545455"/>
      <point x="140.22727272727272" y="-85.43181818181819" type="curve"/>
      <point x="183.5909090909091" y="-43.88636363636363" type="line"/>
      <point x="36.22727272727273" y="-61.88636363636363" type="line"/>
      <point x="34.40909090909091" y="-107.0" type="line"/>
      <point x="216.97727272727272" y="-103.0" type="line"/>
      <point x="239.20454545454547" y="-84.95454545454545" type="line"/>
      <point x="243.1818181818182" y="-17.272727272727273"/>
      <point x="251.22727272727272" y="95.79545454545455"/>
      <point x="254.02272727272728" y="115.79545454545455" type="curve"/>
      <point x="313.22727272727275" y="600.9772727272727" type="line"/>
      <point x="316.02272727272725" y="620.9772727272727"/>
      <point x="341.02272727272725" y="763.5227272727273"/>
      <point x="347.59090909090907" y="802.5454545454545" type="curve"/>
      <point x="329.77272727272725" y="825.0" type="line"/>
    </contour>
  </outline>
</glyph>
<glyph name="asciicircum" format="2">
  <advance width="701.625"/>
  <unicode hex="005E"/>
  <outline>
    <contour>
      <point x="159.36363636363637" y="313.20454545454544" type="line"/>
      <point x="421.90909090909093" y="643.5227272727273" type="line"/>
      <point x="375.95454545454544" y="643.5227272727273" type="line"/>
      <point x="556.75" y="313.20454545454544" type="line"/>
      <point x="628.8863636363636" y="358.6818181818182" type="line"/>
      <point x="409.84090909090907" y="728.8181818181819" type="line"/>
      <point x="98.04545454545455" y="358.6818181818182" type="line"/>
    </contour>
  </outline>
</glyph>
<glyph name="underscore" format="2">
  <advance width="631.75"/>
  <unicode hex="005F"/>
  <outline>
    <contour>
      <point x="12.0" y="-232.0" type="line"/>
      <point x="499.0" y="-232.0" type="line"/>
      <point x="514.4090909090909" y="-154.5" type="line"/>
      <point x="20.40909090909091" y="-154.5" type="line"/>
    </contour>
  </outline>
</glyph>
<glyph name="a" format="2">
  <advance width="519.875"/>
  <unicode hex="0061"/>
  <anchor x="220.95454545454547" y="0.0" name="bottom"/>
  <anchor x="377.3636363636364" y="0.0" name="ogonek"/>
  <anchor x="290.15909090909093" y="494.0" name="top"/>
  <outline>
    <contour>
      <point x="127.5" y="-11.022727272727273" type="curve" smooth="yes"/>
      <point x="206.86363636363637" y="-11.022727272727273"/>
      <point x="288.15909090909093" y="86.75"/>
      <point x="341.59090909090907" y="210.3181818181818" type="curve"/>
      <point x="335.95454545454544" y="232.6818181818182" type="line"/>
      <point x="323.6136363636364" y="133.5681818181818"/>
      <point x="312.84090909090907" y="67.70454545454545"/>
      <point x="298.75" y="4.590909090909091" type="curve"/>
      <point x="325.0" y="-11.022727272727273" type="line"/>
      <point x="479.8636363636364" y="33.36363636363637" type="line"/>
      <point x="483.0681818181818" y="70.45454545454545" type="line"/>
      <point x="357.1818181818182" y="77.88636363636364" type="line"/>
      <point x="393.52272727272725" y="43.56818181818182" type="line"/>
      <point x="395.9318181818182" y="216.5909090909091"/>
      <point x="423.9318181818182" y="344.6363636363636"/>
      <point x="460.3181818181818" y="492.95454545454544" type="curve"/>
      <point x="434.6363636363636" y="509.02272727272725" type="line"/>
      <point x="354.8181818181818" y="490.3636363636364" type="line"/>
      <point x="352.8181818181818" y="440.3863636363636" type="line" smooth="yes"/>
      <point x="346.6136363636364" y="283.34090909090907"/>
      <point x="222.13636363636363" y="57.52272727272727"/>
      <point x="165.1818181818182" y="57.52272727272727" type="curve" smooth="yes"/>
      <point x="139.0" y="57.52272727272727"/>
      <point x="123.06818181818181" y="97.04545454545455"/>
      <point x="123.06818181818181" y="151.9318181818182" type="curve" smooth="yes"/>
      <point x="123.06818181818181" y="272.1136363636364"/>
      <point x="188.52272727272728" y="449.95454545454544"/>
      <point x="236.25" y="449.95454545454544" type="curve" smooth="yes"/>
      <point x="289.45454545454544" y="449.95454545454544"/>
      <point x="366.02272727272725" y="407.0"/>
      <point x="378.40909090909093" y="401.8181818181818" type="curve"/>
      <point x="383.90909090909093" y="493.59090909090907" type="line"/>
      <point x="363.90909090909093" y="494.59090909090907"/>
      <point x="285.6818181818182" y="509.02272727272725"/>
      <point x="250.86363636363637" y="509.02272727272725" type="curve" smooth="yes"/>
      <point x="153.95454545454547" y="509.02272727272725"/>
      <point x="29.204545454545453" y="295.29545454545456"/>
      <point x="29.204545454545453" y="140.0" type="curve" smooth="yes"/>
      <point x="29.204545454545453" y="43.70454545454545"/>
      <point x="62.54545454545455" y="-11.022727272727273"/>
    </contour>
  </outline>
</glyph>
<glyph name="b" format="2">
  <advance width="484.25"/>
  <unicode hex="0062"/>
  <anchor x="206.75" y="0.0" name="bottom"/>
  <anchor x="285.90909090909093" y="526.9090909090909" name="top"/>
  <outline>
    <contour>
      <point x="52.81818181818182" y="-11.022727272727273" type="line"/>
      <point x="154.9318181818182" y="16.181818181818183" type="line"/>
      <point x="103.54545454545455" y="7.590909090909091" type="line"/>
      <point x="115.3409090909091" y="7.795454545454546"/>
      <point x="198.79545454545456" y="-11.022727272727273"/>
      <point x="234.02272727272728" y="-11.022727272727273" type="curve" smooth="yes"/>
      <point x="329.34090909090907" y="-11.022727272727273"/>
      <point x="454.8863636363636" y="200.3181818181818"/>
      <point x="454.8863636363636" y="358.0" type="curve" smooth="yes"/>
      <point x="454.8863636363636" y="454.29545454545456"/>
      <point x="421.54545454545456" y="507.4318181818182"/>
      <point x="358.1818181818182" y="507.4318181818182" type="curve" smooth="yes"/>
      <point x="282.09090909090907" y="507.4318181818182"/>
      <point x="202.4318181818182" y="417.5681818181818"/>
      <point x="151.95454545454547" y="306.65909090909093" type="curve"/>
      <point x="162.95454545454547" y="313.8636363636364" type="line"/>
      <point x="181.95454545454547" y="443.4318181818182"/>
      <point x="208.25" y="581.1818181818181"/>
      <point x="238.0909090909091" y="749.9545454545455" type="curve"/>
      <point x="214.4318181818182" y="770.0" type="line"/>
      <point x="47.45454545454545" y="741.7727272727273" type="line"/>
      <point x="50.45454545454545" y="702.2954545454545" type="line"/>
      <point x="170.11363636363637" y="684.5" type="line"/>
      <point x="133.77272727272728" y="707.9090909090909" type="line"/>
      <point x="121.61363636363636" y="534.6363636363636"/>
      <point x="75.06818181818181" y="188.25"/>
      <point x="26.568181818181817" y="4.590909090909091" type="curve"/>
    </contour>
    <contour>
      <point x="132.0681818181818" y="56.81818181818182" type="line"/>
      <point x="138.27272727272728" y="213.86363636363637"/>
      <point x="259.3636363636364" y="442.0681818181818"/>
      <point x="319.70454545454544" y="442.0681818181818" type="curve" smooth="yes"/>
      <point x="345.09090909090907" y="442.0681818181818"/>
      <point x="361.6136363636364" y="401.75"/>
      <point x="361.6136363636364" y="346.0681818181818" type="curve" smooth="yes"/>
      <point x="361.6136363636364" y="223.5"/>
      <point x="296.3636363636364" y="48.63636363636364"/>
      <point x="247.8409090909091" y="48.63636363636364" type="curve" smooth="yes"/>
      <point x="203.02272727272728" y="48.63636363636364"/>
      <point x="131.8181818181818" y="83.81818181818181"/>
      <point x="104.54545454545455" y="97.8409090909091" type="curve"/>
    </contour>
  </outline>
</glyph>
<glyph name="c" format="2">
  <advance width="414.75"/>
  <unicode hex="0063"/>
  <anchor x="146.0681818181818" y="0.0" name="bottom"/>
  <anchor x="279.02272727272725" y="494.0" name="top"/>
  <outline>
    <contour>
      <point x="144.6818181818182" y="-11.022727272727273" type="curve" smooth="yes"/>
      <point x="229.6818181818182" y="-11.022727272727273"/>
      <point x="311.90909090909093" y="39.61363636363637"/>
      <point x="367.5" y="131.54545454545453" type="curve"/>
      <point x="334.8181818181818" y="155.63636363636363" type="line"/>
      <point x="285.8181818181818" y="89.93181818181819"/>
      <point x="231.29545454545453" y="54.18181818181818"/>
      <point x="182.38636363636363" y="54.18181818181818" type="curve" smooth="yes"/>
      <point x="144.61363636363637" y="54.18181818181818"/>
      <point x="122.8409090909091" y="88.31818181818181"/>
      <point x="122.8409090909091" y="150.4090909090909" type="curve" smooth="yes"/>
      <point x="122.8409090909091" y="266.8181818181818"/>
      <point x="187.13636363636363" y="440.45454545454544"/>
      <point x="232.5" y="440.45454545454544" type="curve" smooth="yes"/>
      <point x="254.5681818181818" y="440.45454545454544"/>
      <point x="279.04545454545456" y="434.02272727272725"/>
      <point x="361.70454545454544" y="403.04545454545456" type="curve"/>
      <point x="314.8636363636364" y="455.6363636363636" type="line"/>
      <point x="322.02272727272725" y="323.29545454545456" type="line"/>
      <point x="359.52272727272725" y="321.09090909090907" type="line"/>
      <point x="396.90909090909093" y="470.5681818181818" type="line"/>
      <point x="381.45454545454544" y="495.25" type="line"/>
      <point x="313.27272727272725" y="504.02272727272725"/>
      <point x="259.79545454545456" y="509.02272727272725"/>
      <point x="235.3181818181818" y="509.02272727272725" type="curve" smooth="yes"/>
      <point x="149.04545454545453" y="509.02272727272725"/>
      <point x="29.181818181818183" y="294.02272727272725"/>
      <point x="29.181818181818183" y="140.38636363636363" type="curve" smooth="yes"/>
      <point x="29.181818181818183" y="43.38636363636363"/>
      <point x="68.8409090909091" y="-11.022727272727273"/>
    </contour>
  </outline>
</glyph>
<glyph name="d" format="2">
  <advance width="519.75"/>
  <unicode hex="0064"/>
  <anchor x="245.79545454545453" y="0.0" name="bottom"/>
  <anchor x="386.54545454545456" y="604.8863636363636" name="center"/>
  <anchor x="299.90909090909093" y="526.9090909090909" name="top"/>
  <anchor x="547.9318181818181" y="498.77272727272725" name="topright"/>
  <outline>
    <contour>
      <point x="127.5" y="-11.022727272727273" type="curve" smooth="yes"/>
      <point x="207.6590909090909" y="-11.022727272727273"/>
      <point x="288.15909090909093" y="86.75"/>
      <point x="341.59090909090907" y="210.3181818181818" type="curve"/>
      <point x="335.95454545454544" y="228.0909090909091" type="line"/>
      <point x="322.8181818181818" y="127.38636363636364"/>
      <point x="312.84090909090907" y="70.27272727272727"/>
      <point x="299.54545454545456" y="4.7727272727272725" type="curve"/>
      <point x="325.79545454545456" y="-10.840909090909092" type="line"/>
      <point x="479.8636363636364" y="33.36363636363637" type="line"/>
      <point x="483.0681818181818" y="70.45454545454545" type="line"/>
      <point x="356.3863636363636" y="78.06818181818181" type="line"/>
      <point x="392.8636363636364" y="48.38636363636363" type="line"/>
      <point x="391.15909090909093" y="277.79545454545456"/>
      <point x="446.45454545454544" y="502.54545454545456"/>
      <point x="488.54545454545456" y="749.9545454545455" type="curve"/>
      <point x="464.8863636363636" y="770.0" type="line"/>
      <point x="296.45454545454544" y="741.7727272727273" type="line"/>
      <point x="298.65909090909093" y="702.2954545454545" type="line"/>
      <point x="419.1818181818182" y="684.7045454545455" type="line"/>
      <point x="383.04545454545456" y="710.6136363636364" type="line"/>
      <point x="379.65909090909093" y="637.8181818181819"/>
      <point x="368.45454545454544" y="551.8181818181819"/>
      <point x="358.84090909090907" y="477.40909090909093" type="curve"/>
      <point x="352.8181818181818" y="440.3863636363636" type="line"/>
      <point x="346.6136363636364" y="284.1363636363636"/>
      <point x="227.11363636363637" y="57.52272727272727"/>
      <point x="165.1818181818182" y="57.52272727272727" type="curve" smooth="yes"/>
      <point x="139.0" y="57.52272727272727"/>
      <point x="123.06818181818181" y="97.04545454545455"/>
      <point x="123.06818181818181" y="151.9318181818182" type="curve" smooth="yes"/>
      <point x="123.06818181818181" y="272.1136363636364"/>
      <point x="188.52272727272728" y="449.95454545454544"/>
      <point x="236.25" y="449.95454545454544" type="curve" smooth="yes"/>
      <point x="289.45454545454544" y="449.95454545454544"/>
      <point x="366.02272727272725" y="407.0"/>
      <point x="378.40909090909093" y="401.8181818181818" type="curve"/>
      <point x="383.90909090909093" y="493.59090909090907" type="line"/>
      <point x="363.90909090909093" y="494.59090909090907"/>
      <point x="285.6818181818182" y="509.02272727272725"/>
      <point x="250.86363636363637" y="509.02272727272725" type="curve" smooth="yes"/>
      <point x="154.75" y="509.02272727272725"/>
      <point x="27.613636363636363" y="297.6818181818182"/>
      <point x="29.204545454545453" y="140.0" type="curve" smooth="yes"/>
      <point x="30.0" y="43.70454545454545"/>
      <point x="61.75" y="-11.022727272727273"/>
    </contour>
  </outline>
</glyph>
<glyph name="e" format="2">
  <advance width="413.25"/>
  <unicode hex="0065"/>
  <anchor x="131.52272727272728" y="0.0" name="bottom"/>
  <anchor x="232.9090909090909" y="0.0" name="ogonek"/>
  <anchor x="250.8409090909091" y="494.0" name="top"/>
  <outline>
    <contour>
      <point x="145.27272727272728" y="-11.022727272727273" type="curve" smooth="yes"/>
      <point x="229.27272727272728" y="-11.022727272727273"/>
      <point x="312.77272727272725" y="40.02272727272727"/>
      <point x="368.3863636363636" y="131.1590909090909" type="curve"/>
      <point x="335.1136363636364" y="155.25" type="line"/>
      <point x="287.1818181818182" y="91.20454545454545"/>
      <point x="228.36363636363637" y="54.15909090909091"/>
      <point x="181.5909090909091" y="54.15909090909091" type="curve" smooth="yes"/>
      <point x="142.63636363636363" y="54.15909090909091"/>
      <point x="122.02272727272728" y="87.68181818181819"/>
      <point x="122.02272727272728" y="150.8181818181818" type="curve" smooth="yes"/>
      <point x="122.02272727272728" y="270.0"/>
      <point x="190.11363636363637" y="446.8636363636364"/>
      <point x="239.70454545454547" y="446.8636363636364" type="curve" smooth="yes"/>
      <point x="284.27272727272725" y="446.8636363636364"/>
      <point x="303.04545454545456" y="432.8863636363636"/>
      <point x="303.04545454545456" y="402.15909090909093" type="curve" smooth="yes"/>
      <point x="303.04545454545456" y="331.84090909090907"/>
      <point x="222.9090909090909" y="270.0"/>
      <point x="102.93181818181819" y="253.63636363636363" type="curve"/>
      <point x="101.93181818181819" y="207.54545454545453" type="line"/>
      <point x="283.6136363636364" y="237.9090909090909"/>
      <point x="393.65909090909093" y="321.9318181818182"/>
      <point x="393.65909090909093" y="428.77272727272725" type="curve" smooth="yes"/>
      <point x="393.65909090909093" y="481.40909090909093"/>
      <point x="340.84090909090907" y="509.02272727272725"/>
      <point x="245.38636363636363" y="509.02272727272725" type="curve" smooth="yes"/>
      <point x="156.29545454545453" y="509.02272727272725"/>
      <point x="28.568181818181817" y="295.8181818181818"/>
      <point x="28.568181818181817" y="140.38636363636363" type="curve" smooth="yes"/>
      <point x="28.568181818181817" y="39.93181818181818"/>
      <point x="72.06818181818181" y="-11.022727272727273"/>
    </contour>
  </outline>
</glyph>
<glyph name="f" format="2">
  <advance width="315.5"/>
  <unicode hex="0066"/>
  <anchor x="127.70454545454545" y="0.0" name="bottom"/>
  <anchor x="192.6590909090909" y="526.9090909090909" name="top"/>
  <outline>
    <contour>
      <point x="-112.54545454545455" y="-234.20454545454547" type="line"/>
      <point x="11.863636363636363" y="-223.4318181818182"/>
      <point x="111.29545454545455" y="-152.88636363636363"/>
      <point x="141.61363636363637" y="-37.86363636363637" type="curve" smooth="yes"/>
      <point x="167.6818181818182" y="66.04545454545455"/>
      <point x="180.4318181818182" y="266.54545454545456"/>
      <point x="216.29545454545456" y="460.09090909090907" type="curve"/>
      <point x="173.52272727272728" y="424.77272727272725" type="line"/>
      <point x="315.59090909090907" y="424.77272727272725" type="line"/>
      <point x="329.4318181818182" y="481.09090909090907" type="line"/>
      <point x="182.95454545454547" y="481.09090909090907" type="line"/>
      <point x="215.86363636363637" y="449.5" type="line"/>
      <point x="230.1818181818182" y="608.1363636363636"/>
      <point x="245.4090909090909" y="667.1136363636364"/>
      <point x="260.79545454545456" y="689.6818181818181" type="curve" smooth="yes"/>
      <point x="278.1818181818182" y="715.8409090909091"/>
      <point x="326.90909090909093" y="730.0227272727273"/>
      <point x="390.9318181818182" y="727.8181818181819" type="curve"/>
      <point x="408.59090909090907" y="795.4545454545455" type="line"/>
      <point x="292.95454545454544" y="788.8863636363636"/>
      <point x="172.20454545454547" y="721.5681818181819"/>
      <point x="146.0" y="569.0909090909091" type="curve" smooth="yes"/>
      <point x="136.25" y="512.1818181818181"/>
      <point x="136.61363636363637" y="500.3181818181818"/>
      <point x="127.18181818181819" y="494.29545454545456" type="curve" smooth="yes"/>
      <point x="111.18181818181819" y="483.29545454545456"/>
      <point x="56.70454545454545" y="469.70454545454544"/>
      <point x="41.40909090909091" y="466.8636363636364" type="curve"/>
      <point x="37.0" y="424.77272727272725" type="line"/>
      <point x="162.54545454545453" y="424.77272727272725" type="line"/>
      <point x="128.20454545454547" y="451.20454545454544" type="line"/>
      <point x="111.18181818181819" y="251.0681818181818"/>
      <point x="67.8409090909091" y="-77.29545454545455"/>
      <point x="28.772727272727273" y="-128.25" type="curve" smooth="yes"/>
      <point x="15.954545454545455" y="-143.8409090909091"/>
      <point x="-44.29545454545455" y="-165.5681818181818"/>
      <point x="-91.27272727272727" y="-166.5681818181818" type="curve"/>
    </contour>
  </outline>
</glyph>
<glyph name="g" format="2">
  <advance width="492.25"/>
  <unicode hex="0067"/>
  <anchor x="290.95454545454544" y="-68.61363636363636" name="center"/>
  <anchor x="311.34090909090907" y="494.0" name="top"/>
  <outline>
    <contour>
      <point x="-31.113636363636363" y="-215.1590909090909" type="line"/>
      <point x="196.0681818181818" y="-282.20454545454544"/>
      <point x="362.65909090909093" y="-177.13636363636363"/>
      <point x="384.09090909090907" y="8.636363636363637" type="curve" smooth="yes"/>
      <point x="406.09090909090907" y="194.1818181818182"/>
      <point x="427.3181818181818" y="355.77272727272725"/>
      <point x="461.3181818181818" y="492.95454545454544" type="curve"/>
      <point x="436.4318181818182" y="509.02272727272725" type="line"/>
      <point x="356.40909090909093" y="489.75" type="line"/>
      <point x="354.40909090909093" y="440.5681818181818" type="line" smooth="yes"/>
      <point x="348.20454545454544" y="284.3181818181818"/>
      <point x="225.3181818181818" y="57.52272727272727"/>
      <point x="166.77272727272728" y="57.52272727272727" type="curve" smooth="yes"/>
      <point x="139.0" y="57.52272727272727"/>
      <point x="123.06818181818181" y="98.63636363636364"/>
      <point x="123.06818181818181" y="151.9318181818182" type="curve" smooth="yes"/>
      <point x="123.06818181818181" y="272.90909090909093"/>
      <point x="186.13636363636363" y="449.95454545454544"/>
      <point x="237.04545454545453" y="449.95454545454544" type="curve" smooth="yes"/>
      <point x="287.8636363636364" y="449.95454545454544"/>
      <point x="367.6136363636364" y="407.0"/>
      <point x="379.20454545454544" y="401.8181818181818" type="curve"/>
      <point x="385.5" y="493.59090909090907" type="line"/>
      <point x="365.5" y="494.59090909090907"/>
      <point x="284.8863636363636" y="509.02272727272725"/>
      <point x="250.86363636363637" y="509.02272727272725" type="curve" smooth="yes"/>
      <point x="153.1590909090909" y="509.02272727272725"/>
      <point x="29.204545454545453" y="295.29545454545456"/>
      <point x="29.204545454545453" y="140.0" type="curve" smooth="yes"/>
      <point x="29.204545454545453" y="44.5"/>
      <point x="62.54545454545455" y="-11.022727272727273"/>
      <point x="127.5" y="-11.022727272727273" type="curve" smooth="yes"/>
      <point x="207.6590909090909" y="-11.022727272727273"/>
      <point x="288.15909090909093" y="85.1590909090909"/>
      <point x="342.3863636363636" y="210.3181818181818" type="curve"/>
      <point x="335.95454545454544" y="228.0909090909091" type="line"/>
      <point x="322.20454545454544" y="126.5909090909091"/>
      <point x="313.09090909090907" y="64.06818181818181"/>
      <point x="301.6136363636364" y="-7.795454545454546" type="curve"/>
      <point x="298.4318181818182" y="-63.34090909090909"/>
      <point x="286.70454545454544" y="-114.25"/>
      <point x="273.6818181818182" y="-125.86363636363636" type="curve" smooth="yes"/>
      <point x="224.29545454545453" y="-170.63636363636363"/>
      <point x="99.18181818181819" y="-170.20454545454544"/>
      <point x="-0.04545454545454497" y="-135.13636363636363" type="curve"/>
    </contour>
  </outline>
</glyph>
<glyph name="h" format="2">
  <advance width="539.625"/>
  <unicode hex="0068"/>
  <anchor x="230.77272727272728" y="0.0" name="bottom"/>
  <anchor x="185.75" y="604.8863636363636" name="center"/>
  <anchor x="168.52272727272728" y="725.7727272727273" name="top"/>
  <outline>
    <contour>
      <point x="52.43181818181818" y="-11.022727272727273" type="line"/>
      <point x="122.88636363636364" y="4.590909090909091" type="line"/>
      <point x="127.06818181818181" y="41.81818181818182"/>
      <point x="128.86363636363637" y="67.70454545454545"/>
      <point x="135.4318181818182" y="113.68181818181819" type="curve"/>
      <point x="182.70454545454547" y="307.1136363636364"/>
      <point x="285.59090909090907" y="429.54545454545456"/>
      <point x="333.90909090909093" y="429.54545454545456" type="curve" smooth="yes"/>
      <point x="359.27272727272725" y="429.54545454545456"/>
      <point x="365.25" y="403.75"/>
      <point x="365.25" y="376.79545454545456" type="curve" smooth="yes"/>
      <point x="365.25" y="288.3636363636364"/>
      <point x="329.6136363636364" y="129.77272727272728"/>
      <point x="300.1818181818182" y="4.590909090909091" type="curve"/>
      <point x="325.4318181818182" y="-11.022727272727273" type="line"/>
      <point x="498.59090909090907" y="33.36363636363637" type="line"/>
      <point x="501.0" y="70.45454545454545" type="line"/>
      <point x="371.3863636363636" y="78.06818181818181" type="line"/>
      <point x="408.3181818181818" y="44.77272727272727" type="line"/>
      <point x="412.3181818181818" y="179.79545454545453"/>
      <point x="463.3181818181818" y="329.6136363636364"/>
      <point x="463.3181818181818" y="425.4318181818182" type="curve" smooth="yes"/>
      <point x="463.3181818181818" y="471.6363636363636"/>
      <point x="440.09090909090907" y="509.02272727272725"/>
      <point x="389.6818181818182" y="509.02272727272725" type="curve" smooth="yes"/>
      <point x="283.3636363636364" y="509.02272727272725"/>
      <point x="194.54545454545456" y="383.52272727272725"/>
      <point x="152.02272727272728" y="292.5" type="curve"/>
      <point x="158.5909090909091" y="290.1136363636364" type="line"/>
      <point x="180.77272727272728" y="440.3636363636364"/>
      <point x="210.63636363636363" y="601.0681818181819"/>
      <point x="238.0909090909091" y="749.9545454545455" type="curve"/>
      <point x="214.4318181818182" y="770.0" type="line"/>
      <point x="47.45454545454545" y="741.7727272727273" type="line"/>
      <point x="50.45454545454545" y="702.2954545454545" type="line"/>
      <point x="170.11363636363637" y="684.5" type="line"/>
      <point x="133.77272727272728" y="707.9090909090909" type="line"/>
      <point x="121.61363636363636" y="534.6363636363636"/>
      <point x="75.06818181818181" y="188.25"/>
      <point x="26.568181818181817" y="4.590909090909091" type="curve"/>
    </contour>
  </outline>
</glyph>
<glyph name="k" format="2">
  <advance width="508.0"/>
  <unicode hex="006B"/>
  <anchor x="224.79545454545456" y="0.0" name="bottom"/>
  <anchor x="306.45454545454544" y="749.1818181818181" name="top"/>
  <outline>
    <contour>
      <point x="52.84090909090909" y="-11.022727272727273" type="line"/>
      <point x="123.5" y="4.590909090909091" type="line"/>
      <point x="123.9090909090909" y="8.681818181818182"/>
      <point x="133.6590909090909" y="85.93181818181819"/>
      <point x="139.04545454545456" y="123.02272727272728" type="curve"/>
      <point x="178.5681818181818" y="295.20454545454544"/>
      <point x="277.3636363636364" y="430.65909090909093"/>
      <point x="350.9318181818182" y="430.65909090909093" type="curve" smooth="yes"/>
      <point x="366.1363636363636" y="430.65909090909093"/>
      <point x="376.9318181818182" y="419.65909090909093"/>
      <point x="376.9318181818182" y="400.27272727272725" type="curve" smooth="yes"/>
      <point x="376.9318181818182" y="333.1136363636364"/>
      <point x="308.3863636363636" y="269.3636363636364"/>
      <point x="189.70454545454547" y="232.1818181818182" type="curve"/>
      <point x="189.70454545454547" y="193.52272727272728" type="line"/>
      <point x="316.6363636363636" y="-11.022727272727273" type="line"/>
      <point x="462.5681818181818" y="33.36363636363637" type="line"/>
      <point x="466.5681818181818" y="70.45454545454545" type="line"/>
      <point x="339.54545454545456" y="73.52272727272728" type="line"/>
      <point x="392.75" y="56.25" type="line"/>
      <point x="349.3181818181818" y="95.8409090909091"/>
      <point x="294.70454545454544" y="172.0681818181818"/>
      <point x="259.5" y="234.3181818181818" type="curve"/>
      <point x="239.8181818181818" y="206.13636363636363" type="line"/>
      <point x="376.90909090909093" y="245.8409090909091"/>
      <point x="460.25" y="333.15909090909093"/>
      <point x="460.25" y="428.20454545454544" type="curve" smooth="yes"/>
      <point x="460.25" y="478.04545454545456"/>
      <point x="436.8181818181818" y="509.02272727272725"/>
      <point x="391.34090909090907" y="509.02272727272725" type="curve" smooth="yes"/>
      <point x="302.0" y="509.02272727272725"/>
      <point x="210.13636363636363" y="423.1136363636364"/>
      <point x="150.3409090909091" y="283.70454545454544" type="curve"/>
      <point x="159.54545454545453" y="287.09090909090907" type="line"/>
      <point x="180.54545454545453" y="432.45454545454544"/>
      <point x="196.9090909090909" y="509.15909090909093"/>
      <point x="238.88636363636363" y="749.9545454545455" type="curve"/>
      <point x="216.02272727272728" y="770.0" type="line"/>
      <point x="48.25" y="741.7727272727273" type="line"/>
      <point x="49.65909090909091" y="702.2954545454545" type="line"/>
      <point x="170.11363636363637" y="684.5" type="line"/>
      <point x="134.77272727272728" y="712.2045454545455" type="line"/>
      <point x="117.4090909090909" y="487.09090909090907"/>
      <point x="66.79545454545455" y="159.38636363636363"/>
      <point x="26.772727272727273" y="4.590909090909091" type="curve"/>
    </contour>
  </outline>
</glyph>
<glyph name="l" format="2">
  <advance width="257.0"/>
  <unicode hex="006C"/>
  <anchor x="143.04545454545453" y="0.0" name="bottom"/>
  <anchor x="146.04545454545453" y="385.1818181818182" name="center"/>
  <anchor x="335.3863636363636" y="413.1818181818182" name="centerright"/>
  <anchor x="157.95454545454547" y="756.0" name="top"/>
  <anchor x="299.84090909090907" y="498.77272727272725" name="topright"/>
  <outline>
    <contour>
      <point x="52.81818181818182" y="-11.022727272727273" type="line"/>
      <point x="217.02272727272728" y="33.36363636363637" type="line"/>
      <point x="219.4318181818182" y="70.45454545454545" type="line"/>
      <point x="94.1590909090909" y="77.88636363636364" type="line"/>
      <point x="128.9090909090909" y="52.27272727272727" type="line"/>
      <point x="156.4090909090909" y="292.5681818181818"/>
      <point x="198.0" y="520.1363636363636"/>
      <point x="238.6818181818182" y="749.9545454545455" type="curve"/>
      <point x="215.8181818181818" y="770.0" type="line"/>
      <point x="48.04545454545455" y="741.7727272727273" type="line"/>
      <point x="51.04545454545455" y="702.2954545454545" type="line"/>
      <point x="170.70454545454547" y="684.5" type="line"/>
      <point x="134.36363636363637" y="707.9090909090909" type="line"/>
      <point x="122.20454545454545" y="534.6363636363636"/>
      <point x="75.06818181818181" y="188.25"/>
      <point x="26.568181818181817" y="4.590909090909091" type="curve"/>
    </contour>
  </outline>
</glyph>
<glyph name="m" format="2">
  <advance width="837.625"/>
  <unicode hex="006D"/>
  <anchor x="388.15909090909093" y="0.0" name="bottom"/>
  <anchor x="448.15909090909093" y="494.0" name="top"/>
  <outline>
    <contour>
      <point x="77.36363636363636" y="-11.022727272727273" type="line"/>
      <point x="148.02272727272728" y="4.590909090909091" type="line"/>
      <point x="151.61363636363637" y="37.29545454545455"/>
      <point x="156.20454545454547" y="70.0"/>
      <point x="161.38636363636363" y="102.70454545454545" type="curve"/>
      <point x="206.0681818181818" y="298.79545454545456"/>
      <point x="310.20454545454544" y="430.1363636363636"/>
      <point x="359.90909090909093" y="430.1363636363636" type="curve" smooth="yes"/>
      <point x="387.0681818181818" y="430.1363636363636"/>
      <point x="393.04545454545456" y="404.34090909090907"/>
      <point x="393.04545454545456" y="377.3863636363636" type="curve" smooth="yes"/>
      <point x="393.04545454545456" y="291.34090909090907"/>
      <point x="357.20454545454544" y="134.54545454545453"/>
      <point x="325.3863636363636" y="4.590909090909091" type="curve"/>
      <point x="351.6363636363636" y="-11.022727272727273" type="line"/>
      <point x="422.8863636363636" y="4.590909090909091" type="line"/>
      <point x="427.8636363636364" y="46.40909090909091"/>
      <point x="434.4318181818182" y="98.36363636363636"/>
      <point x="438.6136363636364" y="121.68181818181819" type="curve"/>
      <point x="488.04545454545456" y="315.20454545454544"/>
      <point x="587.0454545454545" y="430.1363636363636"/>
      <point x="631.5909090909091" y="430.1363636363636" type="curve" smooth="yes"/>
      <point x="657.75" y="430.1363636363636"/>
      <point x="665.3181818181819" y="405.1363636363636"/>
      <point x="665.3181818181819" y="377.3863636363636" type="curve" smooth="yes"/>
      <point x="665.3181818181819" y="289.75"/>
      <point x="628.0909090909091" y="132.95454545454547"/>
      <point x="597.0681818181819" y="4.590909090909091" type="curve"/>
      <point x="623.9090909090909" y="-11.022727272727273" type="line"/>
      <point x="797.0681818181819" y="33.36363636363637" type="line"/>
      <point x="800.2727272727273" y="70.45454545454545" type="line"/>
      <point x="672.25" y="78.06818181818181" type="line"/>
      <point x="707.5909090909091" y="49.54545454545455" type="line"/>
      <point x="711.5909090909091" y="185.36363636363637"/>
      <point x="761.0" y="330.20454545454544"/>
      <point x="761.0" y="426.8181818181818" type="curve" smooth="yes"/>
      <point x="761.0" y="471.4318181818182"/>
      <point x="740.1590909090909" y="509.02272727272725"/>
      <point x="688.9545454545455" y="509.02272727272725" type="curve" smooth="yes"/>
      <point x="572.8863636363636" y="509.02272727272725"/>
      <point x="491.20454545454544" y="368.79545454545456"/>
      <point x="447.5681818181818" y="285.5" type="curve"/>
      <point x="462.90909090909093" y="284.04545454545456" type="line"/>
      <point x="495.6136363636364" y="393.79545454545456"/>
      <point x="507.65909090909093" y="509.02272727272725"/>
      <point x="417.27272727272725" y="509.02272727272725" type="curve" smooth="yes"/>
      <point x="310.90909090909093" y="509.02272727272725"/>
      <point x="223.6818181818182" y="387.1136363636364"/>
      <point x="182.04545454545453" y="293.3863636363636" type="curve"/>
      <point x="187.04545454545453" y="286.4318181818182" type="line"/>
      <point x="202.29545454545453" y="373.02272727272725"/>
      <point x="215.4090909090909" y="438.27272727272725"/>
      <point x="230.86363636363637" y="488.1818181818182" type="curve"/>
      <point x="207.77272727272728" y="509.02272727272725" type="line"/>
      <point x="40.63636363636363" y="464.4318181818182" type="line"/>
      <point x="40.63636363636363" y="425.95454545454544" type="line"/>
      <point x="160.5" y="419.54545454545456" type="line"/>
      <point x="124.75" y="448.40909090909093" type="line"/>
      <point x="110.79545454545455" y="285.3863636363636"/>
      <point x="100.11363636363636" y="198.9090909090909"/>
      <point x="51.11363636363636" y="4.590909090909091" type="curve"/>
    </contour>
  </outline>
</glyph>
<glyph name="n" format="2">
  <advance width="565.125"/>
  <unicode hex="006E"/>
  <anchor x="246.38636363636363" y="0.0" name="bottom"/>
  <anchor x="315.9318181818182" y="494.0" name="top"/>
  <outline>
    <contour>
      <point x="77.1590909090909" y="-11.022727272727273" type="line"/>
      <point x="147.8181818181818" y="4.590909090909091" type="line"/>
      <point x="151.4090909090909" y="37.68181818181818"/>
      <point x="155.0" y="66.61363636363636"/>
      <point x="161.1818181818182" y="101.70454545454545" type="curve"/>
      <point x="208.25" y="306.54545454545456"/>
      <point x="313.0" y="430.1363636363636"/>
      <point x="359.52272727272725" y="430.1363636363636" type="curve" smooth="yes"/>
      <point x="385.8863636363636" y="430.1363636363636"/>
      <point x="391.8636363636364" y="403.54545454545456"/>
      <point x="391.8636363636364" y="377.3863636363636" type="curve" smooth="yes"/>
      <point x="391.8636363636364" y="288.15909090909093"/>
      <point x="355.4318181818182" y="133.75"/>
      <point x="325.79545454545456" y="4.590909090909091" type="curve"/>
      <point x="351.45454545454544" y="-11.022727272727273" type="line"/>
      <point x="524.6136363636364" y="33.36363636363637" type="line"/>
      <point x="527.8181818181819" y="70.45454545454545" type="line"/>
      <point x="398.79545454545456" y="77.88636363636364" type="line"/>
      <point x="434.9318181818182" y="49.15909090909091" type="line"/>
      <point x="439.52272727272725" y="185.36363636363637"/>
      <point x="488.34090909090907" y="330.20454545454544"/>
      <point x="488.34090909090907" y="426.8181818181818" type="curve" smooth="yes"/>
      <point x="488.34090909090907" y="471.4318181818182"/>
      <point x="467.29545454545456" y="509.02272727272725"/>
      <point x="416.09090909090907" y="509.02272727272725" type="curve" smooth="yes"/>
      <point x="307.5681818181818" y="509.02272727272725"/>
      <point x="220.3409090909091" y="380.0681818181818"/>
      <point x="182.25" y="293.59090909090907" type="curve"/>
      <point x="187.04545454545453" y="286.4318181818182" type="line"/>
      <point x="201.5" y="368.25"/>
      <point x="214.8181818181818" y="436.6818181818182"/>
      <point x="230.6590909090909" y="488.1818181818182" type="curve"/>
      <point x="207.5681818181818" y="509.02272727272725" type="line"/>
      <point x="40.43181818181818" y="464.4318181818182" type="line"/>
      <point x="40.43181818181818" y="425.95454545454544" type="line"/>
      <point x="160.29545454545453" y="419.54545454545456" type="line"/>
      <point x="124.75" y="448.40909090909093" type="line"/>
      <point x="109.4090909090909" y="279.8181818181818"/>
      <point x="102.29545454545455" y="209.25"/>
      <point x="51.11363636363636" y="4.590909090909091" type="curve"/>
    </contour>
  </outline>
</glyph>
<glyph name="o" format="2">
  <advance width="473.5"/>
  <unicode hex="006F"/>
  <anchor x="202.70454545454547" y="0.0" name="bottom"/>
  <anchor x="237.70454545454547" y="248.5909090909091" name="center"/>
  <anchor x="260.5681818181818" y="2.6136363636363638" name="ogonek"/>
  <anchor x="271.90909090909093" y="494.0" name="top"/>
  <anchor x="378.84090909090907" y="443.1818181818182" name="topright"/>
  <outline>
    <contour>
      <point x="177.88636363636363" y="-11.022727272727273" type="curve" smooth="yes"/>
      <point x="319.59090909090907" y="-11.022727272727273"/>
      <point x="441.6363636363636" y="149.9318181818182"/>
      <point x="441.6363636363636" y="335.15909090909093" type="curve" smooth="yes"/>
      <point x="441.6363636363636" y="445.8181818181818"/>
      <point x="390.20454545454544" y="509.02272727272725"/>
      <point x="295.9318181818182" y="509.02272727272725" type="curve" smooth="yes"/>
      <point x="154.4318181818182" y="509.02272727272725"/>
      <point x="32.18181818181818" y="348.0681818181818"/>
      <point x="32.18181818181818" y="164.4318181818182" type="curve" smooth="yes"/>
      <point x="32.18181818181818" y="55.36363636363637"/>
      <point x="84.61363636363636" y="-11.022727272727273"/>
    </contour>
    <contour>
      <point x="196.5681818181818" y="48.56818181818182" type="curve" smooth="yes"/>
      <point x="153.63636363636363" y="48.56818181818182"/>
      <point x="132.04545454545456" y="88.3409090909091"/>
      <point x="132.04545454545456" y="161.27272727272728" type="curve" smooth="yes"/>
      <point x="132.04545454545456" y="327.02272727272725"/>
      <point x="191.9318181818182" y="451.02272727272725"/>
      <point x="278.25" y="451.02272727272725" type="curve" smooth="yes"/>
      <point x="321.77272727272725" y="451.02272727272725"/>
      <point x="342.5681818181818" y="410.45454545454544"/>
      <point x="342.5681818181818" y="337.52272727272725" type="curve" smooth="yes"/>
      <point x="342.5681818181818" y="169.38636363636363"/>
      <point x="281.09090909090907" y="48.56818181818182"/>
    </contour>
  </outline>
</glyph>
<glyph name="p" format="2">
  <advance width="507.75"/>
  <unicode hex="0070"/>
  <anchor x="222.70454545454547" y="0.0" name="bottom"/>
  <anchor x="292.70454545454544" y="494.0" name="top"/>
  <outline>
    <contour>
      <point x="40.0" y="-276.3863636363636" type="line"/>
      <point x="109.86363636363636" y="-261.5681818181818" type="line"/>
      <point x="122.6590909090909" y="-145.4090909090909"/>
      <point x="135.45454545454547" y="-51.61363636363637"/>
      <point x="149.25" y="51.11363636363636" type="curve"/>
      <point x="168.3181818181818" y="223.52272727272728"/>
      <point x="279.1136363636364" y="441.27272727272725"/>
      <point x="341.65909090909093" y="441.27272727272725" type="curve" smooth="yes"/>
      <point x="368.4318181818182" y="441.27272727272725"/>
      <point x="385.95454545454544" y="399.3636363636364"/>
      <point x="385.95454545454544" y="346.0681818181818" type="curve" smooth="yes"/>
      <point x="385.95454545454544" y="225.0909090909091"/>
      <point x="319.70454545454544" y="48.84090909090909"/>
      <point x="270.59090909090907" y="48.84090909090909" type="curve" smooth="yes"/>
      <point x="227.4090909090909" y="48.84090909090909"/>
      <point x="152.54545454545456" y="84.75"/>
      <point x="141.0681818181818" y="89.38636363636364" type="curve"/>
      <point x="131.63636363636363" y="3.590909090909091" type="line"/>
      <point x="155.88636363636363" y="-0.8181818181818182"/>
      <point x="224.0" y="-11.022727272727273"/>
      <point x="256.5681818181818" y="-11.022727272727273" type="curve" smooth="yes"/>
      <point x="351.8863636363636" y="-11.022727272727273"/>
      <point x="478.4318181818182" y="201.9090909090909"/>
      <point x="478.4318181818182" y="358.0" type="curve" smooth="yes"/>
      <point x="478.4318181818182" y="453.5"/>
      <point x="444.8863636363636" y="509.02272727272725"/>
      <point x="380.1363636363636" y="509.02272727272725" type="curve" smooth="yes"/>
      <point x="309.25" y="509.02272727272725"/>
      <point x="236.45454545454547" y="432.02272727272725"/>
      <point x="182.61363636363637" y="324.54545454545456" type="curve"/>
      <point x="192.20454545454547" y="324.95454545454544" type="line"/>
      <point x="205.63636363636363" y="401.6363636363636"/>
      <point x="216.38636363636363" y="435.15909090909093"/>
      <point x="230.4318181818182" y="488.1818181818182" type="curve"/>
      <point x="206.3409090909091" y="509.02272727272725" type="line"/>
      <point x="40.0" y="464.4318181818182" type="line"/>
      <point x="40.0" y="425.95454545454544" type="line"/>
      <point x="160.27272727272728" y="419.54545454545456" type="line"/>
      <point x="123.13636363636364" y="439.20454545454544" type="line"/>
      <point x="111.36363636363636" y="276.34090909090907"/>
      <point x="59.43181818181818" y="-61.06818181818182"/>
      <point x="13.954545454545455" y="-261.5681818181818" type="curve"/>
    </contour>
  </outline>
</glyph>
<glyph name="q" format="2">
  <advance width="485.625"/>
  <unicode hex="0071"/>
  <anchor x="211.0909090909091" y="0.0" name="bottom"/>
  <anchor x="271.09090909090907" y="494.0" name="top"/>
  <outline>
    <contour>
      <point x="271.8181818181818" y="-277.0" type="line"/>
      <point x="348.65909090909093" y="-256.1818181818182" type="line"/>
      <point x="358.29545454545456" y="-70.13636363636364"/>
      <point x="411.0681818181818" y="314.59090909090907"/>
      <point x="459.8636363636364" y="492.95454545454544" type="curve"/>
      <point x="434.1818181818182" y="509.02272727272725" type="line"/>
      <point x="354.8181818181818" y="490.3636363636364" type="line"/>
      <point x="352.8181818181818" y="440.3863636363636" type="line" smooth="yes"/>
      <point x="346.6136363636364" y="283.34090909090907"/>
      <point x="222.9318181818182" y="57.52272727272727"/>
      <point x="165.1818181818182" y="57.52272727272727" type="curve" smooth="yes"/>
      <point x="139.0" y="57.52272727272727"/>
      <point x="123.06818181818181" y="97.04545454545455"/>
      <point x="123.06818181818181" y="151.9318181818182" type="curve" smooth="yes"/>
      <point x="123.06818181818181" y="272.1136363636364"/>
      <point x="188.52272727272728" y="449.95454545454544"/>
      <point x="236.25" y="449.95454545454544" type="curve" smooth="yes"/>
      <point x="289.45454545454544" y="449.95454545454544"/>
      <point x="366.02272727272725" y="407.0"/>
      <point x="378.40909090909093" y="401.8181818181818" type="curve"/>
      <point x="383.27272727272725" y="493.59090909090907" type="line"/>
      <point x="363.27272727272725" y="494.59090909090907"/>
      <point x="285.8863636363636" y="509.02272727272725"/>
      <point x="251.0681818181818" y="509.02272727272725" type="curve" smooth="yes"/>
      <point x="154.95454545454547" y="509.02272727272725"/>
      <point x="27.613636363636363" y="297.6818181818182"/>
      <point x="29.204545454545453" y="140.0" type="curve" smooth="yes"/>
      <point x="30.0" y="43.70454545454545"/>
      <point x="61.75" y="-11.022727272727273"/>
      <point x="127.5" y="-11.022727272727273" type="curve" smooth="yes"/>
      <point x="207.6590909090909" y="-11.022727272727273"/>
      <point x="288.15909090909093" y="86.75"/>
      <point x="341.59090909090907" y="210.3181818181818" type="curve"/>
      <point x="335.15909090909093" y="228.70454545454547" type="line"/>
      <point x="321.0" y="124.81818181818181"/>
      <point x="307.09090909090907" y="67.06818181818181"/>
      <point x="292.4318181818182" y="-5.590909090909091" type="curve"/>
      <point x="277.6136363636364" y="-92.02272727272727"/>
      <point x="261.3863636363636" y="-178.04545454545453"/>
      <point x="246.36363636363637" y="-261.3863636363636" type="curve"/>
    </contour>
  </outline>
</glyph>
<glyph name="r" format="2">
  <advance width="388.0"/>
  <unicode hex="0072"/>
  <anchor x="151.45454545454547" y="0.0" name="bottom"/>
  <anchor x="221.9090909090909" y="494.0" name="top"/>
  <outline>
    <contour>
      <point x="76.36363636363636" y="-11.022727272727273" type="line"/>
      <point x="147.02272727272728" y="4.590909090909091" type="line"/>
      <point x="152.20454545454547" y="40.68181818181818"/>
      <point x="155.4090909090909" y="75.0"/>
      <point x="161.63636363636363" y="112.06818181818181" type="curve"/>
      <point x="198.70454545454547" y="290.1590909090909"/>
      <point x="267.8181818181818" y="378.1818181818182"/>
      <point x="319.6363636363636" y="378.1818181818182" type="curve" smooth="yes"/>
      <point x="329.8636363636364" y="378.1818181818182"/>
      <point x="348.34090909090907" y="373.52272727272725"/>
      <point x="361.54545454545456" y="368.90909090909093" type="curve"/>
      <point x="397.77272727272725" y="496.20454545454544" type="line"/>
      <point x="390.77272727272725" y="500.8181818181818"/>
      <point x="379.5681818181818" y="508.8181818181818"/>
      <point x="363.79545454545456" y="508.8181818181818" type="curve" smooth="yes"/>
      <point x="303.0" y="508.8181818181818"/>
      <point x="236.04545454545453" y="410.95454545454544"/>
      <point x="175.75" y="283.25" type="curve"/>
      <point x="187.79545454545453" y="291.9090909090909" type="line"/>
      <point x="196.4318181818182" y="353.29545454545456"/>
      <point x="213.9090909090909" y="422.5681818181818"/>
      <point x="230.6590909090909" y="488.1818181818182" type="curve"/>
      <point x="207.5681818181818" y="509.02272727272725" type="line"/>
      <point x="40.43181818181818" y="464.4318181818182" type="line"/>
      <point x="40.43181818181818" y="425.95454545454544" type="line"/>
      <point x="160.29545454545453" y="419.54545454545456" type="line"/>
      <point x="125.54545454545455" y="451.77272727272725" type="line"/>
      <point x="110.0" y="265.54545454545456"/>
      <point x="92.18181818181819" y="173.95454545454547"/>
      <point x="50.31818181818182" y="4.590909090909091" type="curve"/>
    </contour>
  </outline>
</glyph>
<glyph name="s" format="2">
  <advance width="387.5"/>
  <unicode hex="0073"/>
  <anchor x="150.70454545454547" y="0.0" name="bottom"/>
  <anchor x="230.70454545454547" y="494.0" name="top"/>
  <outline>
    <contour>
      <point x="150.95454545454547" y="-11.022727272727273" type="curve" smooth="yes"/>
      <point x="248.04545454545456" y="-11.022727272727273"/>
      <point x="329.84090909090907" y="54.59090909090909"/>
      <point x="329.84090909090907" y="151.4090909090909" type="curve" smooth="yes"/>
      <point x="329.84090909090907" y="273.95454545454544"/>
      <point x="154.29545454545456" y="318.09090909090907"/>
      <point x="154.29545454545456" y="392.4318181818182" type="curve" smooth="yes"/>
      <point x="154.29545454545456" y="430.5681818181818"/>
      <point x="193.1818181818182" y="457.52272727272725"/>
      <point x="229.5" y="457.52272727272725" type="curve" smooth="yes"/>
      <point x="259.34090909090907" y="457.52272727272725"/>
      <point x="275.59090909090907" y="445.8863636363636"/>
      <point x="302.0681818181818" y="432.90909090909093" type="curve"/>
      <point x="273.79545454545456" y="483.3863636363636" type="line"/>
      <point x="291.52272727272725" y="346.1363636363636" type="line"/>
      <point x="332.1818181818182" y="343.1363636363636" type="line"/>
      <point x="365.40909090909093" y="468.75" type="line"/>
      <point x="344.40909090909093" y="494.02272727272725" type="line"/>
      <point x="303.4318181818182" y="501.8181818181818"/>
      <point x="267.59090909090907" y="509.02272727272725"/>
      <point x="230.36363636363637" y="509.02272727272725" type="curve" smooth="yes"/>
      <point x="145.79545454545453" y="509.02272727272725"/>
      <point x="72.79545454545455" y="448.04545454545456"/>
      <point x="72.79545454545455" y="368.1818181818182" type="curve" smooth="yes"/>
      <point x="72.79545454545455" y="224.8409090909091"/>
      <point x="241.52272727272728" y="201.0909090909091"/>
      <point x="241.52272727272728" y="121.36363636363636" type="curve" smooth="yes"/>
      <point x="241.52272727272728" y="69.63636363636364"/>
      <point x="205.61363636363637" y="42.68181818181818"/>
      <point x="159.29545454545453" y="42.68181818181818" type="curve" smooth="yes"/>
      <point x="120.11363636363636" y="42.68181818181818"/>
      <point x="101.63636363636364" y="62.09090909090909"/>
      <point x="67.79545454545455" y="94.0" type="curve"/>
      <point x="87.5" y="34.95454545454545" type="line"/>
      <point x="100.25" y="168.0681818181818" type="line"/>
      <point x="62.79545454545455" y="177.88636363636363" type="line"/>
      <point x="13.204545454545455" y="76.79545454545455" type="line"/>
      <point x="14.25" y="43.13636363636363" type="line"/>
      <point x="41.79545454545455" y="14.113636363636363"/>
      <point x="99.13636363636364" y="-11.022727272727273"/>
    </contour>
  </outline>
</glyph>
<glyph name="t" format="2">
  <advance width="391.9318181818182"/>
  <unicode hex="0074"/>
  <anchor x="156.04545454545453" y="0.0" name="bottom"/>
  <anchor x="148.11363636363637" y="272.3863636363636" name="center"/>
  <anchor x="196.77272727272728" y="541.25" name="top"/>
  <anchor x="353.52272727272725" y="547.7727272727273" name="topright"/>
  <outline>
    <contour>
      <point x="356.1363636363636" y="130.54545454545453" type="curve"/>
      <point x="323.04545454545456" y="154.63636363636363" type="line"/>
      <point x="276.34090909090907" y="40.20454545454545"/>
      <point x="160.4318181818182" y="14.568181818181818"/>
      <point x="177.4090909090909" y="135.04545454545453" type="curve" smooth="yes"/>
      <point x="195.1818181818182" y="261.5"/>
      <point x="211.95454545454547" y="354.45454545454544"/>
      <point x="230.77272727272728" y="462.5681818181818" type="curve"/>
      <point x="177.8409090909091" y="424.3636363636364" type="line"/>
      <point x="360.70454545454544" y="424.3636363636364" type="line"/>
      <point x="375.9318181818182" y="481.09090909090907" type="line"/>
      <point x="190.29545454545453" y="481.09090909090907" type="line"/>
      <point x="230.5681818181818" y="466.9318181818182" type="line"/>
      <point x="252.1590909090909" y="600.5454545454545" type="line"/>
      <point x="205.25" y="613.5909090909091" type="line"/>
      <point x="205.25" y="613.5909090909091"/>
      <point x="161.8409090909091" y="512.5227272727273"/>
      <point x="140.6590909090909" y="498.9318181818182" type="curve" smooth="yes"/>
      <point x="116.6590909090909" y="485.3181818181818"/>
      <point x="74.79545454545455" y="475.27272727272725"/>
      <point x="42.40909090909091" y="469.25" type="curve"/>
      <point x="37.79545454545455" y="424.3636363636364" type="line"/>
      <point x="165.86363636363637" y="424.3636363636364" type="line"/>
      <point x="136.5" y="464.77272727272725" type="line"/>
      <point x="114.54545454545455" y="298.0"/>
      <point x="107.5" y="259.8636363636364"/>
      <point x="85.70454545454545" y="141.11363636363637" type="curve" smooth="yes"/>
      <point x="49.70454545454545" y="-55.63636363636363"/>
      <point x="262.5681818181818" y="-59.63636363636363"/>
    </contour>
  </outline>
</glyph>
<glyph name="v" format="2">
  <advance width="486.375"/>
  <unicode hex="0076"/>
  <anchor x="211.70454545454547" y="0.0" name="bottom"/>
  <anchor x="280.1136363636364" y="494.0" name="top"/>
  <outline>
    <contour>
      <point x="141.63636363636363" y="-11.022727272727273" type="curve" smooth="yes"/>
      <point x="304.09090909090907" y="-11.022727272727273"/>
      <point x="469.45454545454544" y="237.8181818181818"/>
      <point x="475.29545454545456" y="492.95454545454544" type="curve"/>
      <point x="451.40909090909093" y="509.02272727272725" type="line"/>
      <point x="297.52272727272725" y="464.4318181818182" type="line"/>
      <point x="302.29545454545456" y="425.95454545454544" type="line"/>
      <point x="417.15909090909093" y="419.54545454545456" type="line"/>
      <point x="376.8181818181818" y="436.79545454545456" type="line"/>
      <point x="380.8181818181818" y="409.34090909090907"/>
      <point x="383.8181818181818" y="364.40909090909093"/>
      <point x="383.8181818181818" y="354.79545454545456" type="curve" smooth="yes"/>
      <point x="383.8181818181818" y="238.38636363636363"/>
      <point x="276.34090909090907" y="68.36363636363636"/>
      <point x="201.1590909090909" y="68.36363636363636" type="curve" smooth="yes"/>
      <point x="184.77272727272728" y="68.36363636363636"/>
      <point x="177.95454545454547" y="78.1590909090909"/>
      <point x="177.95454545454547" y="99.70454545454545" type="curve" smooth="yes"/>
      <point x="177.95454545454547" y="163.36363636363637"/>
      <point x="213.1818181818182" y="340.0"/>
      <point x="213.1818181818182" y="376.8181818181818" type="curve" smooth="yes"/>
      <point x="213.1818181818182" y="492.95454545454544" type="line"/>
      <point x="188.0909090909091" y="509.02272727272725" type="line"/>
      <point x="40.20454545454545" y="464.4318181818182" type="line"/>
      <point x="44.18181818181818" y="425.95454545454544" type="line"/>
      <point x="161.25" y="419.54545454545456" type="line"/>
      <point x="122.5" y="434.40909090909093" type="line"/>
      <point x="124.5" y="410.25"/>
      <point x="125.70454545454545" y="356.6363636363636"/>
      <point x="125.70454545454545" y="347.5681818181818" type="curve" smooth="yes"/>
      <point x="125.70454545454545" y="275.8636363636364"/>
      <point x="79.11363636363636" y="109.4090909090909"/>
      <point x="79.11363636363636" y="56.0" type="curve" smooth="yes"/>
      <point x="79.11363636363636" y="12.772727272727273"/>
      <point x="101.3409090909091" y="-11.022727272727273"/>
    </contour>
  </outline>
</glyph>
<glyph name="w" format="2">
  <advance width="760.625"/>
  <unicode hex="0077"/>
  <anchor x="349.3636363636364" y="0.0" name="bottom"/>
  <anchor x="409.3636363636364" y="494.0" name="top"/>
  <outline>
    <contour>
      <point x="143.0" y="-11.022727272727273" type="curve" smooth="yes"/>
      <point x="215.3409090909091" y="-11.022727272727273"/>
      <point x="307.90909090909093" y="46.63636363636363"/>
      <point x="378.45454545454544" y="160.52272727272728" type="curve"/>
      <point x="366.5681818181818" y="169.02272727272728" type="line"/>
      <point x="358.6136363636364" y="118.18181818181819"/>
      <point x="351.04545454545456" y="79.79545454545455"/>
      <point x="351.04545454545456" y="60.56818181818182" type="curve" smooth="yes"/>
      <point x="351.04545454545456" y="22.75"/>
      <point x="369.25" y="-11.022727272727273"/>
      <point x="406.1363636363636" y="-11.022727272727273" type="curve" smooth="yes"/>
      <point x="546.0909090909091" y="-11.022727272727273"/>
      <point x="744.2954545454545" y="196.0"/>
      <point x="747.1590909090909" y="492.95454545454544" type="curve"/>
      <point x="720.8863636363636" y="509.02272727272725" type="line"/>
      <point x="566.4318181818181" y="464.4318181818182" type="line"/>
      <point x="571.7954545454545" y="425.95454545454544" type="line"/>
      <point x="686.6363636363636" y="419.54545454545456" type="line"/>
      <point x="643.2954545454545" y="461.1363636363636" type="line"/>
      <point x="648.8863636363636" y="415.3863636363636"/>
      <point x="653.6818181818181" y="369.20454545454544"/>
      <point x="653.6818181818181" y="354.79545454545456" type="curve" smooth="yes"/>
      <point x="653.6818181818181" y="213.9318181818182"/>
      <point x="528.5227272727273" y="68.36363636363636"/>
      <point x="463.25" y="68.36363636363636" type="curve" smooth="yes"/>
      <point x="446.29545454545456" y="68.36363636363636"/>
      <point x="439.45454545454544" y="79.3409090909091"/>
      <point x="439.45454545454544" y="98.9090909090909" type="curve" smooth="yes"/>
      <point x="439.45454545454544" y="162.5681818181818"/>
      <point x="472.27272727272725" y="339.79545454545456"/>
      <point x="472.27272727272725" y="376.8181818181818" type="curve"/>
      <point x="467.8636363636364" y="493.20454545454544" type="line"/>
      <point x="443.40909090909093" y="508.02272727272725" type="line"/>
      <point x="370.3863636363636" y="490.02272727272725" type="line"/>
      <point x="375.15909090909093" y="444.27272727272725"/>
      <point x="385.1818181818182" y="364.20454545454544"/>
      <point x="385.1818181818182" y="354.79545454545456" type="curve" smooth="yes"/>
      <point x="385.1818181818182" y="214.70454545454547"/>
      <point x="266.65909090909093" y="68.36363636363636"/>
      <point x="201.13636363636363" y="68.36363636363636" type="curve" smooth="yes"/>
      <point x="185.5681818181818" y="68.36363636363636"/>
      <point x="177.3409090909091" y="80.93181818181819"/>
      <point x="177.3409090909091" y="99.70454545454545" type="curve" smooth="yes"/>
      <point x="177.3409090909091" y="163.36363636363637"/>
      <point x="214.13636363636363" y="339.59090909090907"/>
      <point x="214.95454545454547" y="376.8181818181818" type="curve" smooth="yes"/>
      <point x="215.1590909090909" y="492.95454545454544" type="line"/>
      <point x="187.88636363636363" y="509.02272727272725" type="line"/>
      <point x="39.81818181818182" y="464.4318181818182" type="line"/>
      <point x="44.38636363636363" y="425.95454545454544" type="line"/>
      <point x="161.4318181818182" y="419.54545454545456" type="line"/>
      <point x="121.68181818181819" y="449.3636363636364" type="line"/>
      <point x="124.68181818181819" y="425.9318181818182"/>
      <point x="125.68181818181819" y="375.34090909090907"/>
      <point x="125.68181818181819" y="348.3863636363636" type="curve" smooth="yes"/>
      <point x="125.68181818181819" y="273.45454545454544"/>
      <point x="80.68181818181819" y="110.61363636363636"/>
      <point x="80.68181818181819" y="57.38636363636363" type="curve" smooth="yes"/>
      <point x="80.68181818181819" y="19.568181818181817"/>
      <point x="99.0909090909091" y="-11.022727272727273"/>
    </contour>
  </outline>
</glyph>
<glyph name="x" format="2">
  <advance width="516.0"/>
  <unicode hex="0078"/>
  <anchor x="224.5" y="0.0" name="bottom"/>
  <anchor x="293.70454545454544" y="494.0" name="top"/>
  <outline>
    <contour>
      <point x="323.1818181818182" y="-11.022727272727273" type="line"/>
      <point x="466.5681818181818" y="33.36363636363637" type="line"/>
      <point x="470.5681818181818" y="70.45454545454545" type="line"/>
      <point x="332.29545454545456" y="77.88636363636364" type="line"/>
      <point x="380.02272727272725" y="55.31818181818182" type="line"/>
      <point x="323.1136363636364" y="189.3181818181818"/>
      <point x="265.70454545454544" y="341.6363636363636"/>
      <point x="222.88636363636363" y="493.75" type="curve"/>
      <point x="197.79545454545456" y="509.02272727272725" type="line"/>
      <point x="52.43181818181818" y="468.20454545454544" type="line"/>
      <point x="60.25" y="429.9318181818182" type="line"/>
      <point x="175.29545454545453" y="424.3181818181818" type="line"/>
      <point x="125.29545454545455" y="444.40909090909093" type="line"/>
      <point x="197.70454545454547" y="323.8636363636364"/>
      <point x="248.13636363636363" y="165.61363636363637"/>
      <point x="300.1136363636364" y="4.590909090909091" type="curve"/>
    </contour>
    <contour>
      <point x="51.63636363636363" y="-11.022727272727273" type="line"/>
      <point x="136.6818181818182" y="53.40909090909091" type="line"/>
      <point x="175.4090909090909" y="98.13636363636364"/>
      <point x="220.1818181818182" y="164.04545454545453"/>
      <point x="252.77272727272728" y="208.38636363636363" type="curve"/>
      <point x="226.9318181818182" y="268.34090909090907" type="line"/>
      <point x="186.75" y="209.45454545454547"/>
      <point x="118.56818181818181" y="117.9090909090909"/>
      <point x="110.75" y="112.29545454545455" type="curve" smooth="yes"/>
      <point x="103.13636363636364" y="106.88636363636364"/>
      <point x="31.431818181818183" y="76.9090909090909"/>
      <point x="6.386363636363637" y="67.0909090909091" type="curve"/>
      <point x="28.795454545454547" y="5.409090909090909" type="line"/>
    </contour>
    <contour>
      <point x="290.65909090909093" y="229.4318181818182" type="line"/>
      <point x="319.5" y="269.8181818181818"/>
      <point x="390.9318181818182" y="376.34090909090907"/>
      <point x="406.1136363636364" y="386.52272727272725" type="curve" smooth="yes"/>
      <point x="415.3181818181818" y="392.52272727272725"/>
      <point x="461.6363636363636" y="415.45454545454544"/>
      <point x="497.59090909090907" y="428.25" type="curve"/>
      <point x="485.84090909090907" y="492.59090909090907" type="line"/>
      <point x="463.3863636363636" y="509.02272727272725" type="line"/>
      <point x="379.1363636363636" y="443.3863636363636" type="line"/>
      <point x="341.27272727272725" y="399.09090909090907"/>
      <point x="300.5681818181818" y="334.90909090909093"/>
      <point x="265.8181818181818" y="288.20454545454544" type="curve"/>
    </contour>
  </outline>
</glyph>
